{
classes = (
{
code = "grII grU grUU grEE grAI grOO grAU grmII grmEE grmAI grmOO grmAU\012";
name = bases_for_headline_insertion;
}
);
copyright = "~";
customParameters = (
{
name = glyphOrder;
value = (
    grA,
    grAA,
    grI,
    grII,
    grU,
    grUU,
    grEE,
    grAI,
    grOO,
    grAU,
    grIri,
    grUra,
    grmAA,
    grmI,
    grmII,
    grmU,
    grmUU,
    "grmUU.alt",
    grmEE,
    grmAI,
    grmOO,
    grmAU,
    grKA,
    grKHA,
    grGA,
    grGHA,
    grNGA,
    grCA,
    grCHA,
    grJA,
    grJHA,
    grNYA,
    grTTA,
    grTTHA,
    grDDA,
    grDDHA,
    grNNA,
    grTA,
    grTHA,
    grDA,
    grDHA,
    grNA,
    grPA,
    grPHA,
    grBA,
    grBHA,
    grMA,
    grYA,
    grRA,
    grLA,
    grVA,
    grSA,
    grHA,
    grRRA,
    grKHxA,
    grGxA,
    grJxA,
    grPHxA,
    grLxA,
    grSxA,
    grBindi,
    grTippi,
    grVisarga,
    grVirama,
    grNukta,
    grAddak,
    grAdakbindi,
    grUdaat,
    grYakash,
    grZero,
    grOne,
    grTwo,
    grThree,
    grFour,
    grFive,
    grSix,
    grSeven,
    grEight,
    grNine,
    grEkonkar,
    adishakti,
    danda,
    doubledanda,
    grRAc2,
    grVAc2,
    grHAc2,
    grYAc2,
    "grKA_RAc2",
    "grKHA_RAc2",
    "grGA_RAc2",
    "grGHA_RAc2",
    "grNGA_RAc2",
    "grCA_RAc2",
    "grCHA_RAc2",
    "grJA_RAc2",
    "grJHA_RAc2",
    "grNYA_RAc2",
    "grTTA_RAc2",
    "grTTHA_RAc2",
    "grDDA_RAc2",
    "grDDHA_RAc2",
    "grNNA_RAc2",
    "grTA_RAc2",
    "grTHA_RAc2",
    "grDA_RAc2",
    "grDHA_RAc2",
    "grNA_RAc2",
    "grPA_RAc2",
    "grPHA_RAc2",
    "grBA_RAc2",
    "grBHA_RAc2",
    "grMA_RAc2",
    "grYA_RAc2",
    "grRA_RAc2",
    "grLA_RAc2",
    "grVA_RAc2",
    "grSA_RAc2",
    "grHA_RAc2",
    "grRRA_RAc2",
    "grKHxA_RAc2",
    "grGxA_RAc2",
    "grJxA_RAc2",
    "grPHxA_RAc2",
    "grLxA_RAc2",
    "grSxA_RAc2",
    "grmII_Bindi",
    "grmEE_Bindi",
    "grmAI_Bindi",
    "grmOO_Bindi",
    "grmAU_Bindi",
    grHeadline,

glyphs = (
{
glyphname = grA;
lastChange = "2015-07-03 10:47:14 +0000";
layers = (
{
anchors = (
{
name = top;
position = "{564, 635}";
},
{
name = top.addak;
position = "{564, 635}";
},
{
name = top.bindi;
position = "{564, 635}";
},
{
name = top.tippi;
position = "{564, 635}";
}
);
layerId = "8D1DA624-BCA2-432D-8EAC-BD2525041625";
name = Light;
paths = (
{
closed = 1;
nodes = (
"533 0 LINE",
"595 0 LINE",
"595 580 LINE",
"715 580 LINE",
"715 635 LINE",
"533 635 LINE"
);
},
{
closed = 1;
nodes = (
"46 580 LINE",
"81 580 OFFCURVE",
"92 558 OFFCURVE",
"92 510 CURVE SMOOTH",
"92 444 LINE",
"68 436 OFFCURVE",
"50 415 OFFCURVE",
"50 392 CURVE SMOOTH",
"50 369 OFFCURVE",
"62 344 OFFCURVE",
"75 316 CURVE SMOOTH",
"99 266 LINE",
"154 266 LINE",
"154 396 LINE",
"270 451 LINE SMOOTH",
"306 468 OFFCURVE",
"324 464 OFFCURVE",
"324 410 CURVE SMOOTH",
"324 303 LINE",
"300 295 OFFCURVE",
"282 274 OFFCURVE",
"282 251 CURVE SMOOTH",
"282 228 OFFCURVE",
"294 203 OFFCURVE",
"307 175 CURVE SMOOTH",
"331 125 LINE",
"384 125 LINE",
"384 253 LINE",
"537 331 LINE",
"537 395 LINE",
"384 319 LINE",
"384 428 LINE SMOOTH",
"384 516 OFFCURVE",
"333 544 OFFCURVE",
"246 503 CURVE SMOOTH",
"154 460 LINE",
"154 524 LINE SMOOTH",
"154 596 OFFCURVE",
"126 635 OFFCURVE",
"55 635 CURVE",
"-20 635 LINE",
"-20 580 LINE"
);
}
);
width = 695;
},
{
anchors = (
{
name = top;
position = "{662, 670}";
},
{
name = top.addak;
position = "{662, 670}";
},
{
name = top.bindi;
position = "{662, 670}";
},
{
name = top.tippi;
position = "{662, 670}";
}
);
layerId = "EDB6D985-9BDA-48FF-B1DC-CE6E1D224CE4";
name = Bold;
paths = (
{
closed = 1;
nodes = (
"592 0 LINE",
"732 0 LINE",
"732 558 LINE",
"832 558 LINE",
"832 670 LINE",
"592 670 LINE"
);
},
{
closed = 1;
nodes = (
"40 558 LINE",
"72 558 OFFCURVE",
"86 540 OFFCURVE",
"86 511 CURVE SMOOTH",
"86 441 LINE",
"57 423 OFFCURVE",
"40 401 OFFCURVE",
"40 371 CURVE SMOOTH",
"40 349 OFFCURVE",
"50 326 OFFCURVE",
"70 294 CURVE SMOOTH",
"103 241 LINE",
"225 241 LINE",
"225 353 LINE",
"326 410 LINE SMOOTH",
"353 425 OFFCURVE",
"356 417 OFFCURVE",
"356 389 CURVE SMOOTH",
"356 310 LINE",
"327 292 OFFCURVE",
"310 270 OFFCURVE",
"310 240 CURVE SMOOTH",
"310 218 OFFCURVE",
"320 195 OFFCURVE",
"340 163 CURVE SMOOTH",
"373 110 LINE",
"485 110 LINE",
"485 227 LINE",
"604 301 LINE",
"604 442 LINE",
"485 367 LINE",
"485 425 LINE SMOOTH",
"485 542 OFFCURVE",
"408 581 OFFCURVE",
"315 534 CURVE SMOOTH",
"225 488 LINE",
"225 525 LINE SMOOTH",
"225 620 OFFCURVE",
"176 670 OFFCURVE",
"72 670 CURVE",
"-20 670 LINE",
"-20 558 LINE"
);
}
);
width = 812;
}
);
unicode = 0A05;
},
{
glyphname = grOO;
lastChange = "2015-07-03 10:47:14 +0000";
layers = (
{
layerId = "8D1DA624-BCA2-432D-8EAC-BD2525041625";
name = Light;
paths = (
{
closed = 1;
nodes = (
"-20 580 LINE",
"-20 635 LINE",
"607 635 LINE",
"607 580 LINE"
);
},
{
closed = 1;
nodes = (
"534 480 LINE",
"534 408 OFFCURVE",
"486 353 OFFCURVE",
"427 335 CURVE",
"99 335 LINE",
"99 370 LINE",
"349 370 LINE SMOOTH",
"443 370 OFFCURVE",
"472 422 OFFCURVE",
"472 479 CURVE",
"472 586 LINE",
"534 586 LINE"
);
},
{
closed = 1;
nodes = (
"461 848 OFFCURVE",
"495 840 OFFCURVE",
"534 830 CURVE",
"534 773 LINE",
"487 786 OFFCURVE",
"453 791 OFFCURVE",
"404 791 CURVE SMOOTH",
"202 791 OFFCURVE",
"114 628 OFFCURVE",
"114 410 CURVE SMOOTH",
"114 233 OFFCURVE",
"192 92 OFFCURVE",
"333 92 CURVE SMOOTH",
"427 92 OFFCURVE",
"473 137 OFFCURVE",
"473 212 CURVE SMOOTH",
"473 288 OFFCURVE",
"415 315 OFFCURVE",
"316 315 CURVE SMOOTH",
"99 315 LINE",
"99 359 LINE",
"392 359 LINE",
"465 345 OFFCURVE",
"537 302 OFFCURVE",
"537 209 CURVE SMOOTH",
"537 122 OFFCURVE",
"477 35 OFFCURVE",
"333 35 CURVE SMOOTH",
"153 35 OFFCURVE",
"50 206 OFFCURVE",
"50 410 CURVE SMOOTH",
"50 665 OFFCURVE",
"177 848 OFFCURVE",
"404 848 CURVE SMOOTH"
);
}
);
width = 587;
},
{
layerId = "EDB6D985-9BDA-48FF-B1DC-CE6E1D224CE4";
name = Bold;
paths = (
{
closed = 1;
nodes = (
"-20 558 LINE",
"-20 670 LINE",
"723 670 LINE",
"723 558 LINE"
);
},
{
closed = 1;
nodes = (
"640 463 LINE",
"640 398 OFFCURVE",
"583 354 OFFCURVE",
"521 340 CURVE",
"175 340 LINE",
"175 397 LINE",
"387 397 LINE SMOOTH",
"460 397 OFFCURVE",
"498 431 OFFCURVE",
"498 478 CURVE",
"498 589 LINE",
"640 589 LINE"
);
},
{
closed = 1;
nodes = (
"559 931 OFFCURVE",
"597 924 OFFCURVE",
"640 913 CURVE",
"640 794 LINE",
"599 805 OFFCURVE",
"557 813 OFFCURVE",
"500 813 CURVE SMOOTH",
"263 813 OFFCURVE",
"200 613 OFFCURVE",
"200 423 CURVE SMOOTH",
"200 233 OFFCURVE",
"273 118 OFFCURVE",
"405 118 CURVE SMOOTH",
"465 118 OFFCURVE",
"506 148 OFFCURVE",
"506 202 CURVE SMOOTH",
"506 253 OFFCURVE",
"462 284 OFFCURVE",
"371 284 CURVE SMOOTH",
"175 284 LINE",
"175 350 LINE",
"491 350 LINE",
"575 339 OFFCURVE",
"648 278 OFFCURVE",
"648 189 CURVE SMOOTH",
"648 79 OFFCURVE",
"554 0 OFFCURVE",
"415 0 CURVE SMOOTH",
"211 0 OFFCURVE",
"60 150 OFFCURVE",
"60 422 CURVE SMOOTH",
"60 694 OFFCURVE",
"208 931 OFFCURVE",
"500 931 CURVE SMOOTH"
);
}
);
width = 703;
}
);
unicode = 0A13;
},
{
glyphname = grIri;
lastChange = "2015-07-03 10:47:14 +0000";
layers = (
{
layerId = "8D1DA624-BCA2-432D-8EAC-BD2525041625";
name = Light;
paths = (
{
closed = 1;
nodes = (
"483 307 LINE",
"483 580 LINE",
"603 580 LINE",
"603 635 LINE",
"-20 635 LINE",
"-20 580 LINE",
"100 580 LINE",
"100 471 LINE SMOOTH",
"100 416 OFFCURVE",
"129 364 OFFCURVE",
"179 339 CURVE",
"121 317 OFFCURVE",
"80 276 OFFCURVE",
"80 203 CURVE SMOOTH",
"80 103 OFFCURVE",
"175 25 OFFCURVE",
"329 25 CURVE SMOOTH",
"415 25 OFFCURVE",
"476 46 OFFCURVE",
"514 65 CURVE",
"514 125 LINE",
"473 103 OFFCURVE",
"407 82 OFFCURVE",
"330 82 CURVE SMOOTH",
"209 82 OFFCURVE",
"144 135 OFFCURVE",
"144 203 CURVE SMOOTH",
"144 259 OFFCURVE",
"180 307 OFFCURVE",
"294 307 CURVE SMOOTH"
);
},
{
closed = 1;
nodes = (
"163 580 LINE",
"422 580 LINE",
"422 364 LINE",
"286 364 LINE SMOOTH",
"200 364 OFFCURVE",
"163 401 OFFCURVE",
"163 475 CURVE SMOOTH"
);
}
);
width = 583;
},
{
layerId = "EDB6D985-9BDA-48FF-B1DC-CE6E1D224CE4";
name = Bold;
paths = (
{
closed = 1;
nodes = (
"528 273 LINE",
"528 558 LINE",
"628 558 LINE",
"628 670 LINE",
"-20 670 LINE",
"-20 558 LINE",
"80 558 LINE",
"80 449 LINE SMOOTH",
"80 404 OFFCURVE",
"95 355 OFFCURVE",
"135 334 CURVE",
"83 307 OFFCURVE",
"59 255 OFFCURVE",
"59 206 CURVE SMOOTH",
"59 89 OFFCURVE",
"156 0 OFFCURVE",
"348 0 CURVE SMOOTH",
"426 0 OFFCURVE",
"503 15 OFFCURVE",
"544 33 CURVE",
"544 158 LINE",
"508 142 OFFCURVE",
"440 121 OFFCURVE",
"355 121 CURVE SMOOTH",
"252 121 OFFCURVE",
"202 151 OFFCURVE",
"202 201 CURVE SMOOTH",
"202 251 OFFCURVE",
"243 273 OFFCURVE",
"323 273 CURVE SMOOTH"
);
},
{
closed = 1;
nodes = (
"220 557 LINE",
"388 557 LINE",
"389 387 LINE",
"282 387 LINE SMOOTH",
"239 387 OFFCURVE",
"220 420 OFFCURVE",
"220 453 CURVE SMOOTH"
);
}
);
width = 608;
}
);
unicode = 0A72;
},
{
glyphname = grUra;
lastChange = "2015-07-03 10:47:14 +0000";
layers = (
{
layerId = "8D1DA624-BCA2-432D-8EAC-BD2525041625";
name = Light;
paths = (
{
closed = 1;
nodes = (
"-20 580 LINE",
"-20 635 LINE",
"617 635 LINE",
"617 580 LINE"
);
},
{
closed = 1;
nodes = (
"544 480 LINE",
"544 408 OFFCURVE",
"496 353 OFFCURVE",
"437 335 CURVE",
"99 335 LINE",
"99 370 LINE",
"359 370 LINE SMOOTH",
"453 370 OFFCURVE",
"482 422 OFFCURVE",
"482 479 CURVE",
"482 586 LINE",
"544 586 LINE"
);
},
{
closed = 1;
nodes = (
"475 345 OFFCURVE",
"547 302 OFFCURVE",
"547 209 CURVE SMOOTH",
"547 122 OFFCURVE",
"485 35 OFFCURVE",
"338 35 CURVE SMOOTH",
"151 35 OFFCURVE",
"50 216 OFFCURVE",
"50 440 CURVE SMOOTH",
"50 670 OFFCURVE",
"155 848 OFFCURVE",
"329 848 CURVE SMOOTH",
"456 848 OFFCURVE",
"529 750 OFFCURVE",
"543 623 CURVE",
"481 623 LINE",
"470 723 OFFCURVE",
"416 791 OFFCURVE",
"329 791 CURVE SMOOTH",
"182 791 OFFCURVE",
"114 623 OFFCURVE",
"114 440 CURVE SMOOTH",
"114 243 OFFCURVE",
"189 92 OFFCURVE",
"337 92 CURVE SMOOTH",
"434 92 OFFCURVE",
"483 137 OFFCURVE",
"483 212 CURVE SMOOTH",
"483 288 OFFCURVE",
"425 315 OFFCURVE",
"326 315 CURVE SMOOTH",
"99 315 LINE",
"99 359 LINE",
"402 359 LINE"
);
}
);
width = 597;
},
{
layerId = "EDB6D985-9BDA-48FF-B1DC-CE6E1D224CE4";
name = Bold;
paths = (
{
closed = 1;
nodes = (
"-20 558 LINE",
"-20 670 LINE",
"733 670 LINE",
"733 558 LINE"
);
},
{
closed = 1;
nodes = (
"650 463 LINE",
"650 398 OFFCURVE",
"593 354 OFFCURVE",
"531 340 CURVE",
"175 340 LINE",
"175 397 LINE",
"387 397 LINE SMOOTH",
"470 397 OFFCURVE",
"508 431 OFFCURVE",
"508 478 CURVE",
"508 579 LINE",
"650 579 LINE"
);
},
{
closed = 1;
nodes = (
"585 339 OFFCURVE",
"658 278 OFFCURVE",
"658 189 CURVE SMOOTH",
"658 79 OFFCURVE",
"564 0 OFFCURVE",
"415 0 CURVE SMOOTH",
"196 0 OFFCURVE",
"60 174 OFFCURVE",
"60 422 CURVE SMOOTH",
"60 710 OFFCURVE",
"184 931 OFFCURVE",
"385 931 CURVE SMOOTH",
"553 931 OFFCURVE",
"635 790 OFFCURVE",
"643 662 CURVE",
"503 662 LINE",
"495 751 OFFCURVE",
"462 809 OFFCURVE",
"385 809 CURVE SMOOTH",
"252 809 OFFCURVE",
"200 625 OFFCURVE",
"200 423 CURVE SMOOTH",
"200 242 OFFCURVE",
"268 118 OFFCURVE",
"405 118 CURVE SMOOTH",
"475 118 OFFCURVE",
"516 148 OFFCURVE",
"516 202 CURVE SMOOTH",
"516 253 OFFCURVE",
"472 284 OFFCURVE",
"371 284 CURVE SMOOTH",
"175 284 LINE",
"175 350 LINE",
"501 350 LINE"
);
}
);
width = 713;
}
);
unicode = 0A73;
},
{
glyphname = grmAA;
lastChange = "2015-07-03 10:47:14 +0000";
layers = (
{
anchors = (
{
name = top;
position = "{121, 635}";
},
{
name = top.bindi;
position = "{121, 635}";
}
);
layerId = "8D1DA624-BCA2-432D-8EAC-BD2525041625";
name = Light;
paths = (
{
closed = 1;
nodes = (
"152 580 LINE",
"262 580 LINE",
"262 635 LINE",
"-20 635 LINE",
"-20 580 LINE",
"90 580 LINE",
"90 290 LINE",
"152 290 LINE"
);
}
);
width = 242;
},
{
anchors = (
{
name = top;
position = "{140, 670}";
},
{
name = top.bindi;
position = "{140, 670}";
}
);
layerId = "EDB6D985-9BDA-48FF-B1DC-CE6E1D224CE4";
name = Bold;
paths = (
{
closed = 1;
nodes = (
"210 558 LINE",
"300 558 LINE",
"300 670 LINE",
"-20 670 LINE",
"-20 558 LINE",
"70 558 LINE",
"70 277 LINE",
"210 277 LINE"
);
}
);
width = 280;
}
);
unicode = 0A3E;
},
{
glyphname = grmI;
lastChange = "2015-07-03 10:47:14 +0000";
layers = (
{
anchors = (
{
name = top;
position = "{514, 678}";
}
);
layerId = "8D1DA624-BCA2-432D-8EAC-BD2525041625";
name = Light;
paths = (
{
closed = 1;
nodes = (
"-20 580 LINE",
"100 580 LINE",
"100 0 LINE",
"162 0 LINE",
"162 580 LINE",
"282 580 LINE",
"282 635 LINE",
"-20 635 LINE"
);
},
{
closed = 1;
nodes = (
"162 725 LINE SMOOTH",
"162 797 OFFCURVE",
"209 831 OFFCURVE",
"269 831 CURVE SMOOTH",
"329 831 OFFCURVE",
"376 798 OFFCURVE",
"376 725 CURVE SMOOTH",
"376 688 LINE",
"438 688 LINE",
"438 726 LINE SMOOTH",
"438 841 OFFCURVE",
"359 888 OFFCURVE",
"269 888 CURVE SMOOTH",
"179 888 OFFCURVE",
"100 841 OFFCURVE",
"100 726 CURVE SMOOTH",
"100 625 LINE",
"162 625 LINE"
);
}
);
width = 262;
},
{
anchors = (
{
name = top;
position = "{553, 706}";
}
);
layerId = "EDB6D985-9BDA-48FF-B1DC-CE6E1D224CE4";
name = Bold;
paths = (
{
closed = 1;
nodes = (
"-20 558 LINE",
"80 558 LINE",
"80 0 LINE",
"220 0 LINE",
"220 558 LINE",
"320 558 LINE",
"320 670 LINE",
"-20 670 LINE"
);
},
{
closed = 1;
nodes = (
"220 731 LINE SMOOTH",
"221 780 OFFCURVE",
"247 808 OFFCURVE",
"295 808 CURVE SMOOTH",
"343 808 OFFCURVE",
"366 782 OFFCURVE",
"366 731 CURVE SMOOTH",
"366 706 LINE",
"508 706 LINE",
"508 736 LINE SMOOTH",
"508 868 OFFCURVE",
"410 926 OFFCURVE",
"296 926 CURVE SMOOTH",
"181 926 OFFCURVE",
"80 869 OFFCURVE",
"80 737 CURVE SMOOTH",
"80 640 LINE",
"220 640 LINE"
);
}
);
width = 300;
}
);
unicode = 0A3F;
},
{
glyphname = grmII;
lastChange = "2015-07-03 10:47:14 +0000";
layers = (
{
background = {
paths = (
{
closed = 1;
nodes = (
"-176 635 LINE",
"-176 580 LINE",
"-56 580 LINE",
"-56 0 LINE",
"6 0 LINE",
"6 580 LINE",
"126 580 LINE",
"126 635 LINE"
);
},
{
closed = 1;
nodes = (
"6 625 LINE",
"6 726 LINE SMOOTH",
"6 841 OFFCURVE",
"-73 888 OFFCURVE",
"-158 888 CURVE SMOOTH",
"-242 888 OFFCURVE",
"-318 841 OFFCURVE",
"-318 726 CURVE SMOOTH",
"-318 688 LINE",
"-256 688 LINE",
"-256 725 LINE SMOOTH",
"-256 798 OFFCURVE",
"-214 831 OFFCURVE",
"-158 831 CURVE SMOOTH",
"-102 831 OFFCURVE",
"-56 797 OFFCURVE",
"-56 725 CURVE SMOOTH",
"-56 625 LINE"
);
}
);
};
layerId = "8D1DA624-BCA2-432D-8EAC-BD2525041625";
name = Light;
paths = (
{
closed = 1;
nodes = (
"-20 635 LINE",
"-20 580 LINE",
"100 580 LINE",
"100 0 LINE",
"162 0 LINE",
"162 580 LINE",
"282 580 LINE",
"282 635 LINE"
);
},
{
closed = 1;
nodes = (
"162 625 LINE",
"162 726 LINE SMOOTH",
"162 841 OFFCURVE",
"83 888 OFFCURVE",
"-7 888 CURVE SMOOTH",
"-97 888 OFFCURVE",
"-176 841 OFFCURVE",
"-176 726 CURVE SMOOTH",
"-176 688 LINE",
"-114 688 LINE",
"-114 725 LINE SMOOTH",
"-114 798 OFFCURVE",
"-67 831 OFFCURVE",
"-7 831 CURVE SMOOTH",
"53 831 OFFCURVE",
"100 797 OFFCURVE",
"100 725 CURVE SMOOTH",
"100 625 LINE"
);
}
);
width = 262;
},
{
layerId = "EDB6D985-9BDA-48FF-B1DC-CE6E1D224CE4";
name = Bold;
paths = (
{
closed = 1;
nodes = (
"-20 670 LINE",
"-20 558 LINE",
"80 558 LINE",
"80 0 LINE",
"220 0 LINE",
"220 558 LINE",
"320 558 LINE",
"320 670 LINE"
);
},
{
closed = 1;
nodes = (
"220 640 LINE",
"220 737 LINE SMOOTH",
"220 869 OFFCURVE",
"119 926 OFFCURVE",
"4 926 CURVE SMOOTH",
"-110 926 OFFCURVE",
"-208 868 OFFCURVE",
"-208 736 CURVE SMOOTH",
"-208 706 LINE",
"-66 706 LINE",
"-66 731 LINE SMOOTH",
"-66 782 OFFCURVE",
"-43 808 OFFCURVE",
"5 808 CURVE SMOOTH",
"53 808 OFFCURVE",
"79 780 OFFCURVE",
"80 731 CURVE SMOOTH",
"80 640 LINE"
);
}
);
width = 300;
}
);
unicode = 0A40;
},
{
glyphname = grmU;
lastChange = "2015-07-03 10:47:14 +0000";
layers = (
{
anchors = (
{
name = _bottom;
position = "{-284, 0}";
}
);
guideLines = (
{
angle = 90;
position = "{-100, -33}";
},
{
position = "{-104, -22}";
}
);
layerId = "8D1DA624-BCA2-432D-8EAC-BD2525041625";
name = Light;
paths = (
{
closed = 1;
nodes = (
"-152 -76 OFFCURVE",
"-218 -91 OFFCURVE",
"-284 -91 CURVE SMOOTH",
"-350 -91 OFFCURVE",
"-416 -76 OFFCURVE",
"-468 -53 CURVE",
"-468 -111 LINE",
"-408 -134 OFFCURVE",
"-349 -146 OFFCURVE",
"-284 -146 CURVE SMOOTH",
"-219 -146 OFFCURVE",
"-164 -136 OFFCURVE",
"-100 -111 CURVE",
"-100 -53 LINE"
);
}
);
width = 0;
},
{
anchors = (
{
name = _bottom;
position = "{-294, 0}";
}
);
guideLines = (
{
angle = 90;
position = "{-80, -24}";
}
);
layerId = "EDB6D985-9BDA-48FF-B1DC-CE6E1D224CE4";
name = Bold;
paths = (
{
closed = 1;
nodes = (
"-132 -68 OFFCURVE",
"-221 -89 OFFCURVE",
"-294 -89 CURVE SMOOTH",
"-367 -89 OFFCURVE",
"-456 -68 OFFCURVE",
"-508 -41 CURVE",
"-508 -149 LINE",
"-452 -182 OFFCURVE",
"-378 -197 OFFCURVE",
"-294 -197 CURVE SMOOTH",
"-210 -197 OFFCURVE",
"-133 -180 OFFCURVE",
"-80 -149 CURVE",
"-80 -41 LINE"
);
}
);
width = 0;
}
);
unicode = 0A41;
},
{
glyphname = grmUU;
lastChange = "2015-07-03 10:47:14 +0000";
layers = (
{
anchors = (
{
name = _bottom;
position = "{-284, 0}";
}
);
background = {
paths = (
{
closed = 1;
nodes = (
"-152 -76 OFFCURVE",
"-218 -91 OFFCURVE",
"-284 -91 CURVE SMOOTH",
"-350 -91 OFFCURVE",
"-416 -76 OFFCURVE",
"-468 -53 CURVE",
"-468 -111 LINE",
"-408 -134 OFFCURVE",
"-349 -146 OFFCURVE",
"-284 -146 CURVE SMOOTH",
"-219 -146 OFFCURVE",
"-164 -136 OFFCURVE",
"-100 -111 CURVE",
"-100 -53 LINE"
);
},
{
closed = 1;
nodes = (
"-152 -176 OFFCURVE",
"-218 -191 OFFCURVE",
"-284 -191 CURVE SMOOTH",
"-350 -191 OFFCURVE",
"-416 -176 OFFCURVE",
"-468 -153 CURVE",
"-468 -211 LINE",
"-408 -234 OFFCURVE",
"-349 -246 OFFCURVE",
"-284 -246 CURVE SMOOTH",
"-219 -246 OFFCURVE",
"-164 -236 OFFCURVE",
"-100 -211 CURVE",
"-100 -153 LINE"
);
}
);
};
guideLines = (
{
angle = 90;
position = "{-100, -33}";
}
);
layerId = "8D1DA624-BCA2-432D-8EAC-BD2525041625";
name = Light;
paths = (
{
closed = 1;
nodes = (
"-152 -76 OFFCURVE",
"-218 -91 OFFCURVE",
"-284 -91 CURVE SMOOTH",
"-350 -91 OFFCURVE",
"-416 -76 OFFCURVE",
"-468 -53 CURVE",
"-468 -111 LINE",
"-408 -134 OFFCURVE",
"-349 -146 OFFCURVE",
"-284 -146 CURVE SMOOTH",
"-219 -146 OFFCURVE",
"-164 -136 OFFCURVE",
"-100 -111 CURVE",
"-100 -53 LINE"
);
},
{
closed = 1;
nodes = (
"-152 -196 OFFCURVE",
"-218 -211 OFFCURVE",
"-284 -211 CURVE SMOOTH",
"-350 -211 OFFCURVE",
"-416 -196 OFFCURVE",
"-468 -173 CURVE",
"-468 -231 LINE",
"-408 -254 OFFCURVE",
"-349 -266 OFFCURVE",
"-284 -266 CURVE SMOOTH",
"-219 -266 OFFCURVE",
"-164 -256 OFFCURVE",
"-100 -231 CURVE",
"-100 -173 LINE"
);
}
);
width = 0;
},
{
anchors = (
{
name = _bottom;
position = "{-294, 0}";
}
);
background = {
paths = (
{
closed = 1;
nodes = (
"-105 -70 OFFCURVE",
"-185 -89 OFFCURVE",
"-260 -89 CURVE SMOOTH",
"-325 -89 OFFCURVE",
"-415 -68 OFFCURVE",
"-474 -41 CURVE",
"-474 -138 LINE",
"-418 -166 OFFCURVE",
"-340 -187 OFFCURVE",
"-260 -187 CURVE SMOOTH",
"-180 -187 OFFCURVE",
"-103 -169 OFFCURVE",
"-46 -141 CURVE",
"-46 -41 LINE"
);
},
{
closed = 1;
nodes = (
"-105 -218 OFFCURVE",
"-195 -239 OFFCURVE",
"-260 -239 CURVE SMOOTH",
"-325 -239 OFFCURVE",
"-415 -218 OFFCURVE",
"-474 -191 CURVE",
"-474 -291 LINE",
"-418 -319 OFFCURVE",
"-340 -337 OFFCURVE",
"-260 -337 CURVE SMOOTH",
"-180 -337 OFFCURVE",
"-103 -319 OFFCURVE",
"-46 -291 CURVE",
"-46 -191 LINE"
);
}
);
};
guideLines = (
{
angle = 90;
position = "{-80, -24}";
}
);
layerId = "EDB6D985-9BDA-48FF-B1DC-CE6E1D224CE4";
name = Bold;
paths = (
{
closed = 1;
nodes = (
"-139 -70 OFFCURVE",
"-219 -89 OFFCURVE",
"-294 -89 CURVE SMOOTH",
"-369 -89 OFFCURVE",
"-449 -70 OFFCURVE",
"-508 -41 CURVE",
"-508 -141 LINE",
"-451 -169 OFFCURVE",
"-374 -187 OFFCURVE",
"-294 -187 CURVE SMOOTH",
"-214 -187 OFFCURVE",
"-137 -169 OFFCURVE",
"-80 -141 CURVE",
"-80 -41 LINE"
);
},
{
closed = 1;
nodes = (
"-139 -220 OFFCURVE",
"-219 -239 OFFCURVE",
"-294 -239 CURVE SMOOTH",
"-369 -239 OFFCURVE",
"-449 -220 OFFCURVE",
"-508 -191 CURVE",
"-508 -291 LINE",
"-451 -319 OFFCURVE",
"-374 -337 OFFCURVE",
"-294 -337 CURVE SMOOTH",
"-214 -337 OFFCURVE",
"-137 -319 OFFCURVE",
"-80 -291 CURVE",
"-80 -191 LINE"
);
}
);
width = 0;
}
);
unicode = 0A42;
},
{
glyphname = grmUU.alt;
lastChange = "2015-07-03 10:47:14 +0000";
layers = (
{
anchors = (
{
name = _bottom;
position = "{-284, 0}";
}
);
guideLines = (
{
position = "{-278, -53}";
}
);
layerId = "8D1DA624-BCA2-432D-8EAC-BD2525041625";
name = Light;
paths = (
{
closed = 1;
nodes = (
"-152 -76 OFFCURVE",
"-218 -91 OFFCURVE",
"-284 -91 CURVE SMOOTH",
"-350 -91 OFFCURVE",
"-416 -76 OFFCURVE",
"-468 -53 CURVE",
"-468 -111 LINE",
"-408 -134 OFFCURVE",
"-349 -146 OFFCURVE",
"-284 -146 CURVE SMOOTH",
"-219 -146 OFFCURVE",
"-164 -136 OFFCURVE",
"-100 -111 CURVE",
"-100 -53 LINE"
);
},
{
closed = 1;
nodes = (
"-152 -176 OFFCURVE",
"-218 -191 OFFCURVE",
"-284 -191 CURVE SMOOTH",
"-350 -191 OFFCURVE",
"-416 -176 OFFCURVE",
"-468 -153 CURVE",
"-468 -211 LINE",
"-408 -234 OFFCURVE",
"-349 -246 OFFCURVE",
"-284 -246 CURVE SMOOTH",
"-219 -246 OFFCURVE",
"-164 -236 OFFCURVE",
"-100 -211 CURVE",
"-100 -153 LINE"
);
}
);
width = 0;
},
{
anchors = (
{
name = _bottom;
position = "{-294, 0}";
}
);
layerId = "EDB6D985-9BDA-48FF-B1DC-CE6E1D224CE4";
name = Bold;
paths = (
{
closed = 1;
nodes = (
"-139 -70 OFFCURVE",
"-219 -89 OFFCURVE",
"-294 -89 CURVE SMOOTH",
"-369 -89 OFFCURVE",
"-449 -70 OFFCURVE",
"-508 -41 CURVE",
"-508 -136 LINE",
"-451 -164 OFFCURVE",
"-374 -182 OFFCURVE",
"-294 -182 CURVE SMOOTH",
"-214 -182 OFFCURVE",
"-137 -164 OFFCURVE",
"-80 -136 CURVE",
"-80 -41 LINE"
);
},
{
closed = 1;
nodes = (
"-139 -205 OFFCURVE",
"-219 -224 OFFCURVE",
"-294 -224 CURVE SMOOTH",
"-369 -224 OFFCURVE",
"-449 -205 OFFCURVE",
"-508 -176 CURVE",
"-508 -271 LINE",
"-451 -299 OFFCURVE",
"-374 -317 OFFCURVE",
"-294 -317 CURVE SMOOTH",
"-214 -317 OFFCURVE",
"-137 -299 OFFCURVE",
"-80 -271 CURVE",
"-80 -176 LINE"
);
}
);
width = 0;
}
);
},
{
glyphname = grmEE;
lastChange = "2015-07-03 10:47:14 +0000";
layers = (
{
anchors = (
{
name = _top;
position = "{-135, 635}";
}
);
background = {
paths = (
{
closed = 1;
nodes = (
"-401 816 LINE",
"-401 816 OFFCURVE",
"-379 822 OFFCURVE",
"-355 822 CURVE SMOOTH",
"-312 822 OFFCURVE",
"-286 806 OFFCURVE",
"-260 766 CURVE SMOOTH",
"-169 627 LINE",
"-101 627 LINE",
"-207 788 LINE SMOOTH",
"-246 848 OFFCURVE",
"-288 877 OFFCURVE",
"-353 877 CURVE SMOOTH",
"-379 877 OFFCURVE",
"-401 871 OFFCURVE",
"-401 871 CURVE"
);
}
);
};
layerId = "8D1DA624-BCA2-432D-8EAC-BD2525041625";
name = Light;
paths = (
{
closed = 1;
nodes = (
"-401 816 LINE",
"-401 816 OFFCURVE",
"-379 822 OFFCURVE",
"-355 822 CURVE SMOOTH",
"-312 822 OFFCURVE",
"-287 807 OFFCURVE",
"-260 766 CURVE SMOOTH",
"-158 610 LINE",
"-90 610 LINE",
"-207 788 LINE SMOOTH",
"-247 849 OFFCURVE",
"-288 877 OFFCURVE",
"-353 877 CURVE SMOOTH",
"-379 877 OFFCURVE",
"-401 871 OFFCURVE",
"-401 871 CURVE"
);
}
);
width = 0;
},
{
anchors = (
{
name = _top;
position = "{-156, 670}";
}
);
background = {
paths = (
{
closed = 1;
nodes = (
"-447 811 LINE",
"-428 814 OFFCURVE",
"-400 816 OFFCURVE",
"-379 816 CURVE SMOOTH",
"-345 816 OFFCURVE",
"-321 805 OFFCURVE",
"-301 775 CURVE SMOOTH",
"-227 664 LINE",
"-84 664 LINE",
"-194 833 LINE SMOOTH",
"-238 901 OFFCURVE",
"-293 924 OFFCURVE",
"-371 925 CURVE SMOOTH",
"-395 925 OFFCURVE",
"-421 923 OFFCURVE",
"-447 918 CURVE"
);
}
);
};
layerId = "EDB6D985-9BDA-48FF-B1DC-CE6E1D224CE4";
name = Bold;
paths = (
{
closed = 1;
nodes = (
"-447 811 LINE",
"-428 814 OFFCURVE",
"-400 816 OFFCURVE",
"-379 816 CURVE SMOOTH",
"-345 816 OFFCURVE",
"-321 805 OFFCURVE",
"-301 775 CURVE SMOOTH",
"-213 643 LINE",
"-70 643 LINE",
"-194 833 LINE SMOOTH",
"-239 902 OFFCURVE",
"-293 924 OFFCURVE",
"-371 925 CURVE SMOOTH",
"-395 925 OFFCURVE",
"-421 923 OFFCURVE",
"-447 918 CURVE"
);
}
);
width = 0;
}
);
unicode = 0A47;
},
{
glyphname = grmAI;
lastChange = "2015-07-03 10:47:14 +0000";
layers = (
{
anchors = (
{
name = _top;
position = "{-132, 635}";
}
);
background = {
paths = (
{
closed = 1;
nodes = (
"-193 788 LINE SMOOTH",
"-232 848 OFFCURVE",
"-283 877 OFFCURVE",
"-352 877 CURVE SMOOTH",
"-378 877 OFFCURVE",
"-407 871 OFFCURVE",
"-407 871 CURVE",
"-407 813 LINE",
"-407 813 OFFCURVE",
"-378 819 OFFCURVE",
"-354 819 CURVE SMOOTH",
"-304 819 OFFCURVE",
"-263 803 OFFCURVE",
"-235 766 CURVE SMOOTH",
"-142 640 LINE",
"-138 641 LINE",
"-230 721 LINE SMOOTH",
"-262 748 OFFCURVE",
"-301 772 OFFCURVE",
"-355 772 CURVE SMOOTH",
"-381 772 OFFCURVE",
"-408 765 OFFCURVE",
"-408 765 CURVE",
"-408 707 LINE",
"-408 707 OFFCURVE",
"-373 712 OFFCURVE",
"-349 712 CURVE SMOOTH",
"-289 712 OFFCURVE",
"-246 684 OFFCURVE",
"-177 627 CURVE",
"-87 627 LINE"
);
}
);
};
layerId = "8D1DA624-BCA2-432D-8EAC-BD2525041625";
name = Light;
paths = (
{
closed = 1;
nodes = (
"-193 788 LINE SMOOTH",
"-233 849 OFFCURVE",
"-283 877 OFFCURVE",
"-352 877 CURVE SMOOTH",
"-378 877 OFFCURVE",
"-407 871 OFFCURVE",
"-407 871 CURVE",
"-407 813 LINE",
"-407 813 OFFCURVE",
"-378 819 OFFCURVE",
"-354 819 CURVE SMOOTH",
"-304 819 OFFCURVE",
"-263 803 OFFCURVE",
"-235 766 CURVE SMOOTH",
"-142 640 LINE",
"-138 641 LINE",
"-230 721 LINE SMOOTH",
"-262 748 OFFCURVE",
"-301 772 OFFCURVE",
"-355 772 CURVE SMOOTH",
"-381 772 OFFCURVE",
"-408 765 OFFCURVE",
"-408 765 CURVE",
"-408 707 LINE",
"-408 707 OFFCURVE",
"-373 712 OFFCURVE",
"-349 712 CURVE SMOOTH",
"-285 712 OFFCURVE",
"-236 678 OFFCURVE",
"-159 611 CURVE",
"-77 611 LINE"
);
}
);
width = 0;
},
{
anchors = (
{
name = _top;
position = "{-147, 670}";
}
);
background = {
paths = (
{
closed = 1;
nodes = (
"-186 862 LINE SMOOTH",
"-234 941 OFFCURVE",
"-296 984 OFFCURVE",
"-386 984 CURVE SMOOTH",
"-421 984 OFFCURVE",
"-454 980 OFFCURVE",
"-469 975 CURVE",
"-469 870 LINE",
"-449 876 OFFCURVE",
"-416 880 OFFCURVE",
"-395 880 CURVE SMOOTH",
"-336 880 OFFCURVE",
"-299 857 OFFCURVE",
"-263 813 CURVE SMOOTH",
"-146 667 LINE",
"-136 673 LINE",
"-256 770 LINE SMOOTH",
"-322 822 OFFCURVE",
"-359 828 OFFCURVE",
"-410 828 CURVE SMOOTH",
"-427 828 OFFCURVE",
"-452 824 OFFCURVE",
"-469 819 CURVE",
"-469 719 LINE",
"-454 723 OFFCURVE",
"-431 726 OFFCURVE",
"-413 726 CURVE SMOOTH",
"-346 726 OFFCURVE",
"-285 695 OFFCURVE",
"-227 664 CURVE",
"-66 664 LINE"
);
}
);
};
layerId = "EDB6D985-9BDA-48FF-B1DC-CE6E1D224CE4";
name = Bold;
paths = (
{
closed = 1;
nodes = (
"-186 862 LINE SMOOTH",
"-234 941 OFFCURVE",
"-296 984 OFFCURVE",
"-386 984 CURVE SMOOTH",
"-421 984 OFFCURVE",
"-454 980 OFFCURVE",
"-469 975 CURVE",
"-469 870 LINE",
"-449 876 OFFCURVE",
"-416 880 OFFCURVE",
"-395 880 CURVE SMOOTH",
"-336 880 OFFCURVE",
"-299 857 OFFCURVE",
"-263 813 CURVE SMOOTH",
"-146 667 LINE",
"-136 673 LINE",
"-256 770 LINE SMOOTH",
"-322 822 OFFCURVE",
"-359 828 OFFCURVE",
"-410 828 CURVE SMOOTH",
"-427 828 OFFCURVE",
"-452 824 OFFCURVE",
"-469 819 CURVE",
"-469 719 LINE",
"-454 723 OFFCURVE",
"-431 726 OFFCURVE",
"-413 726 CURVE SMOOTH",
"-346 726 OFFCURVE",
"-274 692 OFFCURVE",
"-211 654 CURVE",
"-60 654 LINE"
);
}
);
width = 0;
}
);
unicode = 0A48;
},
{
glyphname = grmOO;
lastChange = "2015-07-03 10:47:14 +0000";
layers = (
{
anchors = (
{
name = _top;
position = "{-131, 635}";
}
);
layerId = "8D1DA624-BCA2-432D-8EAC-BD2525041625";
name = Light;
paths = (
{
closed = 1;
nodes = (
"-100 689 LINE",
"-100 724 LINE SMOOTH",
"-100 814 OFFCURVE",
"-146 868 OFFCURVE",
"-233 868 CURVE SMOOTH",
"-314 868 OFFCURVE",
"-352 802 OFFCURVE",
"-419 802 CURVE SMOOTH",
"-469 802 OFFCURVE",
"-494 835 OFFCURVE",
"-484 888 CURVE",
"-546 888 LINE",
"-559 811 OFFCURVE",
"-506 747 OFFCURVE",
"-419 747 CURVE SMOOTH",
"-323 747 OFFCURVE",
"-294 813 OFFCURVE",
"-233 813 CURVE SMOOTH",
"-178 813 OFFCURVE",
"-162 777 OFFCURVE",
"-162 725 CURVE SMOOTH",
"-162 689 LINE"
);
}
);
width = 0;
},
{
anchors = (
{
name = _top;
position = "{-151, 670}";
}
);
layerId = "EDB6D985-9BDA-48FF-B1DC-CE6E1D224CE4";
name = Bold;
paths = (
{
closed = 1;
nodes = (
"-81 720 LINE",
"-81 772 LINE SMOOTH",
"-81 879 OFFCURVE",
"-166 942 OFFCURVE",
"-252 942 CURVE SMOOTH",
"-336 942 OFFCURVE",
"-374 896 OFFCURVE",
"-436 896 CURVE SMOOTH",
"-465 896 OFFCURVE",
"-487 911 OFFCURVE",
"-477 957 CURVE",
"-598 957 LINE",
"-613 873 OFFCURVE",
"-567 778 OFFCURVE",
"-446 778 CURVE SMOOTH",
"-353 778 OFFCURVE",
"-331 824 OFFCURVE",
"-276 824 CURVE SMOOTH",
"-237 824 OFFCURVE",
"-220 798 OFFCURVE",
"-220 745 CURVE SMOOTH",
"-220 720 LINE"
);
}
);
width = 0;
},
{
anchors = (
{
name = _top;
position = "{-151, 670}";
}
);
associatedMasterId = "EDB6D985-9BDA-48FF-B1DC-CE6E1D224CE4";
layerId = "F55DF9FE-43C3-4F8A-86E9-8F739683601F";
name = "Bold May 11 15, 12:30";
paths = (
{
closed = 1;
nodes = (
"-81 720 LINE",
"-81 772 LINE SMOOTH",
"-81 879 OFFCURVE",
"-166 942 OFFCURVE",
"-252 942 CURVE SMOOTH",
"-336 942 OFFCURVE",
"-399 896 OFFCURVE",
"-471 896 CURVE SMOOTH",
"-500 896 OFFCURVE",
"-522 911 OFFCURVE",
"-512 957 CURVE",
"-633 957 LINE",
"-648 873 OFFCURVE",
"-602 778 OFFCURVE",
"-481 778 CURVE SMOOTH",
"-378 778 OFFCURVE",
"-331 824 OFFCURVE",
"-276 824 CURVE SMOOTH",
"-237 824 OFFCURVE",
"-220 798 OFFCURVE",
"-220 745 CURVE SMOOTH",
"-220 720 LINE"
);
}
);
width = 0;
},
{
anchors = (
{
name = _top;
position = "{-131, 635}";
}
);
associatedMasterId = "8D1DA624-BCA2-432D-8EAC-BD2525041625";
layerId = "B31DBC13-CB8D-49D6-8380-5E221E3B1DE4";
name = "Light May 11 15, 12:30";
paths = (
{
closed = 1;
nodes = (
"-100 689 LINE",
"-100 724 LINE SMOOTH",
"-100 814 OFFCURVE",
"-146 868 OFFCURVE",
"-233 868 CURVE SMOOTH",
"-314 868 OFFCURVE",
"-365 802 OFFCURVE",
"-444 802 CURVE SMOOTH",
"-507 802 OFFCURVE",
"-534 835 OFFCURVE",
"-524 888 CURVE",
"-586 888 LINE",
"-599 811 OFFCURVE",
"-544 747 OFFCURVE",
"-444 747 CURVE SMOOTH",
"-341 747 OFFCURVE",
"-294 813 OFFCURVE",
"-233 813 CURVE SMOOTH",
"-178 813 OFFCURVE",
"-162 777 OFFCURVE",
"-162 725 CURVE SMOOTH",
"-162 689 LINE"
);
}
);
width = 0;
}
);
unicode = 0A4B;
},
{
glyphname = grmAU;
lastChange = "2015-07-03 10:47:14 +0000";
layers = (
{
anchors = (
{
name = _top;
position = "{-128, 635}";
}
);
layerId = "8D1DA624-BCA2-432D-8EAC-BD2525041625";
name = Light;
paths = (
{
closed = 1;
nodes = (
"-477 888 LINE",
"-485 815 OFFCURVE",
"-426 755 OFFCURVE",
"-334 755 CURVE SMOOTH",
"-296 755 OFFCURVE",
"-271 765 OFFCURVE",
"-250 775 CURVE",
"-256 742 OFFCURVE",
"-245 709 OFFCURVE",
"-222 689 CURVE",
"-160 689 LINE",
"-180 715 OFFCURVE",
"-190 733 OFFCURVE",
"-190 758 CURVE SMOOTH",
"-190 792 OFFCURVE",
"-168 821 OFFCURVE",
"-128 821 CURVE SMOOTH",
"-88 821 OFFCURVE",
"-66 792 OFFCURVE",
"-66 758 CURVE SMOOTH",
"-66 733 OFFCURVE",
"-76 715 OFFCURVE",
"-96 689 CURVE",
"-34 689 LINE",
"-16 709 OFFCURVE",
"-4 734 OFFCURVE",
"-4 759 CURVE SMOOTH",
"-4 833 OFFCURVE",
"-52 876 OFFCURVE",
"-128 876 CURVE SMOOTH",
"-214 876 OFFCURVE",
"-248 810 OFFCURVE",
"-334 810 CURVE SMOOTH",
"-394 810 OFFCURVE",
"-421 840 OFFCURVE",
"-415 888 CURVE"
);
}
);
width = 0;
},
{
anchors = (
{
name = _top;
position = "{-147, 670}";
}
);
background = {
paths = (
{
closed = 1;
nodes = (
"-517 957 LINE",
"-532 872 OFFCURVE",
"-486 777 OFFCURVE",
"-365 777 CURVE SMOOTH",
"-345 777 OFFCURVE",
"-337 779 OFFCURVE",
"-319 782 CURVE",
"-318 759 OFFCURVE",
"-312 739 OFFCURVE",
"-301 720 CURVE",
"-192 720 LINE",
"-203 737 OFFCURVE",
"-209 754 OFFCURVE",
"-209 774 CURVE SMOOTH",
"-209 807 OFFCURVE",
"-183 829 OFFCURVE",
"-147 829 CURVE SMOOTH",
"-111 829 OFFCURVE",
"-85 807 OFFCURVE",
"-85 774 CURVE SMOOTH",
"-85 754 OFFCURVE",
"-91 737 OFFCURVE",
"-102 720 CURVE",
"7 720 LINE",
"19 741 OFFCURVE",
"25 763 OFFCURVE",
"25 789 CURVE SMOOTH",
"25 878 OFFCURVE",
"-45 941 OFFCURVE",
"-147 941 CURVE SMOOTH",
"-243 941 OFFCURVE",
"-278 895 OFFCURVE",
"-355 895 CURVE SMOOTH",
"-384 895 OFFCURVE",
"-406 910 OFFCURVE",
"-396 957 CURVE"
);
}
);
};
layerId = "EDB6D985-9BDA-48FF-B1DC-CE6E1D224CE4";
name = Bold;
paths = (
{
closed = 1;
nodes = (
"-507 957 LINE",
"-522 872 OFFCURVE",
"-481 777 OFFCURVE",
"-365 777 CURVE SMOOTH",
"-340 777 OFFCURVE",
"-318 783 OFFCURVE",
"-306 790 CURVE",
"-310 764 OFFCURVE",
"-302 739 OFFCURVE",
"-291 720 CURVE",
"-182 720 LINE",
"-193 737 OFFCURVE",
"-199 754 OFFCURVE",
"-199 774 CURVE SMOOTH",
"-199 807 OFFCURVE",
"-178 829 OFFCURVE",
"-147 829 CURVE SMOOTH",
"-116 829 OFFCURVE",
"-95 807 OFFCURVE",
"-95 774 CURVE SMOOTH",
"-95 754 OFFCURVE",
"-101 737 OFFCURVE",
"-112 720 CURVE",
"-3 720 LINE",
"9 741 OFFCURVE",
"15 763 OFFCURVE",
"15 789 CURVE SMOOTH",
"15 878 OFFCURVE",
"-50 941 OFFCURVE",
"-147 941 CURVE SMOOTH",
"-238 941 OFFCURVE",
"-268 895 OFFCURVE",
"-345 895 CURVE SMOOTH",
"-374 895 OFFCURVE",
"-396 910 OFFCURVE",
"-386 957 CURVE"
);
}
);
width = 0;
}
);
unicode = 0A4C;
},
{
glyphname = grKA;
lastChange = "2015-07-03 10:47:14 +0000";
layers = (
{
anchors = (
{
name = bottom;
position = "{321, 0}";
},
{
name = bottom.HAc2;
position = "{474, 0}";
},
{
name = bottom.VAc2;
position = "{505, 0}";
},
{
name = bottom.virama;
position = "{321, 0}";
},
{
name = top;
position = "{466, 635}";
},
{
name = top.addak;
position = "{466, 635}";
},
{
name = top.bindi;
position = "{466, 635}";
},
{
name = top.tippi;
position = "{466, 635}";
}
);
guideLines = (
{
angle = 90;
position = "{505, 47}";
}
);
layerId = "8D1DA624-BCA2-432D-8EAC-BD2525041625";
name = Light;
paths = (
{
closed = 1;
nodes = (
"597 635 LINE",
"-20 635 LINE",
"-20 580 LINE",
"597 580 LINE"
);
},
{
closed = 1;
nodes = (
"435 443 LINE SMOOTH",
"435 296 OFFCURVE",
"351 200 OFFCURVE",
"228 200 CURVE SMOOTH",
"145 200 OFFCURVE",
"104 244 OFFCURVE",
"104 300 CURVE SMOOTH",
"104 356 OFFCURVE",
"145 400 OFFCURVE",
"228 400 CURVE SMOOTH",
"351 400 OFFCURVE",
"434 275 OFFCURVE",
"440 95 CURVE SMOOTH",
"443 0 LINE",
"505 0 LINE",
"501 95 LINE SMOOTH",
"491 326 OFFCURVE",
"377 457 OFFCURVE",
"228 457 CURVE SMOOTH",
"112 457 OFFCURVE",
"40 385 OFFCURVE",
"40 297 CURVE SMOOTH",
"40 209 OFFCURVE",
"112 143 OFFCURVE",
"228 143 CURVE SMOOTH",
"377 143 OFFCURVE",
"497 250 OFFCURVE",
"497 443 CURVE SMOOTH",
"497 601 LINE",
"435 601 LINE"
);
}
);
width = 577;
},
{
anchors = (
{
name = bottom;
position = "{366, -27}";
},
{
name = bottom.HAc2;
position = "{510, -27}";
},
{
name = bottom.VAc2;
position = "{577, -27}";
},
{
name = bottom.virama;
position = "{510, -27}";
},
{
name = top;
position = "{510, 670}";
},
{
name = top.addak;
position = "{510, 670}";
},
{
name = top.bindi;
position = "{510, 670}";
},
{
name = top.tippi;
position = "{510, 670}";
}
);
layerId = "EDB6D985-9BDA-48FF-B1DC-CE6E1D224CE4";
name = Bold;
paths = (
{
closed = 1;
nodes = (
"685 670 LINE",
"-20 670 LINE",
"-20 558 LINE",
"685 558 LINE"
);
},
{
closed = 1;
nodes = (
"440 408 LINE SMOOTH",
"440 298 OFFCURVE",
"369 219 OFFCURVE",
"259 219 CURVE SMOOTH",
"202 219 OFFCURVE",
"177 254 OFFCURVE",
"177 287 CURVE SMOOTH",
"177 320 OFFCURVE",
"202 355 OFFCURVE",
"259 355 CURVE SMOOTH",
"369 355 OFFCURVE",
"429 202 OFFCURVE",
"438 43 CURVE SMOOTH",
"442 -27 LINE",
"577 -27 LINE",
"574 33 LINE SMOOTH",
"562 276 OFFCURVE",
"450 473 OFFCURVE",
"259 473 CURVE SMOOTH",
"129 473 OFFCURVE",
"35 399 OFFCURVE",
"35 287 CURVE SMOOTH",
"35 175 OFFCURVE",
"129 101 OFFCURVE",
"259 101 CURVE SMOOTH",
"428 101 OFFCURVE",
"579 229 OFFCURVE",
"579 428 CURVE SMOOTH",
"579 590 LINE",
"440 590 LINE"
);
}
);
width = 665;
},
{
anchors = (
{
name = bottom;
position = "{311, 0}";
},
{
name = bottom.HAc2;
position = "{464, 0}";
},
{
name = bottom.VAc2;
position = "{495, 0}";
},
{
name = bottom.virama;
position = "{311, 0}";
},
{
name = top;
position = "{456, 635}";
},
{
name = top.addak;
position = "{456, 635}";
},
{
name = top.bindi;
position = "{456, 635}";
},
{
name = top.tippi;
position = "{456, 635}";
}
);
associatedMasterId = "8D1DA624-BCA2-432D-8EAC-BD2525041625";
guideLines = (
{
angle = 90;
position = "{495, 47}";
}
);
layerId = "5F5AFB9E-4A91-426A-A304-8B24476446C4";
name = "Light Jun 27 15, 14:10";
paths = (
{
closed = 1;
nodes = (
"587 635 LINE",
"-20 635 LINE",
"-20 580 LINE",
"587 580 LINE"
);
},
{
closed = 1;
nodes = (
"425 443 LINE SMOOTH",
"425 296 OFFCURVE",
"344 203 OFFCURVE",
"218 203 CURVE SMOOTH",
"148 203 OFFCURVE",
"104 244 OFFCURVE",
"104 300 CURVE SMOOTH",
"104 356 OFFCURVE",
"148 397 OFFCURVE",
"218 397 CURVE SMOOTH",
"344 397 OFFCURVE",
"424 275 OFFCURVE",
"430 95 CURVE SMOOTH",
"433 0 LINE",
"495 0 LINE",
"491 95 LINE SMOOTH",
"481 326 OFFCURVE",
"370 454 OFFCURVE",
"218 454 CURVE SMOOTH",
"115 454 OFFCURVE",
"40 385 OFFCURVE",
"40 297 CURVE SMOOTH",
"40 209 OFFCURVE",
"115 146 OFFCURVE",
"218 146 CURVE SMOOTH",
"370 146 OFFCURVE",
"487 250 OFFCURVE",
"487 443 CURVE SMOOTH",
"487 601 LINE",
"425 601 LINE"
);
}
);
width = 567;
},
{
anchors = (
{
name = bottom;
position = "{356, -27}";
},
{
name = bottom.HAc2;
position = "{497, -27}";
},
{
name = bottom.VAc2;
position = "{567, -27}";
},
{
name = bottom.virama;
position = "{500, -27}";
},
{
name = top;
position = "{500, 670}";
},
{
name = top.addak;
position = "{500, 670}";
},
{
name = top.bindi;
position = "{500, 670}";
},
{
name = top.tippi;
position = "{500, 670}";
}
);
associatedMasterId = "EDB6D985-9BDA-48FF-B1DC-CE6E1D224CE4";
layerId = "D4A4C6B4-D642-4F36-BD93-C42C5CA709DA";
name = "Bold Jun 27 15, 16:39";
paths = (
{
closed = 1;
nodes = (
"675 670 LINE",
"-20 670 LINE",
"-20 558 LINE",
"675 558 LINE"
);
},
{
closed = 1;
nodes = (
"430 413 LINE SMOOTH",
"430 313 OFFCURVE",
"344 234 OFFCURVE",
"249 234 CURVE SMOOTH",
"203 234 OFFCURVE",
"177 259 OFFCURVE",
"177 292 CURVE SMOOTH",
"177 325 OFFCURVE",
"203 350 OFFCURVE",
"243 350 CURVE SMOOTH",
"344 350 OFFCURVE",
"420 197 OFFCURVE",
"428 48 CURVE SMOOTH",
"432 -27 LINE",
"567 -27 LINE",
"564 38 LINE SMOOTH",
"553 271 OFFCURVE",
"435 468 OFFCURVE",
"239 468 CURVE SMOOTH",
"135 468 OFFCURVE",
"35 404 OFFCURVE",
"35 292 CURVE SMOOTH",
"35 180 OFFCURVE",
"135 116 OFFCURVE",
"239 116 CURVE SMOOTH",
"413 116 OFFCURVE",
"569 234 OFFCURVE",
"569 423 CURVE SMOOTH",
"569 590 LINE",
"430 590 LINE"
);
}
);
width = 655;
}
);
unicode = 0A15;
},
{
glyphname = grKHA;
lastChange = "2015-07-03 10:47:14 +0000";
layers = (
{
anchors = (
{
name = bottom;
position = "{330, 1}";
},
{
name = bottom.HAc2;
position = "{483, 0}";
},
{
name = bottom.VAc2;
position = "{514, 0}";
},
{
name = bottom.virama;
position = "{483, 0}";
},
{
name = top;
position = "{483, 635}";
},
{
name = top.addak;
position = "{483, 635}";
},
{
name = top.bindi;
position = "{483, 635}";
},
{
name = top.tippi;
position = "{483, 635}";
}
);
guideLines = (
{
angle = 90;
position = "{337, -179}";
}
);
layerId = "8D1DA624-BCA2-432D-8EAC-BD2525041625";
name = Light;
paths = (
{
closed = 1;
nodes = (
"88 580 OFFCURVE",
"125 541 OFFCURVE",
"125 487 CURVE SMOOTH",
"125 440 OFFCURVE",
"104 396 OFFCURVE",
"60 354 CURVE",
"75 230 OFFCURVE",
"159 143 OFFCURVE",
"284 143 CURVE SMOOTH",
"362 143 OFFCURVE",
"419 175 OFFCURVE",
"452 215 CURVE",
"452 356 LINE",
"452 272 OFFCURVE",
"392 200 OFFCURVE",
"284 200 CURVE SMOOTH",
"190 200 OFFCURVE",
"132 270 OFFCURVE",
"126 342 CURVE",
"171 393 OFFCURVE",
"189 430 OFFCURVE",
"189 487 CURVE SMOOTH",
"189 552 OFFCURVE",
"148 635 OFFCURVE",
"52 635 CURVE SMOOTH",
"-20 635 LINE",
"-20 580 LINE",
"43 580 LINE SMOOTH"
);
},
{
closed = 1;
nodes = (
"452 590 LINE",
"452 0 LINE",
"514 0 LINE",
"514 590 LINE"
);
},
{
closed = 1;
nodes = (
"634 580 LINE",
"634 635 LINE",
"452 635 LINE",
"452 580 LINE"
);
},
{
closed = 1;
nodes = (
"465 435 LINE",
"136 435 LINE",
"136 380 LINE",
"465 380 LINE"
);
}
);
width = 614;
},
{
anchors = (
{
name = bottom;
position = "{379, 0}";
},
{
name = bottom.HAc2;
position = "{523, 10}";
},
{
name = bottom.VAc2;
position = "{593, 10}";
},
{
name = bottom.virama;
position = "{523, 0}";
},
{
name = top;
position = "{523, 670}";
},
{
name = top.addak;
position = "{523, 670}";
},
{
name = top.bindi;
position = "{523, 670}";
},
{
name = top.tippi;
position = "{523, 670}";
}
);
layerId = "EDB6D985-9BDA-48FF-B1DC-CE6E1D224CE4";
name = Bold;
paths = (
{
closed = 1;
nodes = (
"77 558 OFFCURVE",
"101 521 OFFCURVE",
"101 484 CURVE SMOOTH",
"101 447 OFFCURVE",
"82 408 OFFCURVE",
"30 366 CURVE",
"52 193 OFFCURVE",
"159 102 OFFCURVE",
"297 102 CURVE SMOOTH",
"370 102 OFFCURVE",
"427 132 OFFCURVE",
"453 164 CURVE",
"453 351 LINE",
"453 270 OFFCURVE",
"396 220 OFFCURVE",
"306 220 CURVE SMOOTH",
"223 220 OFFCURVE",
"179 266 OFFCURVE",
"169 326 CURVE",
"193 350 OFFCURVE",
"243 402 OFFCURVE",
"243 484 CURVE SMOOTH",
"243 576 OFFCURVE",
"191 670 OFFCURVE",
"60 670 CURVE SMOOTH",
"-20 670 LINE",
"-20 558 LINE",
"29 558 LINE SMOOTH"
);
},
{
closed = 1;
nodes = (
"453 580 LINE",
"453 0 LINE",
"593 0 LINE",
"593 580 LINE"
);
},
{
closed = 1;
nodes = (
"693 558 LINE",
"693 670 LINE",
"453 670 LINE",
"453 558 LINE"
);
},
{
closed = 1;
nodes = (
"490 466 LINE",
"167 466 LINE",
"167 364 LINE",
"490 364 LINE"
);
}
);
width = 673;
}
);
unicode = 0A16;
},
{
glyphname = grGA;
lastChange = "2015-07-03 10:47:14 +0000";
layers = (
{
anchors = (
{
name = bottom;
position = "{437, 0}";
},
{
name = bottom.HAc2;
position = "{589, 0}";
},
{
name = bottom.VAc2;
position = "{620, 0}";
},
{
name = bottom.virama;
position = "{589, 0}";
},
{
name = top;
position = "{589, 635}";
},
{
name = top.addak;
position = "{589, 635}";
},
{
name = top.bindi;
position = "{589, 635}";
},
{
name = top.tippi;
position = "{589, 635}";
}
);
guideLines = (
{
angle = 90;
position = "{620, -26}";
}
);
layerId = "8D1DA624-BCA2-432D-8EAC-BD2525041625";
name = Light;
paths = (
{
closed = 1;
nodes = (
"-20 635 LINE",
"-20 580 LINE",
"558 580 LINE",
"558 0 LINE",
"620 0 LINE",
"620 580 LINE",
"740 580 LINE",
"740 635 LINE"
);
},
{
closed = 1;
nodes = (
"307 121 LINE SMOOTH",
"307 64 OFFCURVE",
"275 57 OFFCURVE",
"249 57 CURVE SMOOTH",
"159 57 OFFCURVE",
"105 137 OFFCURVE",
"105 216 CURVE SMOOTH",
"105 295 OFFCURVE",
"149 335 OFFCURVE",
"248 335 CURVE SMOOTH",
"269 335 OFFCURVE",
"302 332 OFFCURVE",
"309 330 CURVE",
"309 385 LINE",
"303 387 OFFCURVE",
"268 390 OFFCURVE",
"243 390 CURVE SMOOTH",
"115 390 OFFCURVE",
"40 331 OFFCURVE",
"40 216 CURVE SMOOTH",
"40 101 OFFCURVE",
"135 0 OFFCURVE",
"249 0 CURVE SMOOTH",
"322 0 OFFCURVE",
"369 40 OFFCURVE",
"369 127 CURVE SMOOTH",
"369 600 LINE",
"307 600 LINE"
);
}
);
width = 720;
},
{
anchors = (
{
name = bottom;
position = "{527, 0}";
},
{
name = bottom.HAc2;
position = "{671, 10}";
},
{
name = bottom.VAc2;
position = "{741, 10}";
},
{
name = bottom.virama;
position = "{671, 0}";
},
{
name = top;
position = "{671, 670}";
},
{
name = top.addak;
position = "{671, 670}";
},
{
name = top.bindi;
position = "{671, 670}";
},
{
name = top.tippi;
position = "{671, 670}";
}
);
background = {
paths = (
{
closed = 1;
nodes = (
"-15 670 LINE",
"-15 558 LINE",
"601 558 LINE",
"601 0 LINE",
"741 0 LINE",
"741 558 LINE",
"841 558 LINE",
"841 670 LINE"
);
},
{
closed = 1;
nodes = (
"319 257 LINE SMOOTH",
"319 197 OFFCURVE",
"297 172 OFFCURVE",
"258 172 CURVE SMOOTH",
"219 172 OFFCURVE",
"182 213 OFFCURVE",
"182 264 CURVE SMOOTH",
"182 308 OFFCURVE",
"211 336 OFFCURVE",
"258 336 CURVE SMOOTH",
"301 336 OFFCURVE",
"328 331 OFFCURVE",
"334 330 CURVE",
"334 443 LINE",
"323 444 OFFCURVE",
"288 449 OFFCURVE",
"251 449 CURVE SMOOTH",
"134 449 OFFCURVE",
"40 396 OFFCURVE",
"40 275 CURVE SMOOTH",
"40 157 OFFCURVE",
"142 60 OFFCURVE",
"259 60 CURVE SMOOTH",
"387 60 OFFCURVE",
"460 131 OFFCURVE",
"460 241 CURVE SMOOTH",
"460 589 LINE",
"319 589 LINE"
);
}
);
};
guideLines = (
{
angle = 90;
position = "{711, -28}";
}
);
layerId = "EDB6D985-9BDA-48FF-B1DC-CE6E1D224CE4";
name = Bold;
paths = (
{
closed = 1;
nodes = (
"-20 670 LINE",
"-20 558 LINE",
"601 558 LINE",
"601 0 LINE",
"741 0 LINE",
"741 558 LINE",
"841 558 LINE",
"841 670 LINE"
);
},
{
closed = 1;
nodes = (
"319 207 LINE SMOOTH",
"319 137 OFFCURVE",
"297 112 OFFCURVE",
"258 112 CURVE SMOOTH",
"206 112 OFFCURVE",
"177 173 OFFCURVE",
"177 224 CURVE SMOOTH",
"177 278 OFFCURVE",
"198 306 OFFCURVE",
"258 306 CURVE SMOOTH",
"301 306 OFFCURVE",
"328 301 OFFCURVE",
"334 300 CURVE",
"334 413 LINE",
"323 414 OFFCURVE",
"288 419 OFFCURVE",
"251 419 CURVE SMOOTH",
"124 419 OFFCURVE",
"35 356 OFFCURVE",
"35 235 CURVE SMOOTH",
"35 114 OFFCURVE",
"132 0 OFFCURVE",
"259 0 CURVE SMOOTH",
"387 0 OFFCURVE",
"460 71 OFFCURVE",
"460 191 CURVE SMOOTH",
"460 589 LINE",
"319 589 LINE"
);
}
);
width = 821;
},
{
anchors = (
{
name = bottom;
position = "{422, 0}";
},
{
name = bottom.HAc2;
position = "{574, 0}";
},
{
name = bottom.VAc2;
position = "{605, 0}";
},
{
name = bottom.virama;
position = "{574, 0}";
},
{
name = top;
position = "{574, 635}";
},
{
name = top.addak;
position = "{574, 635}";
},
{
name = top.bindi;
position = "{574, 635}";
},
{
name = top.tippi;
position = "{574, 635}";
}
);
associatedMasterId = "8D1DA624-BCA2-432D-8EAC-BD2525041625";
guideLines = (
{
angle = 90;
position = "{605, -26}";
}
);
layerId = "D525CAD1-0C5F-4F88-8BD2-4649B86D3D1F";
name = "Light Jun 27 15, 13:59";
paths = (
{
closed = 1;
nodes = (
"-20 635 LINE",
"-20 580 LINE",
"543 580 LINE",
"543 0 LINE",
"605 0 LINE",
"605 580 LINE",
"725 580 LINE",
"725 635 LINE"
);
},
{
closed = 1;
nodes = (
"292 198 LINE SMOOTH",
"292 141 OFFCURVE",
"255 135 OFFCURVE",
"234 135 CURVE SMOOTH",
"154 135 OFFCURVE",
"105 212 OFFCURVE",
"105 281 CURVE SMOOTH",
"105 354 OFFCURVE",
"144 387 OFFCURVE",
"233 387 CURVE SMOOTH",
"254 387 OFFCURVE",
"287 384 OFFCURVE",
"294 382 CURVE",
"294 437 LINE",
"288 439 OFFCURVE",
"253 442 OFFCURVE",
"228 442 CURVE SMOOTH",
"110 442 OFFCURVE",
"40 385 OFFCURVE",
"40 281 CURVE SMOOTH",
"40 176 OFFCURVE",
"130 78 OFFCURVE",
"234 78 CURVE SMOOTH",
"302 78 OFFCURVE",
"354 117 OFFCURVE",
"354 204 CURVE SMOOTH",
"354 600 LINE",
"292 600 LINE"
);
}
);
width = 705;
},
{
anchors = (
{
name = bottom;
position = "{522, 0}";
},
{
name = bottom.HAc2;
position = "{666, 10}";
},
{
name = bottom.VAc2;
position = "{736, 10}";
},
{
name = bottom.virama;
position = "{666, 0}";
},
{
name = top;
position = "{666, 670}";
},
{
name = top.addak;
position = "{666, 670}";
},
{
name = top.bindi;
position = "{666, 670}";
},
{
name = top.tippi;
position = "{666, 670}";
}
);
associatedMasterId = "EDB6D985-9BDA-48FF-B1DC-CE6E1D224CE4";
guideLines = (
{
angle = 90;
position = "{706, -28}";
}
);
layerId = "9427A068-58E5-454E-9875-F275E6FC9CDA";
name = "Bold Jun 27 15, 16:48";
paths = (
{
closed = 1;
nodes = (
"-20 670 LINE",
"-20 558 LINE",
"596 558 LINE",
"596 0 LINE",
"736 0 LINE",
"736 558 LINE",
"836 558 LINE",
"836 670 LINE"
);
},
{
closed = 1;
nodes = (
"314 257 LINE SMOOTH",
"314 197 OFFCURVE",
"292 172 OFFCURVE",
"253 172 CURVE SMOOTH",
"214 172 OFFCURVE",
"177 213 OFFCURVE",
"177 264 CURVE SMOOTH",
"177 308 OFFCURVE",
"206 336 OFFCURVE",
"253 336 CURVE SMOOTH",
"296 336 OFFCURVE",
"323 331 OFFCURVE",
"329 330 CURVE",
"329 443 LINE",
"318 444 OFFCURVE",
"283 449 OFFCURVE",
"246 449 CURVE SMOOTH",
"129 449 OFFCURVE",
"35 396 OFFCURVE",
"35 275 CURVE SMOOTH",
"35 157 OFFCURVE",
"137 60 OFFCURVE",
"254 60 CURVE SMOOTH",
"382 60 OFFCURVE",
"455 131 OFFCURVE",
"455 241 CURVE SMOOTH",
"455 589 LINE",
"314 589 LINE"
);
}
);
width = 816;
visible = 1;
}
);
unicode = 0A17;
},
{
glyphname = grGHA;
lastChange = "2015-07-03 10:47:14 +0000";
layers = (
{
anchors = (
{
name = bottom;
position = "{498, 0}";
},
{
name = bottom.HAc2;
position = "{651, 0}";
},
{
name = bottom.VAc2;
position = "{682, 0}";
},
{
name = bottom.virama;
position = "{651, 0}";
},
{
name = top;
position = "{651, 635}";
},
{
name = top.addak;
position = "{651, 635}";
},
{
name = top.bindi;
position = "{651, 635}";
},
{
name = top.tippi;
position = "{651, 635}";
}
);
guideLines = (
{
angle = 90;
position = "{682, 48}";
}
);
layerId = "8D1DA624-BCA2-432D-8EAC-BD2525041625";
name = Light;
paths = (
{
closed = 1;
nodes = (
"620 602 LINE",
"620 0 LINE",
"682 0 LINE",
"682 602 LINE"
);
},
{
closed = 1;
nodes = (
"802 580 LINE",
"802 635 LINE",
"620 635 LINE",
"620 580 LINE"
);
},
{
closed = 1;
nodes = (
"620 241 OFFCURVE",
"592 197 OFFCURVE",
"516 197 CURVE SMOOTH",
"447 197 OFFCURVE",
"410 240 OFFCURVE",
"410 315 CURVE SMOOTH",
"410 523 LINE",
"348 523 LINE",
"348 313 LINE SMOOTH",
"348 240 OFFCURVE",
"314 197 OFFCURVE",
"239 197 CURVE SMOOTH",
"180 197 OFFCURVE",
"124 242 OFFCURVE",
"115 341 CURVE",
"156 388 OFFCURVE",
"180 426 OFFCURVE",
"180 484 CURVE SMOOTH",
"180 549 OFFCURVE",
"134 635 OFFCURVE",
"25 635 CURVE SMOOTH",
"-20 635 LINE",
"-20 580 LINE",
"13 580 LINE SMOOTH",
"86 580 OFFCURVE",
"116 534 OFFCURVE",
"116 487 CURVE SMOOTH",
"116 446 OFFCURVE",
"96 398 OFFCURVE",
"50 354 CURVE",
"66 207 OFFCURVE",
"142 140 OFFCURVE",
"236 140 CURVE SMOOTH",
"312 140 OFFCURVE",
"353 170 OFFCURVE",
"379 216 CURVE",
"406 170 OFFCURVE",
"449 140 OFFCURVE",
"516 140 CURVE SMOOTH",
"622 140 OFFCURVE",
"672 211 OFFCURVE",
"672 317 CURVE",
"620 317 LINE"
);
}
);
width = 782;
},
{
anchors = (
{
name = bottom;
position = "{520, 0}";
},
{
name = bottom.HAc2;
position = "{664, 10}";
},
{
name = bottom.VAc2;
position = "{734, 10}";
},
{
name = bottom.virama;
position = "{664, 0}";
},
{
name = top;
position = "{664, 670}";
},
{
name = top.addak;
position = "{664, 670}";
},
{
name = top.bindi;
position = "{664, 670}";
},
{
name = top.tippi;
position = "{664, 670}";
}
);
guideLines = (
{
angle = 90;
position = "{734, 37}";
}
);
layerId = "EDB6D985-9BDA-48FF-B1DC-CE6E1D224CE4";
name = Bold;
paths = (
{
closed = 1;
nodes = (
"594 588 LINE",
"594 0 LINE",
"734 0 LINE",
"734 588 LINE"
);
},
{
closed = 1;
nodes = (
"834 558 LINE",
"834 670 LINE",
"594 670 LINE",
"594 558 LINE"
);
},
{
closed = 1;
nodes = (
"594 270 OFFCURVE",
"580 240 OFFCURVE",
"534 240 CURVE SMOOTH",
"490 240 OFFCURVE",
"469 270 OFFCURVE",
"469 329 CURVE SMOOTH",
"469 531 LINE",
"339 531 LINE",
"339 330 LINE SMOOTH",
"339 270 OFFCURVE",
"309 240 OFFCURVE",
"259 240 CURVE SMOOTH",
"211 240 OFFCURVE",
"178 276 OFFCURVE",
"170 326 CURVE",
"188 344 OFFCURVE",
"243 405 OFFCURVE",
"243 485 CURVE SMOOTH",
"243 585 OFFCURVE",
"181 670 OFFCURVE",
"50 670 CURVE SMOOTH",
"-20 670 LINE",
"-20 558 LINE",
"32 558 LINE SMOOTH",
"72 558 OFFCURVE",
"101 527 OFFCURVE",
"101 482 CURVE SMOOTH",
"101 428 OFFCURVE",
"59 384 OFFCURVE",
"30 357 CURVE",
"50 205 OFFCURVE",
"128 122 OFFCURVE",
"259 122 CURVE SMOOTH",
"332 122 OFFCURVE",
"375 147 OFFCURVE",
"404 195 CURVE",
"433 147 OFFCURVE",
"464 122 OFFCURVE",
"533 122 CURVE SMOOTH",
"656 122 OFFCURVE",
"714 235 OFFCURVE",
"714 334 CURVE",
"594 328 LINE"
);
}
);
width = 814;
},
{
anchors = (
{
name = bottom;
position = "{498, 0}";
},
{
name = bottom.HAc2;
position = "{651, 0}";
},
{
name = bottom.VAc2;
position = "{682, 0}";
},
{
name = bottom.virama;
position = "{651, 0}";
},
{
name = top;
position = "{651, 635}";
},
{
name = top.addak;
position = "{651, 635}";
},
{
name = top.bindi;
position = "{651, 635}";
},
{
name = top.tippi;
position = "{651, 635}";
}
);
associatedMasterId = "8D1DA624-BCA2-432D-8EAC-BD2525041625";
guideLines = (
{
angle = 90;
position = "{682, 48}";
}
);
layerId = "635FA907-2BD1-4E94-B516-431391F93954";
name = "Light Jun 27 15, 14:08";
paths = (
{
closed = 1;
nodes = (
"620 602 LINE",
"620 0 LINE",
"682 0 LINE",
"682 602 LINE"
);
},
{
closed = 1;
nodes = (
"802 580 LINE",
"802 635 LINE",
"620 635 LINE",
"620 580 LINE"
);
},
{
closed = 1;
nodes = (
"620 241 OFFCURVE",
"592 197 OFFCURVE",
"516 197 CURVE SMOOTH",
"447 197 OFFCURVE",
"410 240 OFFCURVE",
"410 315 CURVE SMOOTH",
"410 483 LINE",
"348 483 LINE",
"348 313 LINE SMOOTH",
"348 240 OFFCURVE",
"314 197 OFFCURVE",
"239 197 CURVE SMOOTH",
"180 197 OFFCURVE",
"124 242 OFFCURVE",
"115 341 CURVE",
"156 388 OFFCURVE",
"180 426 OFFCURVE",
"180 484 CURVE SMOOTH",
"180 549 OFFCURVE",
"134 635 OFFCURVE",
"25 635 CURVE SMOOTH",
"-20 635 LINE",
"-20 580 LINE",
"13 580 LINE SMOOTH",
"86 580 OFFCURVE",
"116 534 OFFCURVE",
"116 487 CURVE SMOOTH",
"116 446 OFFCURVE",
"96 398 OFFCURVE",
"50 354 CURVE",
"66 207 OFFCURVE",
"142 140 OFFCURVE",
"236 140 CURVE SMOOTH",
"312 140 OFFCURVE",
"353 170 OFFCURVE",
"379 216 CURVE",
"406 170 OFFCURVE",
"449 140 OFFCURVE",
"516 140 CURVE SMOOTH",
"622 140 OFFCURVE",
"672 211 OFFCURVE",
"672 317 CURVE",
"620 317 LINE"
);
}
);
width = 782;
}
);
unicode = 0A18;
},
{
glyphname = grNGA;
lastChange = "2015-07-03 10:47:14 +0000";
layers = (
{
anchors = (
{
name = bottom;
position = "{301, -59}";
},
{
name = bottom.HAc2;
position = "{446, -84}";
},
{
name = bottom.VAc2;
position = "{477, -84}";
},
{
name = bottom.virama;
position = "{454, -59}";
},
{
name = top;
position = "{391, 635}";
},
{
name = top.addak;
position = "{290, 635}";
},
{
name = top.bindi;
position = "{290, 635}";
},
{
name = top.tippi;
position = "{290, 635}";
}
);
background = {
paths = (
{
closed = 1;
nodes = (
"404 161 LINE SMOOTH",
"380 264 OFFCURVE",
"313 313 OFFCURVE",
"225 313 CURVE SMOOTH",
"121 313 OFFCURVE",
"65 250 OFFCURVE",
"65 166 CURVE SMOOTH",
"65 82 OFFCURVE",
"136 10 OFFCURVE",
"262 10 CURVE SMOOTH",
"302 10 OFFCURVE",
"341 18 OFFCURVE",
"374 30 CURVE",
"395 -59 LINE",
"457 -59 LINE",
"430 56 LINE",
"476 93 OFFCURVE",
"524 129 OFFCURVE",
"524 253 CURVE",
"524 371 OFFCURVE",
"431 467 OFFCURVE",
"289 467 CURVE SMOOTH",
"177 467 LINE",
"177 580 LINE",
"584 580 LINE",
"584 635 LINE",
"-15 635 LINE",
"-15 580 LINE",
"115 580 LINE",
"115 412 LINE",
"268 412 LINE SMOOTH",
"385 412 OFFCURVE",
"460 351 OFFCURVE",
"460 253 CURVE",
"460 197 OFFCURVE",
"438 136 OFFCURVE",
"415 113 CURVE"
);
},
{
closed = 1;
nodes = (
"166 67 OFFCURVE",
"129 113 OFFCURVE",
"129 166 CURVE SMOOTH",
"129 219 OFFCURVE",
"159 256 OFFCURVE",
"225 256 CURVE SMOOTH",
"277 256 OFFCURVE",
"324 233 OFFCURVE",
"342 161 CURVE SMOOTH",
"361 86 LINE",
"332 75 OFFCURVE",
"297 67 OFFCURVE",
"261 67 CURVE SMOOTH"
);
}
);
};
layerId = "8D1DA624-BCA2-432D-8EAC-BD2525041625";
name = Light;
paths = (
{
closed = 1;
nodes = (
"-20 580 LINE",
"110 580 LINE",
"110 412 LINE",
"268 412 LINE SMOOTH",
"385 412 OFFCURVE",
"460 351 OFFCURVE",
"460 253 CURVE SMOOTH",
"460 128 OFFCURVE",
"381 66 OFFCURVE",
"261 66 CURVE SMOOTH",
"161 66 OFFCURVE",
"124 119 OFFCURVE",
"124 172 CURVE SMOOTH",
"124 225 OFFCURVE",
"159 256 OFFCURVE",
"215 256 CURVE SMOOTH",
"280 256 OFFCURVE",
"320 215 OFFCURVE",
"345 143 CURVE SMOOTH",
"414 -59 LINE",
"477 -59 LINE",
"407 143 LINE SMOOTH",
"371 247 OFFCURVE",
"316 313 OFFCURVE",
"215 313 CURVE SMOOTH",
"121 313 OFFCURVE",
"60 256 OFFCURVE",
"60 172 CURVE SMOOTH",
"60 88 OFFCURVE",
"131 9 OFFCURVE",
"262 9 CURVE SMOOTH",
"411 9 OFFCURVE",
"524 95 OFFCURVE",
"524 253 CURVE SMOOTH",
"524 371 OFFCURVE",
"431 467 OFFCURVE",
"289 467 CURVE SMOOTH",
"172 467 LINE",
"172 580 LINE",
"584 580 LINE",
"584 635 LINE",
"-20 635 LINE"
);
}
);
width = 564;
},
{
anchors = (
{
name = bottom;
position = "{315, -84}";
},
{
name = bottom.HAc2;
position = "{441, -109}";
},
{
name = bottom.VAc2;
position = "{499, -109}";
},
{
name = bottom.virama;
position = "{459, -84}";
},
{
name = top;
position = "{424, 670}";
},
{
name = top.addak;
position = "{335, 670}";
},
{
name = top.bindi;
position = "{335, 670}";
},
{
name = top.tippi;
position = "{335, 670}";
}
);
background = {
paths = (
{
closed = 1;
nodes = (
"664 670 LINE",
"-15 670 LINE",
"-15 558 LINE",
"105 558 LINE",
"105 363 LINE",
"325 363 LINE SMOOTH",
"408 363 OFFCURVE",
"452 327 OFFCURVE",
"452 256 CURVE SMOOTH",
"452 212 OFFCURVE",
"433 175 OFFCURVE",
"403 149 CURVE",
"402 151 LINE SMOOTH",
"379 237 OFFCURVE",
"328 303 OFFCURVE",
"235 303 CURVE SMOOTH",
"144 303 OFFCURVE",
"75 241 OFFCURVE",
"75 155 CURVE SMOOTH",
"75 51 OFFCURVE",
"177 -9 OFFCURVE",
"282 -9 CURVE SMOOTH",
"296 -9 OFFCURVE",
"310 -8 OFFCURVE",
"323 -7 CURVE",
"345 -93 LINE",
"466 -93 LINE",
"436 23 LINE",
"533 68 OFFCURVE",
"594 156 OFFCURVE",
"594 261 CURVE SMOOTH",
"594 378 OFFCURVE",
"523 476 OFFCURVE",
"386 476 CURVE SMOOTH",
"245 476 LINE",
"245 558 LINE",
"664 558 LINE"
);
},
{
closed = 1;
nodes = (
"233 107 OFFCURVE",
"194 121 OFFCURVE",
"194 156 CURVE SMOOTH",
"194 179 OFFCURVE",
"210 196 OFFCURVE",
"235 196 CURVE SMOOTH",
"260 196 OFFCURVE",
"276 180 OFFCURVE",
"284 150 CURVE SMOOTH",
"295 107 LINE",
"290 107 OFFCURVE",
"286 107 OFFCURVE",
"281 107 CURVE SMOOTH"
);
}
);
};
layerId = "EDB6D985-9BDA-48FF-B1DC-CE6E1D224CE4";
name = Bold;
paths = (
{
closed = 1;
nodes = (
"-20 558 LINE",
"100 558 LINE",
"100 372 LINE",
"315 372 LINE SMOOTH",
"408 372 OFFCURVE",
"447 336 OFFCURVE",
"447 265 CURVE SMOOTH",
"447 180 OFFCURVE",
"382 116 OFFCURVE",
"282 116 CURVE SMOOTH",
"225 116 OFFCURVE",
"185 134 OFFCURVE",
"185 170 CURVE SMOOTH",
"185 193 OFFCURVE",
"201 207 OFFCURVE",
"227 207 CURVE SMOOTH",
"254 207 OFFCURVE",
"277 193 OFFCURVE",
"291 155 CURVE SMOOTH",
"378 -84 LINE",
"499 -84 LINE",
"405 172 LINE SMOOTH",
"375 254 OFFCURVE",
"311 314 OFFCURVE",
"217 314 CURVE SMOOTH",
"125 314 OFFCURVE",
"66 257 OFFCURVE",
"66 171 CURVE SMOOTH",
"66 67 OFFCURVE",
"168 0 OFFCURVE",
"282 0 CURVE SMOOTH",
"457 0 OFFCURVE",
"589 106 OFFCURVE",
"589 270 CURVE SMOOTH",
"589 387 OFFCURVE",
"523 485 OFFCURVE",
"376 485 CURVE SMOOTH",
"240 485 LINE",
"240 558 LINE",
"659 558 LINE",
"659 670 LINE",
"-20 670 LINE"
);
}
);
width = 639;
},
{
anchors = (
{
name = bottom;
position = "{296, -59}";
},
{
name = bottom.HAc2;
position = "{386, -84}";
},
{
name = bottom.VAc2;
position = "{417, -84}";
},
{
name = bottom.virama;
position = "{392, -59}";
},
{
name = top;
position = "{386, 635}";
},
{
name = top.addak;
position = "{285, 635}";
},
{
name = top.bindi;
position = "{285, 635}";
},
{
name = top.tippi;
position = "{285, 635}";
}
);
associatedMasterId = "8D1DA624-BCA2-432D-8EAC-BD2525041625";
layerId = "DB810D78-A476-4F6A-8DED-CAC2AA444006";
name = "Light Jun 27 15, 14:12";
paths = (
{
closed = 1;
nodes = (
"579 635 LINE",
"-20 635 LINE",
"-20 580 LINE",
"110 580 LINE",
"110 412 LINE",
"263 412 LINE SMOOTH",
"380 412 OFFCURVE",
"455 351 OFFCURVE",
"455 253 CURVE SMOOTH",
"455 184 OFFCURVE",
"427 134 OFFCURVE",
"380 105 CURVE",
"369 153 LINE SMOOTH",
"347 248 OFFCURVE",
"292 308 OFFCURVE",
"204 308 CURVE SMOOTH",
"117 308 OFFCURVE",
"57 251 OFFCURVE",
"57 170 CURVE SMOOTH",
"57 86 OFFCURVE",
"131 15 OFFCURVE",
"237 15 CURVE SMOOTH",
"272 15 OFFCURVE",
"305 19 OFFCURVE",
"336 27 CURVE",
"355 -59 LINE",
"417 -59 LINE",
"393 48 LINE",
"469 85 OFFCURVE",
"519 154 OFFCURVE",
"519 253 CURVE SMOOTH",
"519 371 OFFCURVE",
"426 467 OFFCURVE",
"284 467 CURVE SMOOTH",
"172 467 LINE",
"172 580 LINE",
"579 580 LINE"
);
},
{
closed = 1;
nodes = (
"161 72 OFFCURVE",
"121 115 OFFCURVE",
"121 168 CURVE SMOOTH",
"121 222 OFFCURVE",
"154 251 OFFCURVE",
"203 251 CURVE SMOOTH",
"255 251 OFFCURVE",
"291 224 OFFCURVE",
"307 153 CURVE SMOOTH",
"323 83 LINE",
"296 76 OFFCURVE",
"267 72 OFFCURVE",
"236 72 CURVE SMOOTH"
);
}
);
width = 559;
},
{
anchors = (
{
name = bottom;
position = "{329, -93}";
},
{
name = bottom.HAc2;
position = "{391, -118}";
},
{
name = bottom.VAc2;
position = "{461, -118}";
},
{
name = bottom.virama;
position = "{408, -93}";
},
{
name = top;
position = "{419, 670}";
},
{
name = top.addak;
position = "{330, 670}";
},
{
name = top.bindi;
position = "{330, 670}";
},
{
name = top.tippi;
position = "{330, 670}";
}
);
associatedMasterId = "EDB6D985-9BDA-48FF-B1DC-CE6E1D224CE4";
layerId = "A409F9E3-E0CE-4E4E-9AEC-D7CBE4C0ECC5";
name = "Bold Jun 27 15, 17:00";
paths = (
{
closed = 1;
nodes = (
"659 670 LINE",
"-20 670 LINE",
"-20 558 LINE",
"100 558 LINE",
"100 363 LINE",
"320 363 LINE SMOOTH",
"403 363 OFFCURVE",
"447 327 OFFCURVE",
"447 256 CURVE SMOOTH",
"447 212 OFFCURVE",
"428 175 OFFCURVE",
"398 149 CURVE",
"397 151 LINE SMOOTH",
"374 237 OFFCURVE",
"323 303 OFFCURVE",
"230 303 CURVE SMOOTH",
"139 303 OFFCURVE",
"70 241 OFFCURVE",
"70 155 CURVE SMOOTH",
"70 51 OFFCURVE",
"172 -9 OFFCURVE",
"277 -9 CURVE SMOOTH",
"291 -9 OFFCURVE",
"305 -8 OFFCURVE",
"318 -7 CURVE",
"340 -93 LINE",
"461 -93 LINE",
"431 23 LINE",
"528 68 OFFCURVE",
"589 156 OFFCURVE",
"589 261 CURVE SMOOTH",
"589 378 OFFCURVE",
"518 476 OFFCURVE",
"381 476 CURVE SMOOTH",
"240 476 LINE",
"240 558 LINE",
"659 558 LINE"
);
},
{
closed = 1;
nodes = (
"228 107 OFFCURVE",
"189 121 OFFCURVE",
"189 156 CURVE SMOOTH",
"189 179 OFFCURVE",
"205 196 OFFCURVE",
"230 196 CURVE SMOOTH",
"255 196 OFFCURVE",
"271 180 OFFCURVE",
"279 150 CURVE SMOOTH",
"290 107 LINE",
"285 107 OFFCURVE",
"281 107 OFFCURVE",
"276 107 CURVE SMOOTH"
);
}
);
width = 639;
}
);
unicode = 0A19;
},
{
glyphname = grCA;
lastChange = "2015-07-03 10:47:14 +0000";
layers = (
{
anchors = (
{
name = bottom;
position = "{303, -6}";
},
{
name = bottom.HAc2;
position = "{435, -40}";
},
{
name = bottom.VAc2;
position = "{466, -40}";
},
{
name = bottom.virama;
position = "{342, -6}";
},
{
name = top;
position = "{435, 635}";
},
{
name = top.addak;
position = "{435, 635}";
},
{
name = top.bindi;
position = "{435, 635}";
},
{
name = top.tippi;
position = "{435, 635}";
}
);
background = {
paths = (
{
closed = 1;
nodes = (
"411 363 LINE",
"79 363 LINE",
"79 308 LINE",
"411 308 LINE"
);
},
{
closed = 1;
nodes = (
"61 434 LINE",
"47 415 OFFCURVE",
"22 378 OFFCURVE",
"22 349 CURVE SMOOTH",
"22 326 OFFCURVE",
"37 308 OFFCURVE",
"71 308 CURVE",
"159 308 LINE",
"109 434 LINE"
);
},
{
closed = 1;
nodes = (
"159 155 LINE SMOOTH",
"206 55 OFFCURVE",
"262 -6 OFFCURVE",
"342 -6 CURVE SMOOTH",
"420 -6 OFFCURVE",
"466 49 OFFCURVE",
"466 119 CURVE SMOOTH",
"466 619 LINE",
"404 619 LINE",
"404 121 LINE SMOOTH",
"404 78 OFFCURVE",
"387 51 OFFCURVE",
"342 51 CURVE SMOOTH",
"288 51 OFFCURVE",
"249 102 OFFCURVE",
"207 196 CURVE SMOOTH",
"143 340 LINE",
"84 313 LINE"
);
},
{
closed = 1;
nodes = (
"-20 580 LINE",
"586 580 LINE",
"586 635 LINE",
"-20 635 LINE"
);
}
);
};
guideLines = (
{
angle = 90;
position = "{404, -80}";
}
);
layerId = "8D1DA624-BCA2-432D-8EAC-BD2525041625";
name = Light;
paths = (
{
closed = 1;
nodes = (
"411 363 LINE",
"109 363 LINE",
"109 308 LINE",
"411 308 LINE"
);
},
{
closed = 1;
nodes = (
"-20 580 LINE",
"586 580 LINE",
"586 635 LINE",
"-20 635 LINE"
);
},
{
closed = 1;
nodes = (
"404 121 LINE SMOOTH",
"404 78 OFFCURVE",
"387 51 OFFCURVE",
"342 51 CURVE SMOOTH",
"288 51 OFFCURVE",
"249 102 OFFCURVE",
"207 196 CURVE SMOOTH",
"109 434 LINE",
"61 434 LINE",
"47 415 OFFCURVE",
"22 378 OFFCURVE",
"22 349 CURVE SMOOTH",
"22 326 OFFCURVE",
"37 308 OFFCURVE",
"71 308 CURVE SMOOTH",
"90 308 LINE",
"159 155 LINE SMOOTH",
"204 55 OFFCURVE",
"262 -6 OFFCURVE",
"342 -6 CURVE SMOOTH",
"420 -6 OFFCURVE",
"466 49 OFFCURVE",
"466 119 CURVE SMOOTH",
"466 619 LINE",
"404 619 LINE"
);
}
);
width = 566;
},
{
anchors = (
{
name = bottom;
position = "{384, -30}";
},
{
name = bottom.HAc2;
position = "{515, -50}";
},
{
name = bottom.VAc2;
position = "{585, -50}";
},
{
name = bottom.virama;
position = "{412, -30}";
},
{
name = top;
position = "{515, 670}";
},
{
name = top.addak;
position = "{515, 670}";
},
{
name = top.bindi;
position = "{515, 670}";
},
{
name = top.tippi;
position = "{515, 670}";
}
);
layerId = "EDB6D985-9BDA-48FF-B1DC-CE6E1D224CE4";
name = Bold;
paths = (
{
closed = 1;
nodes = (
"450 385 LINE",
"157 385 LINE",
"157 274 LINE",
"450 274 LINE"
);
},
{
closed = 1;
nodes = (
"-20 558 LINE",
"685 558 LINE",
"685 670 LINE",
"-20 670 LINE"
);
},
{
closed = 1;
nodes = (
"445 150 LINE SMOOTH",
"445 108 OFFCURVE",
"433 88 OFFCURVE",
"397 88 CURVE SMOOTH",
"354 88 OFFCURVE",
"323 137 OFFCURVE",
"289 205 CURVE SMOOTH",
"159 463 LINE",
"99 463 LINE",
"66 428 OFFCURVE",
"35 379 OFFCURVE",
"35 344 CURVE SMOOTH",
"35 305 OFFCURVE",
"57 274 OFFCURVE",
"99 274 CURVE SMOOTH",
"106 274 LINE",
"176 139 LINE SMOOTH",
"226 42 OFFCURVE",
"300 -30 OFFCURVE",
"412 -30 CURVE SMOOTH",
"516 -30 OFFCURVE",
"585 26 OFFCURVE",
"585 157 CURVE SMOOTH",
"585 597 LINE",
"445 597 LINE"
);
}
);
width = 665;
}
);
unicode = 0A1A;
},
{
glyphname = grCHA;
lastChange = "2015-07-03 10:47:14 +0000";
layers = (
{
anchors = (
{
name = bottom;
position = "{289, -7}";
},
{
name = bottom.HAc2;
position = "{291, -6}";
},
{
name = bottom.VAc2;
position = "{364, -24}";
},
{
name = bottom.virama;
position = "{291, -7}";
},
{
name = top;
position = "{432, 635}";
},
{
name = top.addak;
position = "{432, 635}";
},
{
name = top.bindi;
position = "{432, 635}";
},
{
name = top.tippi;
position = "{432, 635}";
}
);
layerId = "8D1DA624-BCA2-432D-8EAC-BD2525041625";
name = Light;
paths = (
{
closed = 1;
nodes = (
"463 580 LINE",
"584 580 LINE",
"584 635 LINE",
"-20 636 LINE",
"-20 581 LINE",
"401 580 LINE",
"401 484 LINE",
"208 485 LINE SMOOTH",
"120 485 OFFCURVE",
"70 439 OFFCURVE",
"70 369 CURVE SMOOTH",
"70 282 OFFCURVE",
"147 247 OFFCURVE",
"292 239 CURVE SMOOTH",
"416 232 OFFCURVE",
"460 203 OFFCURVE",
"460 144 CURVE SMOOTH",
"460 89 OFFCURVE",
"408 44 OFFCURVE",
"291 45 CURVE SMOOTH",
"174 46 OFFCURVE",
"123 90 OFFCURVE",
"122 145 CURVE SMOOTH",
"121 204 OFFCURVE",
"182 234 OFFCURVE",
"259 238 CURVE",
"259 20 LINE",
"319 19 LINE",
"319 287 LINE",
"259 288 LINE",
"184 288 OFFCURVE",
"60 245 OFFCURVE",
"60 145 CURVE SMOOTH",
"60 56 OFFCURVE",
"142 -7 OFFCURVE",
"291 -7 CURVE SMOOTH",
"440 -7 OFFCURVE",
"524 56 OFFCURVE",
"524 144 CURVE SMOOTH",
"524 240 OFFCURVE",
"444 280 OFFCURVE",
"319 290 CURVE SMOOTH",
"188 300 OFFCURVE",
"132 315 OFFCURVE",
"132 371 CURVE SMOOTH",
"132 410 OFFCURVE",
"167 430 OFFCURVE",
"212 430 CURVE SMOOTH",
"463 429 LINE"
);
}
);
width = 564;
},
{
anchors = (
{
name = bottom;
position = "{294, -15}";
},
{
name = bottom.HAc2;
position = "{286, 0}";
},
{
name = bottom.VAc2;
position = "{366, -38}";
},
{
name = bottom.virama;
position = "{294, -16}";
},
{
name = top;
position = "{413, 670}";
},
{
name = top.addak;
position = "{413, 670}";
},
{
name = top.bindi;
position = "{413, 670}";
},
{
name = top.tippi;
position = "{413, 670}";
}
);
layerId = "EDB6D985-9BDA-48FF-B1DC-CE6E1D224CE4";
name = Bold;
paths = (
{
closed = 1;
nodes = (
"493 558 LINE",
"608 558 LINE",
"608 670 LINE",
"-20 670 LINE",
"-20 558 LINE",
"353 558 LINE",
"353 516 LINE",
"242 516 LINE SMOOTH",
"150 516 OFFCURVE",
"54 479 OFFCURVE",
"54 373 CURVE SMOOTH",
"54 261 OFFCURVE",
"188 221 OFFCURVE",
"289 221 CURVE SMOOTH",
"376 221 OFFCURVE",
"413 202 OFFCURVE",
"413 158 CURVE SMOOTH",
"413 122 OFFCURVE",
"373 97 OFFCURVE",
"289 97 CURVE SMOOTH",
"207 97 OFFCURVE",
"165 119 OFFCURVE",
"165 159 CURVE SMOOTH",
"165 202 OFFCURVE",
"204 220 OFFCURVE",
"251 220 CURVE",
"251 6 LINE SMOOTH",
"327 6 LINE SMOOTH",
"327 311 LINE",
"226 311 LINE SMOOTH",
"180 311 OFFCURVE",
"35 277 OFFCURVE",
"35 159 CURVE SMOOTH",
"35 65 OFFCURVE",
"126 -15 OFFCURVE",
"294 -15 CURVE SMOOTH",
"465 -15 OFFCURVE",
"553 65 OFFCURVE",
"553 159 CURVE SMOOTH",
"553 250 OFFCURVE",
"491 312 OFFCURVE",
"349 328 CURVE SMOOTH",
"242 340 OFFCURVE",
"193 341 OFFCURVE",
"193 373 CURVE SMOOTH",
"193 392 OFFCURVE",
"210 404 OFFCURVE",
"244 404 CURVE SMOOTH",
"493 404 LINE"
);
}
);
width = 588;
},
{
anchors = (
{
name = bottom;
position = "{294, -15}";
},
{
name = bottom.HAc2;
position = "{286, 0}";
},
{
name = bottom.VAc2;
position = "{366, -38}";
},
{
name = bottom.virama;
position = "{294, -16}";
},
{
name = top;
position = "{413, 670}";
},
{
name = top.addak;
position = "{413, 670}";
},
{
name = top.bindi;
position = "{413, 670}";
},
{
name = top.tippi;
position = "{413, 670}";
}
);
associatedMasterId = "EDB6D985-9BDA-48FF-B1DC-CE6E1D224CE4";
layerId = "3A7C63AA-A86C-4310-9AEA-38D1F15C91DC";
name = "Bold Jun 27 15, 17:21";
paths = (
{
closed = 1;
nodes = (
"493 558 LINE",
"608 558 LINE",
"608 670 LINE",
"-20 670 LINE",
"-20 558 LINE",
"353 558 LINE",
"353 516 LINE",
"242 516 LINE SMOOTH",
"150 516 OFFCURVE",
"54 479 OFFCURVE",
"54 373 CURVE SMOOTH",
"54 261 OFFCURVE",
"188 221 OFFCURVE",
"289 221 CURVE SMOOTH",
"376 221 OFFCURVE",
"413 202 OFFCURVE",
"413 158 CURVE SMOOTH",
"413 122 OFFCURVE",
"373 97 OFFCURVE",
"289 97 CURVE SMOOTH",
"207 97 OFFCURVE",
"165 119 OFFCURVE",
"165 159 CURVE SMOOTH",
"165 202 OFFCURVE",
"204 220 OFFCURVE",
"251 220 CURVE",
"251 6 LINE SMOOTH",
"327 6 LINE SMOOTH",
"327 311 LINE",
"226 311 LINE SMOOTH",
"180 311 OFFCURVE",
"35 277 OFFCURVE",
"35 159 CURVE SMOOTH",
"35 65 OFFCURVE",
"126 -15 OFFCURVE",
"294 -15 CURVE SMOOTH",
"465 -15 OFFCURVE",
"553 65 OFFCURVE",
"553 159 CURVE SMOOTH",
"553 250 OFFCURVE",
"491 312 OFFCURVE",
"349 328 CURVE SMOOTH",
"242 340 OFFCURVE",
"193 341 OFFCURVE",
"193 373 CURVE SMOOTH",
"193 392 OFFCURVE",
"210 404 OFFCURVE",
"244 404 CURVE SMOOTH",
"493 404 LINE"
);
}
);
width = 588;
}
);
unicode = 0A1B;
},
{
glyphname = grJA;
lastChange = "2015-07-03 10:47:14 +0000";
layers = (
{
anchors = (
{
name = bottom;
position = "{272, 0}";
},
{
name = bottom.HAc2;
position = "{416, 0}";
},
{
name = bottom.VAc2;
position = "{447, 0}";
},
{
name = bottom.virama;
position = "{416, 0}";
},
{
name = top;
position = "{416, 635}";
},
{
name = top.addak;
position = "{416, 635}";
},
{
name = top.bindi;
position = "{416, 635}";
},
{
name = top.tippi;
position = "{416, 635}";
}
);
layerId = "8D1DA624-BCA2-432D-8EAC-BD2525041625";
name = Light;
paths = (
{
closed = 1;
nodes = (
"-20 635 LINE",
"-20 580 LINE",
"385 580 LINE",
"385 353 LINE",
"97 353 LINE",
"97 298 LINE",
"385 298 LINE",
"385 0 LINE",
"447 0 LINE",
"447 580 LINE",
"567 580 LINE",
"567 635 LINE"
);
},
{
closed = 1;
nodes = (
"68 404 OFFCURVE",
"41 367 OFFCURVE",
"41 343 CURVE SMOOTH",
"41 314 OFFCURVE",
"59 298 OFFCURVE",
"90 298 CURVE",
"90 0 LINE",
"152 0 LINE",
"152 425 LINE",
"88 425 LINE"
);
}
);
width = 547;
},
{
anchors = (
{
name = bottom;
position = "{305, 0}";
},
{
name = bottom.HAc2;
position = "{465, 10}";
},
{
name = bottom.VAc2;
position = "{535, 10}";
},
{
name = bottom.virama;
position = "{465, 0}";
},
{
name = top;
position = "{465, 670}";
},
{
name = top.addak;
position = "{465, 670}";
},
{
name = top.bindi;
position = "{465, 670}";
},
{
name = top.tippi;
position = "{465, 670}";
}
);
layerId = "EDB6D985-9BDA-48FF-B1DC-CE6E1D224CE4";
name = Bold;
paths = (
{
closed = 1;
nodes = (
"-20 670 LINE",
"-20 558 LINE",
"395 558 LINE",
"395 386 LINE",
"80 386 LINE",
"80 274 LINE",
"395 274 LINE",
"395 0 LINE",
"535 0 LINE",
"535 558 LINE",
"635 558 LINE",
"635 670 LINE"
);
},
{
closed = 1;
nodes = (
"65 430 OFFCURVE",
"17 396 OFFCURVE",
"17 343 CURVE SMOOTH",
"17 314 OFFCURVE",
"33 280 OFFCURVE",
"70 275 CURVE",
"70 0 LINE",
"210 0 LINE",
"210 463 LINE",
"105 463 LINE"
);
}
);
width = 615;
}
);
unicode = 0A1C;
},
{
glyphname = grJHA;
lastChange = "2015-07-03 10:47:14 +0000";
layers = (
{
anchors = (
{
name = bottom;
position = "{254, -34}";
},
{
name = bottom.HAc2;
position = "{316, -57}";
},
{
name = bottom.VAc2;
position = "{357, -35}";
},
{
name = bottom.virama;
position = "{335, -34}";
},
{
name = top;
position = "{405, 635}";
},
{
name = top.addak;
position = "{245, 635}";
},
{
name = top.bindi;
position = "{245, 635}";
},
{
name = top.tippi;
position = "{245, 635}";
}
);
layerId = "8D1DA624-BCA2-432D-8EAC-BD2525041625";
name = Light;
paths = (
{
closed = 1;
nodes = (
"540 580 LINE",
"540 635 LINE",
"-20 635 LINE",
"-20 580 LINE"
);
},
{
closed = 1;
nodes = (
"52 482 OFFCURVE",
"109 398 OFFCURVE",
"218 334 CURVE",
"272 334 LINE",
"379 398 OFFCURVE",
"438 482 OFFCURVE",
"438 602 CURVE",
"378 602 LINE",
"378 519 OFFCURVE",
"348 445 OFFCURVE",
"245 385 CURVE",
"140 445 OFFCURVE",
"112 519 OFFCURVE",
"112 600 CURVE",
"52 600 LINE"
);
},
{
closed = 1;
nodes = (
"73 129 LINE",
"104 112 OFFCURVE",
"170 85 OFFCURVE",
"254 85 CURVE SMOOTH",
"394 85 OFFCURVE",
"460 151 OFFCURVE",
"460 233 CURVE SMOOTH",
"460 315 OFFCURVE",
"374 385 OFFCURVE",
"245 385 CURVE SMOOTH",
"171 385 OFFCURVE",
"120 378 OFFCURVE",
"66 361 CURVE",
"66 304 LINE",
"116 319 OFFCURVE",
"170 328 OFFCURVE",
"236 328 CURVE SMOOTH",
"329 328 OFFCURVE",
"398 293 OFFCURVE",
"398 236 CURVE SMOOTH",
"398 179 OFFCURVE",
"345 142 OFFCURVE",
"254 142 CURVE SMOOTH",
"176 142 OFFCURVE",
"124 158 OFFCURVE",
"73 182 CURVE"
);
},
{
closed = 1;
nodes = (
"357 -34 LINE",
"120 160 LINE",
"73 129 LINE",
"267 -34 LINE"
);
}
);
width = 520;
},
{
anchors = (
{
name = bottom;
position = "{300, -57}";
},
{
name = bottom.HAc2;
position = "{371, -90}";
},
{
name = bottom.VAc2;
position = "{427, -50}";
},
{
name = bottom.virama;
position = "{355, -57}";
},
{
name = top;
position = "{470, 670}";
},
{
name = top.addak;
position = "{305, 670}";
},
{
name = top.bindi;
position = "{305, 670}";
},
{
name = top.tippi;
position = "{305, 670}";
}
);
background = {
paths = (
{
closed = 1;
nodes = (
"630 558 LINE",
"630 670 LINE",
"-20 670 LINE",
"-20 558 LINE"
);
},
{
closed = 1;
nodes = (
"70 484 OFFCURVE",
"138 387 OFFCURVE",
"258 306 CURVE",
"352 306 LINE",
"466 387 OFFCURVE",
"540 484 OFFCURVE",
"540 630 CURVE",
"400 630 LINE",
"400 518 OFFCURVE",
"383 471 OFFCURVE",
"305 416 CURVE",
"225 471 OFFCURVE",
"210 518 OFFCURVE",
"210 630 CURVE",
"70 630 LINE"
);
},
{
closed = 1;
nodes = (
"102 94 LINE",
"151 77 OFFCURVE",
"218 60 OFFCURVE",
"297 60 CURVE SMOOTH",
"455 60 OFFCURVE",
"540 118 OFFCURVE",
"540 238 CURVE SMOOTH",
"540 355 OFFCURVE",
"410 416 OFFCURVE",
"293 416 CURVE SMOOTH",
"193 416 OFFCURVE",
"138 402 OFFCURVE",
"92 384 CURVE",
"92 272 LINE",
"137 284 OFFCURVE",
"196 298 OFFCURVE",
"283 298 CURVE SMOOTH",
"362 298 OFFCURVE",
"398 270 OFFCURVE",
"398 238 CURVE SMOOTH",
"398 205 OFFCURVE",
"370 178 OFFCURVE",
"290 178 CURVE SMOOTH",
"219 178 OFFCURVE",
"158 191 OFFCURVE",
"102 210 CURVE"
);
},
{
closed = 1;
nodes = (
"441 -70 LINE",
"189 166 LINE",
"102 94 LINE",
"281 -70 LINE"
);
}
);
};
layerId = "EDB6D985-9BDA-48FF-B1DC-CE6E1D224CE4";
name = Bold;
paths = (
{
closed = 1;
nodes = (
"630 558 LINE",
"630 670 LINE",
"-20 670 LINE",
"-20 558 LINE"
);
},
{
closed = 1;
nodes = (
"65 484 OFFCURVE",
"133 387 OFFCURVE",
"253 306 CURVE",
"347 306 LINE",
"461 387 OFFCURVE",
"535 484 OFFCURVE",
"535 630 CURVE",
"395 630 LINE",
"395 518 OFFCURVE",
"378 471 OFFCURVE",
"300 416 CURVE",
"220 471 OFFCURVE",
"205 518 OFFCURVE",
"205 630 CURVE",
"65 630 LINE"
);
},
{
closed = 1;
nodes = (
"102 94 LINE",
"151 77 OFFCURVE",
"218 60 OFFCURVE",
"297 60 CURVE SMOOTH",
"455 60 OFFCURVE",
"540 118 OFFCURVE",
"540 238 CURVE SMOOTH",
"540 355 OFFCURVE",
"410 416 OFFCURVE",
"293 416 CURVE SMOOTH",
"193 416 OFFCURVE",
"138 402 OFFCURVE",
"92 384 CURVE",
"92 272 LINE",
"137 284 OFFCURVE",
"196 298 OFFCURVE",
"283 298 CURVE SMOOTH",
"362 298 OFFCURVE",
"398 270 OFFCURVE",
"398 238 CURVE SMOOTH",
"398 205 OFFCURVE",
"370 178 OFFCURVE",
"290 178 CURVE SMOOTH",
"219 178 OFFCURVE",
"158 191 OFFCURVE",
"102 210 CURVE"
);
},
{
closed = 1;
nodes = (
"427 -57 LINE",
"189 166 LINE",
"102 94 LINE",
"267 -57 LINE"
);
}
);
width = 610;
},
{
anchors = (
{
name = bottom;
position = "{258, -114}";
},
{
name = bottom.HAc2;
position = "{320, -137}";
},
{
name = bottom.VAc2;
position = "{361, -116}";
},
{
name = bottom.virama;
position = "{344, -114}";
},
{
name = top;
position = "{413, 635}";
},
{
name = top.addak;
position = "{249, 635}";
},
{
name = top.bindi;
position = "{249, 635}";
},
{
name = top.tippi;
position = "{249, 635}";
}
);
associatedMasterId = "8D1DA624-BCA2-432D-8EAC-BD2525041625";
layerId = "238D23B6-6102-4755-B06C-19645D9DE5A2";
name = "Light Jun 27 15, 14:42";
paths = (
{
closed = 1;
nodes = (
"548 580 LINE",
"548 635 LINE",
"-20 635 LINE",
"-20 580 LINE"
);
},
{
closed = 1;
nodes = (
"52 447 OFFCURVE",
"108 365 OFFCURVE",
"218 294 CURVE",
"280 294 LINE",
"390 365 OFFCURVE",
"446 447 OFFCURVE",
"446 602 CURVE",
"386 602 LINE",
"386 484 OFFCURVE",
"356 413 OFFCURVE",
"249 348 CURVE",
"140 413 OFFCURVE",
"112 484 OFFCURVE",
"112 600 CURVE",
"52 600 LINE"
);
},
{
closed = 1;
nodes = (
"73 49 LINE",
"104 32 OFFCURVE",
"174 5 OFFCURVE",
"258 5 CURVE SMOOTH",
"402 5 OFFCURVE",
"468 71 OFFCURVE",
"468 173 CURVE SMOOTH",
"468 275 OFFCURVE",
"382 345 OFFCURVE",
"249 345 CURVE SMOOTH",
"175 345 OFFCURVE",
"120 338 OFFCURVE",
"66 321 CURVE",
"66 264 LINE",
"116 279 OFFCURVE",
"170 288 OFFCURVE",
"240 288 CURVE SMOOTH",
"337 288 OFFCURVE",
"406 253 OFFCURVE",
"406 176 CURVE SMOOTH",
"406 99 OFFCURVE",
"353 62 OFFCURVE",
"258 62 CURVE SMOOTH",
"180 62 OFFCURVE",
"124 78 OFFCURVE",
"73 102 CURVE"
);
},
{
closed = 1;
nodes = (
"361 -114 LINE",
"120 80 LINE",
"73 49 LINE",
"271 -114 LINE"
);
}
);
width = 528;
},
{
anchors = (
{
name = bottom;
position = "{305, -70}";
},
{
name = bottom.HAc2;
position = "{371, -103}";
},
{
name = bottom.VAc2;
position = "{441, -63}";
},
{
name = bottom.virama;
position = "{361, -70}";
},
{
name = top;
position = "{470, 670}";
},
{
name = top.addak;
position = "{305, 670}";
},
{
name = top.bindi;
position = "{305, 670}";
},
{
name = top.tippi;
position = "{305, 670}";
}
);
associatedMasterId = "EDB6D985-9BDA-48FF-B1DC-CE6E1D224CE4";
background = {
paths = (
{
closed = 1;
nodes = (
"630 558 LINE",
"630 670 LINE",
"-20 670 LINE",
"-20 558 LINE"
);
},
{
closed = 1;
nodes = (
"70 487 OFFCURVE",
"123 379 OFFCURVE",
"250 269 CURVE",
"364 269 LINE",
"478 360 OFFCURVE",
"540 487 OFFCURVE",
"540 629 CURVE",
"400 629 LINE",
"400 521 OFFCURVE",
"383 446 OFFCURVE",
"305 379 CURVE",
"225 446 OFFCURVE",
"210 521 OFFCURVE",
"210 629 CURVE",
"70 629 LINE"
);
},
{
closed = 1;
nodes = (
"102 44 LINE",
"151 27 OFFCURVE",
"218 10 OFFCURVE",
"297 10 CURVE SMOOTH",
"455 10 OFFCURVE",
"540 71 OFFCURVE",
"540 191 CURVE SMOOTH",
"540 314 OFFCURVE",
"410 379 OFFCURVE",
"293 379 CURVE SMOOTH",
"193 379 OFFCURVE",
"138 365 OFFCURVE",
"92 347 CURVE",
"92 231 LINE",
"137 247 OFFCURVE",
"196 261 OFFCURVE",
"283 261 CURVE SMOOTH",
"362 261 OFFCURVE",
"398 233 OFFCURVE",
"398 195 CURVE SMOOTH",
"398 157 OFFCURVE",
"370 128 OFFCURVE",
"290 128 CURVE SMOOTH",
"219 128 OFFCURVE",
"158 141 OFFCURVE",
"102 160 CURVE"
);
},
{
closed = 1;
nodes = (
"441 -120 LINE",
"189 116 LINE",
"102 44 LINE",
"281 -120 LINE"
);
}
);
};
layerId = "F8ABC3A7-0DCA-483F-BD4F-3853FB98022F";
name = "Bold Jun 27 15, 14:41 Jun 27 15, 17:24";
paths = (
{
closed = 1;
nodes = (
"630 558 LINE",
"630 670 LINE",
"-20 670 LINE",
"-20 558 LINE"
);
},
{
closed = 1;
nodes = (
"70 504 OFFCURVE",
"123 416 OFFCURVE",
"250 306 CURVE",
"364 306 LINE",
"478 397 OFFCURVE",
"540 504 OFFCURVE",
"540 630 CURVE",
"400 630 LINE",
"400 538 OFFCURVE",
"383 483 OFFCURVE",
"305 416 CURVE",
"225 483 OFFCURVE",
"210 538 OFFCURVE",
"210 630 CURVE",
"70 630 LINE"
);
},
{
closed = 1;
nodes = (
"102 94 LINE",
"151 77 OFFCURVE",
"218 60 OFFCURVE",
"297 60 CURVE SMOOTH",
"455 60 OFFCURVE",
"540 118 OFFCURVE",
"540 238 CURVE SMOOTH",
"540 355 OFFCURVE",
"410 416 OFFCURVE",
"293 416 CURVE SMOOTH",
"193 416 OFFCURVE",
"138 402 OFFCURVE",
"92 384 CURVE",
"92 272 LINE",
"137 284 OFFCURVE",
"196 298 OFFCURVE",
"283 298 CURVE SMOOTH",
"362 298 OFFCURVE",
"398 270 OFFCURVE",
"398 238 CURVE SMOOTH",
"398 205 OFFCURVE",
"370 178 OFFCURVE",
"290 178 CURVE SMOOTH",
"219 178 OFFCURVE",
"158 191 OFFCURVE",
"102 210 CURVE"
);
},
{
closed = 1;
nodes = (
"441 -70 LINE",
"189 166 LINE",
"102 94 LINE",
"281 -70 LINE"
);
}
);
width = 610;
}
);
unicode = 0A1D;
},
{
glyphname = grNYA;
lastChange = "2015-07-03 10:47:14 +0000";
layers = (
{
anchors = (
{
name = bottom;
position = "{308, -5}";
},
{
name = bottom.HAc2;
position = "{424, 0}";
},
{
name = bottom.VAc2;
position = "{455, -20}";
},
{
name = bottom.virama;
position = "{335, -5}";
},
{
name = top;
position = "{434, 635}";
},
{
name = top.addak;
position = "{434, 635}";
},
{
name = top.bindi;
position = "{434, 635}";
},
{
name = top.tippi;
position = "{434, 635}";
}
);
layerId = "8D1DA624-BCA2-432D-8EAC-BD2525041625";
name = Light;
paths = (
{
closed = 1;
nodes = (
"465 580 LINE",
"585 580 LINE",
"585 635 LINE",
"-20 635 LINE",
"-20 580 LINE",
"403 580 LINE",
"403 430 LINE",
"261 430 LINE SMOOTH",
"134 430 OFFCURVE",
"80 375 OFFCURVE",
"80 305 CURVE SMOOTH",
"80 236 OFFCURVE",
"135 180 OFFCURVE",
"262 180 CURVE SMOOTH",
"455 180 LINE",
"455 235 LINE",
"284 235 LINE SMOOTH",
"181 235 OFFCURVE",
"144 255 OFFCURVE",
"144 305 CURVE SMOOTH",
"144 355 OFFCURVE",
"177 375 OFFCURVE",
"273 375 CURVE SMOOTH",
"465 375 LINE"
);
},
{
closed = 1;
nodes = (
"455 50 LINE",
"335 50 LINE SMOOTH",
"252 50 OFFCURVE",
"223 78 OFFCURVE",
"223 120 CURVE SMOOTH",
"223 162 OFFCURVE",
"258 179 OFFCURVE",
"307 180 CURVE",
"307 232 LINE",
"223 232 OFFCURVE",
"159 191 OFFCURVE",
"159 120 CURVE SMOOTH",
"159 44 OFFCURVE",
"217 -5 OFFCURVE",
"335 -5 CURVE SMOOTH",
"455 -5 LINE"
);
},
{
closed = 1;
nodes = (
"90 517 LINE SMOOTH",
"90 422 OFFCURVE",
"177 375 OFFCURVE",
"256 375 CURVE",
"256 430 LINE",
"183 430 OFFCURVE",
"152 465 OFFCURVE",
"152 516 CURVE SMOOTH",
"152 589 LINE",
"90 589 LINE"
);
}
);
width = 565;
},
{
anchors = (
{
name = bottom;
position = "{315, -42}";
},
{
name = bottom.HAc2;
position = "{424, -32}";
},
{
name = bottom.VAc2;
position = "{494, -33}";
},
{
name = bottom.virama;
position = "{378, -42}";
},
{
name = top;
position = "{434, 670}";
},
{
name = top.addak;
position = "{434, 670}";
},
{
name = top.bindi;
position = "{434, 670}";
},
{
name = top.tippi;
position = "{434, 670}";
}
);
guideLines = (
{
angle = 90;
position = "{442, -1}";
showMeasurement = 1;
}
);
layerId = "EDB6D985-9BDA-48FF-B1DC-CE6E1D224CE4";
name = Bold;
paths = (
{
closed = 1;
nodes = (
"504 558 LINE",
"604 558 LINE",
"604 670 LINE",
"-20 670 LINE",
"-20 558 LINE",
"364 558 LINE",
"364 466 LINE",
"255 466 LINE SMOOTH",
"143 466 OFFCURVE",
"65 406 OFFCURVE",
"65 307 CURVE SMOOTH",
"65 207 OFFCURVE",
"147 156 OFFCURVE",
"323 156 CURVE SMOOTH",
"494 156 LINE",
"494 266 LINE",
"327 266 LINE SMOOTH",
"249 266 OFFCURVE",
"208 270 OFFCURVE",
"208 312 CURVE SMOOTH",
"208 354 OFFCURVE",
"245 356 OFFCURVE",
"313 356 CURVE SMOOTH",
"504 356 LINE"
);
},
{
closed = 1;
nodes = (
"494 68 LINE",
"386 68 LINE SMOOTH",
"312 68 OFFCURVE",
"301 88 OFFCURVE",
"301 112 CURVE SMOOTH",
"301 141 OFFCURVE",
"322 156 OFFCURVE",
"387 156 CURVE",
"387 251 LINE",
"248 251 OFFCURVE",
"160 205 OFFCURVE",
"160 112 CURVE SMOOTH",
"160 18 OFFCURVE",
"226 -42 OFFCURVE",
"386 -42 CURVE SMOOTH",
"494 -42 LINE"
);
},
{
closed = 1;
nodes = (
"66 516 LINE",
"66 415 OFFCURVE",
"174 356 OFFCURVE",
"260 356 CURVE",
"261 466 LINE",
"235 466 OFFCURVE",
"206 489 OFFCURVE",
"206 521 CURVE",
"206 590 LINE",
"66 590 LINE"
);
}
);
width = 584;
},
{
anchors = (
{
name = bottom;
position = "{317, -110}";
},
{
name = bottom.HAc2;
position = "{434, -110}";
},
{
name = bottom.VAc2;
position = "{504, -128}";
},
{
name = bottom.virama;
position = "{378, -110}";
},
{
name = top;
position = "{444, 670}";
},
{
name = top.addak;
position = "{444, 670}";
},
{
name = top.bindi;
position = "{444, 670}";
},
{
name = top.tippi;
position = "{444, 670}";
}
);
associatedMasterId = "EDB6D985-9BDA-48FF-B1DC-CE6E1D224CE4";
layerId = "39AC3425-9092-439C-BFF3-1C2202F3787E";
name = "Bold Jun 27 15, 17:30";
paths = (
{
closed = 1;
nodes = (
"514 558 LINE",
"614 558 LINE",
"614 670 LINE",
"-20 670 LINE",
"-20 558 LINE",
"374 558 LINE",
"374 430 LINE",
"265 430 LINE SMOOTH",
"153 430 OFFCURVE",
"65 363 OFFCURVE",
"65 263 CURVE SMOOTH",
"65 163 OFFCURVE",
"147 106 OFFCURVE",
"323 106 CURVE SMOOTH",
"504 106 LINE",
"504 216 LINE",
"327 216 LINE SMOOTH",
"249 216 OFFCURVE",
"208 226 OFFCURVE",
"208 268 CURVE SMOOTH",
"208 310 OFFCURVE",
"245 318 OFFCURVE",
"313 318 CURVE SMOOTH",
"514 318 LINE"
);
},
{
closed = 1;
nodes = (
"504 8 LINE",
"376 8 LINE SMOOTH",
"302 8 OFFCURVE",
"281 28 OFFCURVE",
"281 57 CURVE SMOOTH",
"281 86 OFFCURVE",
"302 106 OFFCURVE",
"367 106 CURVE",
"367 201 LINE",
"228 201 OFFCURVE",
"140 150 OFFCURVE",
"140 57 CURVE SMOOTH",
"140 -42 OFFCURVE",
"216 -110 OFFCURVE",
"376 -110 CURVE SMOOTH",
"504 -110 LINE"
);
},
{
closed = 1;
nodes = (
"66 480 LINE",
"66 379 OFFCURVE",
"174 318 OFFCURVE",
"260 318 CURVE",
"261 430 LINE",
"235 430 OFFCURVE",
"206 453 OFFCURVE",
"206 485 CURVE",
"206 590 LINE",
"66 590 LINE"
);
}
);
width = 594;
}
);
unicode = 0A1E;
},
{
glyphname = grTTA;
lastChange = "2015-07-03 10:47:14 +0000";
layers = (
{
anchors = (
{
name = bottom;
position = "{282, 0}";
},
{
name = bottom.HAc2;
position = "{423, 0}";
},
{
name = bottom.VAc2;
position = "{454, 0}";
},
{
name = bottom.virama;
position = "{282, 0}";
},
{
name = top;
position = "{383, 635}";
},
{
name = top.addak;
position = "{383, 635}";
},
{
name = top.bindi;
position = "{383, 635}";
},
{
name = top.tippi;
position = "{383, 635}";
}
);
guideLines = (
{
angle = 90;
position = "{308, 32}";
showMeasurement = 1;
}
);
layerId = "8D1DA624-BCA2-432D-8EAC-BD2525041625";
name = Light;
paths = (
{
closed = 1;
nodes = (
"414 580 LINE",
"534 580 LINE",
"534 635 LINE",
"-20 635 LINE",
"-20 580 LINE",
"352 580 LINE",
"352 436 LINE",
"274 436 LINE SMOOTH",
"133 436 OFFCURVE",
"45 360 OFFCURVE",
"45 228 CURVE SMOOTH",
"45 96 OFFCURVE",
"144 0 OFFCURVE",
"307 0 CURVE SMOOTH",
"370 0 OFFCURVE",
"426 16 OFFCURVE",
"454 31 CURVE",
"454 93 LINE",
"423 74 OFFCURVE",
"365 57 OFFCURVE",
"308 57 CURVE SMOOTH",
"189 57 OFFCURVE",
"109 128 OFFCURVE",
"109 228 CURVE SMOOTH",
"109 328 OFFCURVE",
"178 379 OFFCURVE",
"295 379 CURVE SMOOTH",
"414 379 LINE"
);
}
);
width = 514;
},
{
anchors = (
{
name = bottom;
position = "{300, -6}";
},
{
name = bottom.HAc2;
position = "{420, -12}";
},
{
name = bottom.VAc2;
position = "{490, -12}";
},
{
name = bottom.virama;
position = "{300, -6}";
},
{
name = top;
position = "{394, 670}";
},
{
name = top.addak;
position = "{394, 670}";
},
{
name = top.bindi;
position = "{394, 670}";
},
{
name = top.tippi;
position = "{394, 670}";
}
);
layerId = "EDB6D985-9BDA-48FF-B1DC-CE6E1D224CE4";
name = Bold;
paths = (
{
closed = 1;
nodes = (
"464 558 LINE",
"564 558 LINE",
"564 670 LINE",
"-20 670 LINE",
"-20 558 LINE",
"324 558 LINE",
"324 470 LINE",
"259 470 LINE SMOOTH",
"112 470 OFFCURVE",
"35 371 OFFCURVE",
"35 246 CURVE SMOOTH",
"35 98 OFFCURVE",
"146 -6 OFFCURVE",
"333 -6 CURVE SMOOTH",
"395 -6 OFFCURVE",
"449 7 OFFCURVE",
"490 25 CURVE",
"490 152 LINE",
"455 133 OFFCURVE",
"412 115 OFFCURVE",
"340 115 CURVE SMOOTH",
"242 115 OFFCURVE",
"178 160 OFFCURVE",
"178 241 CURVE SMOOTH",
"178 320 OFFCURVE",
"227 358 OFFCURVE",
"310 358 CURVE SMOOTH",
"464 358 LINE"
);
}
);
width = 544;
},
{
anchors = (
{
name = bottom;
position = "{272, 35}";
},
{
name = bottom.HAc2;
position = "{413, 0}";
},
{
name = bottom.VAc2;
position = "{444, 0}";
},
{
name = bottom.virama;
position = "{272, 35}";
},
{
name = top;
position = "{373, 635}";
},
{
name = top.addak;
position = "{373, 635}";
},
{
name = top.bindi;
position = "{373, 635}";
},
{
name = top.tippi;
position = "{373, 635}";
}
);
associatedMasterId = "8D1DA624-BCA2-432D-8EAC-BD2525041625";
guideLines = (
{
angle = 90;
position = "{297, 32}";
showMeasurement = 1;
}
);
layerId = "6D51616B-323F-418E-BC6C-379F718F9578";
name = "Light Jun 27 15, 14:52";
paths = (
{
closed = 1;
nodes = (
"404 580 LINE",
"524 580 LINE",
"524 635 LINE",
"-20 635 LINE",
"-20 580 LINE",
"342 580 LINE",
"342 456 LINE",
"255 456 LINE SMOOTH",
"124 456 OFFCURVE",
"40 371 OFFCURVE",
"40 253 CURVE SMOOTH",
"40 126 OFFCURVE",
"141 35 OFFCURVE",
"297 35 CURVE SMOOTH",
"360 35 OFFCURVE",
"416 51 OFFCURVE",
"444 66 CURVE",
"444 126 LINE",
"413 107 OFFCURVE",
"355 90 OFFCURVE",
"298 90 CURVE SMOOTH",
"175 90 OFFCURVE",
"104 158 OFFCURVE",
"104 253 CURVE SMOOTH",
"104 351 OFFCURVE",
"169 401 OFFCURVE",
"276 401 CURVE SMOOTH",
"404 401 LINE"
);
}
);
width = 504;
},
{
anchors = (
{
name = bottom;
position = "{290, 13}";
},
{
name = bottom.HAc2;
position = "{420, -12}";
},
{
name = bottom.VAc2;
position = "{490, -12}";
},
{
name = bottom.virama;
position = "{288, 13}";
},
{
name = top;
position = "{394, 670}";
},
{
name = top.addak;
position = "{394, 670}";
},
{
name = top.bindi;
position = "{394, 670}";
},
{
name = top.tippi;
position = "{394, 670}";
}
);
associatedMasterId = "EDB6D985-9BDA-48FF-B1DC-CE6E1D224CE4";
layerId = "BD1D8D06-19E0-482E-9383-D21442375F01";
name = "Bold Jun 27 15, 17:37";
paths = (
{
closed = 1;
nodes = (
"464 558 LINE",
"564 558 LINE",
"564 670 LINE",
"-20 670 LINE",
"-20 558 LINE",
"324 558 LINE",
"324 475 LINE",
"254 475 LINE SMOOTH",
"117 475 OFFCURVE",
"35 373 OFFCURVE",
"35 258 CURVE SMOOTH",
"35 115 OFFCURVE",
"146 13 OFFCURVE",
"328 13 CURVE SMOOTH",
"390 13 OFFCURVE",
"449 26 OFFCURVE",
"490 44 CURVE",
"490 171 LINE",
"455 152 OFFCURVE",
"407 134 OFFCURVE",
"335 134 CURVE SMOOTH",
"242 134 OFFCURVE",
"178 177 OFFCURVE",
"178 253 CURVE SMOOTH",
"178 322 OFFCURVE",
"222 363 OFFCURVE",
"305 363 CURVE SMOOTH",
"464 363 LINE"
);
}
);
width = 544;
}
);
unicode = 0A1F;
},
{
glyphname = grTTHA;
lastChange = "2015-07-03 10:47:14 +0000";
layers = (
{
anchors = (
{
name = bottom;
position = "{280, 0}";
},
{
name = bottom.HAc2;
position = "{360, 0}";
},
{
name = bottom.VAc2;
position = "{374, 0}";
},
{
name = bottom.virama;
position = "{280, 0}";
},
{
name = top;
position = "{280, 635}";
},
{
name = top.addak;
position = "{280, 635}";
},
{
name = top.bindi;
position = "{280, 635}";
},
{
name = top.tippi;
position = "{280, 635}";
}
);
guideLines = (
{
position = "{243, 381}";
}
);
layerId = "8D1DA624-BCA2-432D-8EAC-BD2525041625";
name = Light;
paths = (
{
closed = 1;
nodes = (
"446 122 OFFCURVE",
"385 57 OFFCURVE",
"280 57 CURVE SMOOTH",
"175 57 OFFCURVE",
"114 122 OFFCURVE",
"114 224 CURVE SMOOTH",
"114 334 OFFCURVE",
"204 379 OFFCURVE",
"280 379 CURVE SMOOTH",
"356 379 OFFCURVE",
"446 334 OFFCURVE",
"446 224 CURVE SMOOTH"
);
},
{
closed = 1;
nodes = (
"580 580 LINE",
"580 635 LINE",
"-20 635 LINE",
"-20 580 LINE",
"249 580 LINE",
"249 436 LINE",
"143 421 OFFCURVE",
"50 353 OFFCURVE",
"50 224 CURVE SMOOTH",
"50 89 OFFCURVE",
"140 0 OFFCURVE",
"280 0 CURVE SMOOTH",
"420 0 OFFCURVE",
"510 89 OFFCURVE",
"510 224 CURVE SMOOTH",
"510 353 OFFCURVE",
"417 421 OFFCURVE",
"311 436 CURVE",
"311 580 LINE"
);
}
);
width = 560;
},
{
anchors = (
{
name = bottom;
position = "{311, -6}";
},
{
name = bottom.HAc2;
position = "{401, -12}";
},
{
name = bottom.VAc2;
position = "{411, -12}";
},
{
name = bottom.virama;
position = "{311, -6}";
},
{
name = top;
position = "{308, 670}";
},
{
name = top.addak;
position = "{308, 670}";
},
{
name = top.bindi;
position = "{308, 670}";
},
{
name = top.tippi;
position = "{308, 670}";
}
);
guideLines = (
{
position = "{246, 359}";
}
);
layerId = "EDB6D985-9BDA-48FF-B1DC-CE6E1D224CE4";
name = Bold;
paths = (
{
closed = 1;
nodes = (
"441 148 OFFCURVE",
"385 106 OFFCURVE",
"311 106 CURVE SMOOTH",
"242 106 OFFCURVE",
"175 146 OFFCURVE",
"175 238 CURVE SMOOTH",
"175 337 OFFCURVE",
"243 368 OFFCURVE",
"308 368 CURVE SMOOTH",
"381 367 OFFCURVE",
"441 332 OFFCURVE",
"441 237 CURVE SMOOTH"
);
},
{
closed = 1;
nodes = (
"636 558 LINE",
"636 670 LINE",
"-20 670 LINE",
"-20 558 LINE",
"238 558 LINE",
"238 481 LINE",
"140 461 OFFCURVE",
"35 389 OFFCURVE",
"35 239 CURVE SMOOTH",
"35 81 OFFCURVE",
"156 -6 OFFCURVE",
"311 -6 CURVE SMOOTH",
"472 -6 OFFCURVE",
"581 90 OFFCURVE",
"581 237 CURVE SMOOTH",
"581 378 OFFCURVE",
"477 461 OFFCURVE",
"378 480 CURVE",
"378 558 LINE"
);
}
);
width = 616;
},
{
anchors = (
{
name = bottom;
position = "{270, 37}";
},
{
name = bottom.HAc2;
position = "{350, 12}";
},
{
name = bottom.VAc2;
position = "{364, 12}";
},
{
name = bottom.virama;
position = "{270, 37}";
},
{
name = top;
position = "{270, 635}";
},
{
name = top.addak;
position = "{270, 635}";
},
{
name = top.bindi;
position = "{270, 635}";
},
{
name = top.tippi;
position = "{270, 635}";
}
);
associatedMasterId = "8D1DA624-BCA2-432D-8EAC-BD2525041625";
layerId = "2EB20284-65A2-40D1-BFCD-4689AB944109";
name = "Light Jun 27 15, 15:00";
paths = (
{
closed = 1;
nodes = (
"426 150 OFFCURVE",
"373 90 OFFCURVE",
"270 90 CURVE SMOOTH",
"167 90 OFFCURVE",
"114 150 OFFCURVE",
"114 247 CURVE SMOOTH",
"114 349 OFFCURVE",
"194 392 OFFCURVE",
"270 392 CURVE SMOOTH",
"346 392 OFFCURVE",
"426 349 OFFCURVE",
"426 246 CURVE SMOOTH"
);
},
{
closed = 1;
nodes = (
"561 580 LINE",
"561 635 LINE",
"-20 635 LINE",
"-20 580 LINE",
"239 580 LINE",
"239 445 LINE",
"135 431 OFFCURVE",
"50 366 OFFCURVE",
"50 247 CURVE SMOOTH",
"50 120 OFFCURVE",
"134 37 OFFCURVE",
"270 37 CURVE SMOOTH",
"406 37 OFFCURVE",
"490 119 OFFCURVE",
"490 246 CURVE SMOOTH",
"490 366 OFFCURVE",
"405 431 OFFCURVE",
"301 445 CURVE",
"301 580 LINE"
);
}
);
width = 541;
},
{
anchors = (
{
name = bottom;
position = "{301, 13}";
},
{
name = bottom.HAc2;
position = "{391, -12}";
},
{
name = bottom.VAc2;
position = "{401, -12}";
},
{
name = bottom.virama;
position = "{301, 13}";
},
{
name = top;
position = "{298, 670}";
},
{
name = top.addak;
position = "{298, 670}";
},
{
name = top.bindi;
position = "{298, 670}";
},
{
name = top.tippi;
position = "{298, 670}";
}
);
associatedMasterId = "EDB6D985-9BDA-48FF-B1DC-CE6E1D224CE4";
layerId = "8258459E-752D-40B3-A88D-F69596B07F94";
name = "Bold Jun 27 15, 17:40";
paths = (
{
closed = 1;
nodes = (
"419 164 OFFCURVE",
"368 125 OFFCURVE",
"301 125 CURVE SMOOTH",
"238 125 OFFCURVE",
"177 162 OFFCURVE",
"177 248 CURVE SMOOTH",
"177 340 OFFCURVE",
"239 369 OFFCURVE",
"298 369 CURVE SMOOTH",
"365 368 OFFCURVE",
"419 336 OFFCURVE",
"419 247 CURVE SMOOTH"
);
},
{
closed = 1;
nodes = (
"616 558 LINE",
"616 670 LINE",
"-20 670 LINE",
"-20 558 LINE",
"228 558 LINE",
"228 482 LINE",
"133 463 OFFCURVE",
"35 393 OFFCURVE",
"35 249 CURVE SMOOTH",
"35 97 OFFCURVE",
"152 13 OFFCURVE",
"301 13 CURVE SMOOTH",
"456 13 OFFCURVE",
"561 105 OFFCURVE",
"561 247 CURVE SMOOTH",
"561 383 OFFCURVE",
"464 463 OFFCURVE",
"368 481 CURVE",
"368 558 LINE"
);
}
);
width = 596;
visible = 1;
}
);
unicode = 0A20;
},
{
glyphname = grDDA;
lastChange = "2015-07-03 10:47:14 +0000";
layers = (
{
anchors = (
{
name = bottom;
position = "{248, -4}";
},
{
name = bottom.HAc2;
position = "{244, -2}";
},
{
name = bottom.VAc2;
position = "{332, -18}";
},
{
name = bottom.virama;
position = "{244, -4}";
},
{
name = top;
position = "{340, 635}";
},
{
name = top.addak;
position = "{340, 635}";
},
{
name = top.bindi;
position = "{340, 635}";
},
{
name = top.tippi;
position = "{340, 635}";
}
);
layerId = "8D1DA624-BCA2-432D-8EAC-BD2525041625";
name = Light;
paths = (
{
closed = 1;
nodes = (
"535 635 LINE",
"-20 635 LINE",
"-20 580 LINE",
"535 580 LINE"
);
},
{
closed = 1;
nodes = (
"315 580 LINE",
"343 561 OFFCURVE",
"368 528 OFFCURVE",
"368 482 CURVE SMOOTH",
"368 433 OFFCURVE",
"343 380 OFFCURVE",
"246 380 CURVE SMOOTH",
"166 380 LINE",
"166 346 LINE",
"327 343 LINE",
"386 361 OFFCURVE",
"432 414 OFFCURVE",
"432 482 CURVE SMOOTH",
"432 537 OFFCURVE",
"401 567 OFFCURVE",
"385 580 CURVE"
);
},
{
closed = 1;
nodes = (
"166 351 LINE",
"166 325 LINE",
"243 325 LINE SMOOTH",
"342 325 OFFCURVE",
"401 276 OFFCURVE",
"401 188 CURVE SMOOTH",
"401 92 OFFCURVE",
"331 53 OFFCURVE",
"225 53 CURVE SMOOTH",
"142 53 OFFCURVE",
"84 90 OFFCURVE",
"84 149 CURVE SMOOTH",
"84 192 OFFCURVE",
"113 218 OFFCURVE",
"156 218 CURVE SMOOTH",
"199 218 OFFCURVE",
"233 187 OFFCURVE",
"233 121 CURVE SMOOTH",
"233 90 OFFCURVE",
"223 49 OFFCURVE",
"213 28 CURVE",
"275 28 LINE",
"285 50 OFFCURVE",
"295 91 OFFCURVE",
"295 123 CURVE SMOOTH",
"295 230 OFFCURVE",
"226 275 OFFCURVE",
"156 275 CURVE SMOOTH",
"84 275 OFFCURVE",
"20 226 OFFCURVE",
"20 149 CURVE SMOOTH",
"20 59 OFFCURVE",
"117 -4 OFFCURVE",
"226 -4 CURVE SMOOTH",
"386 -4 OFFCURVE",
"465 77 OFFCURVE",
"465 185 CURVE SMOOTH",
"465 292 OFFCURVE",
"401 343 OFFCURVE",
"328 357 CURVE"
);
}
);
width = 515;
},
{
anchors = (
{
name = bottom;
position = "{262, -35}";
},
{
name = bottom.HAc2;
position = "{275, -14}";
},
{
name = bottom.VAc2;
position = "{372, -55}";
},
{
name = bottom.virama;
position = "{251, -35}";
},
{
name = top;
position = "{381, 670}";
},
{
name = top.addak;
position = "{381, 670}";
},
{
name = top.bindi;
position = "{381, 670}";
},
{
name = top.tippi;
position = "{381, 670}";
}
);
layerId = "EDB6D985-9BDA-48FF-B1DC-CE6E1D224CE4";
name = Bold;
paths = (
{
closed = 1;
nodes = (
"610 670 LINE",
"-20 670 LINE",
"-20 558 LINE",
"610 558 LINE"
);
},
{
closed = 1;
nodes = (
"309 569 LINE",
"340 557 OFFCURVE",
"368 530 OFFCURVE",
"368 488 CURVE SMOOTH",
"368 441 OFFCURVE",
"330 416 OFFCURVE",
"254 416 CURVE SMOOTH",
"207 416 LINE",
"207 349 LINE",
"368 349 LINE",
"456 362 OFFCURVE",
"510 421 OFFCURVE",
"510 483 CURVE SMOOTH",
"510 532 OFFCURVE",
"486 558 OFFCURVE",
"472 569 CURVE"
);
},
{
closed = 1;
nodes = (
"207 364 LINE",
"207 303 LINE",
"268 303 LINE SMOOTH",
"358 303 OFFCURVE",
"403 249 OFFCURVE",
"403 193 CURVE SMOOTH",
"403 128 OFFCURVE",
"362 73 OFFCURVE",
"245 73 CURVE SMOOTH",
"158 73 OFFCURVE",
"124 104 OFFCURVE",
"124 137 CURVE SMOOTH",
"124 162 OFFCURVE",
"142 182 OFFCURVE",
"171 182 CURVE SMOOTH",
"198 182 OFFCURVE",
"220 164 OFFCURVE",
"220 124 CURVE SMOOTH",
"220 100 OFFCURVE",
"214 79 OFFCURVE",
"202 54 CURVE",
"310 54 LINE",
"322 84 OFFCURVE",
"328 110 OFFCURVE",
"328 139 CURVE SMOOTH",
"328 224 OFFCURVE",
"261 282 OFFCURVE",
"171 282 CURVE SMOOTH",
"81 282 OFFCURVE",
"15 226 OFFCURVE",
"15 137 CURVE SMOOTH",
"15 45 OFFCURVE",
"105 -35 OFFCURVE",
"252 -35 CURVE SMOOTH",
"431 -35 OFFCURVE",
"545 59 OFFCURVE",
"545 183 CURVE SMOOTH",
"545 279 OFFCURVE",
"485 344 OFFCURVE",
"378 364 CURVE"
);
}
);
width = 590;
}
);
unicode = 0A21;
},
{
glyphname = grDDHA;
lastChange = "2015-07-03 10:47:14 +0000";
layers = (
{
anchors = (
{
name = bottom;
position = "{309, -11}";
},
{
name = bottom.HAc2;
position = "{444, -21}";
},
{
name = bottom.VAc2;
position = "{475, -20}";
},
{
name = bottom.virama;
position = "{322, -11}";
},
{
name = top;
position = "{437, 635}";
},
{
name = top.addak;
position = "{437, 635}";
},
{
name = top.bindi;
position = "{437, 635}";
},
{
name = top.tippi;
position = "{437, 635}";
}
);
layerId = "8D1DA624-BCA2-432D-8EAC-BD2525041625";
name = Light;
paths = (
{
closed = 1;
nodes = (
"-20 635 LINE",
"-20 580 LINE",
"406 580 LINE",
"406 465 LINE SMOOTH",
"406 401 OFFCURVE",
"399 363 OFFCURVE",
"285 363 CURVE SMOOTH",
"97 363 LINE",
"97 308 LINE",
"301 308 LINE SMOOTH",
"420 308 OFFCURVE",
"468 359 OFFCURVE",
"468 458 CURVE SMOOTH",
"468 580 LINE",
"567 580 LINE",
"567 635 LINE"
);
},
{
closed = 1;
nodes = (
"87 435 LINE",
"67 414 OFFCURVE",
"40 377 OFFCURVE",
"40 353 CURVE SMOOTH",
"40 325 OFFCURVE",
"58 308 OFFCURVE",
"86 308 CURVE SMOOTH",
"151 308 LINE",
"140 435 LINE"
);
},
{
closed = 1;
nodes = (
"97 247 LINE SMOOTH",
"110 112 OFFCURVE",
"200 -11 OFFCURVE",
"332 -11 CURVE SMOOTH",
"419 -11 OFFCURVE",
"486 38 OFFCURVE",
"486 118 CURVE SMOOTH",
"486 198 OFFCURVE",
"409 239 OFFCURVE",
"328 239 CURVE SMOOTH",
"246 239 OFFCURVE",
"175 189 OFFCURVE",
"140 128 CURVE",
"188 95 LINE",
"214 141 OFFCURVE",
"269 182 OFFCURVE",
"328 182 CURVE SMOOTH",
"384 182 OFFCURVE",
"424 157 OFFCURVE",
"424 116 CURVE SMOOTH",
"424 75 OFFCURVE",
"392 46 OFFCURVE",
"332 46 CURVE SMOOTH",
"231 46 OFFCURVE",
"164 145 OFFCURVE",
"155 261 CURVE SMOOTH",
"149 339 LINE",
"88 339 LINE"
);
}
);
width = 547;
},
{
anchors = (
{
name = bottom;
position = "{345, -51}";
},
{
name = bottom.HAc2;
position = "{489, -60}";
},
{
name = bottom.VAc2;
position = "{559, -60}";
},
{
name = bottom.virama;
position = "{346, -51}";
},
{
name = top;
position = "{490, 670}";
},
{
name = top.addak;
position = "{490, 670}";
},
{
name = top.bindi;
position = "{490, 670}";
},
{
name = top.tippi;
position = "{490, 670}";
}
);
layerId = "EDB6D985-9BDA-48FF-B1DC-CE6E1D224CE4";
name = Bold;
paths = (
{
closed = 1;
nodes = (
"-20 670 LINE",
"-20 558 LINE",
"420 558 LINE",
"420 459 LINE SMOOTH",
"420 410 OFFCURVE",
"405 383 OFFCURVE",
"342 383 CURVE SMOOTH",
"122 383 LINE",
"122 282 LINE",
"375 282 LINE SMOOTH",
"510 282 OFFCURVE",
"560 347 OFFCURVE",
"560 461 CURVE SMOOTH",
"560 558 LINE",
"660 558 LINE",
"660 670 LINE"
);
},
{
closed = 1;
nodes = (
"111 460 LINE",
"79 427 OFFCURVE",
"40 388 OFFCURVE",
"40 348 CURVE SMOOTH",
"40 314 OFFCURVE",
"65 282 OFFCURVE",
"103 282 CURVE SMOOTH",
"233 282 LINE",
"215 460 LINE"
);
},
{
closed = 1;
nodes = (
"106 233 LINE SMOOTH",
"121 84 OFFCURVE",
"219 -51 OFFCURVE",
"387 -51 CURVE SMOOTH",
"492 -51 OFFCURVE",
"559 10 OFFCURVE",
"559 92 CURVE SMOOTH",
"559 174 OFFCURVE",
"492 227 OFFCURVE",
"401 227 CURVE SMOOTH",
"336 227 OFFCURVE",
"261 188 OFFCURVE",
"225 102 CURVE",
"317 71 LINE",
"339 111 OFFCURVE",
"369 126 OFFCURVE",
"396 126 CURVE SMOOTH",
"422 126 OFFCURVE",
"439 111 OFFCURVE",
"439 91 CURVE SMOOTH",
"439 70 OFFCURVE",
"423 54 OFFCURVE",
"393 54 CURVE SMOOTH",
"306 54 OFFCURVE",
"249 137 OFFCURVE",
"238 237 CURVE SMOOTH",
"232 292 LINE",
"100 292 LINE"
);
}
);
width = 640;
},
{
anchors = (
{
name = bottom;
position = "{309, -11}";
},
{
name = bottom.HAc2;
position = "{444, -21}";
},
{
name = bottom.VAc2;
position = "{475, -20}";
},
{
name = bottom.virama;
position = "{322, -11}";
},
{
name = top;
position = "{437, 635}";
},
{
name = top.addak;
position = "{437, 635}";
},
{
name = top.bindi;
position = "{437, 635}";
},
{
name = top.tippi;
position = "{437, 635}";
}
);
associatedMasterId = "8D1DA624-BCA2-432D-8EAC-BD2525041625";
layerId = "5747AD53-9387-4BE6-990A-AB8A651C380A";
name = "Light Jun 27 15, 15:08";
paths = (
{
closed = 1;
nodes = (
"-20 635 LINE",
"-20 580 LINE",
"406 580 LINE",
"406 465 LINE SMOOTH",
"406 401 OFFCURVE",
"399 363 OFFCURVE",
"285 363 CURVE SMOOTH",
"97 363 LINE",
"97 308 LINE",
"301 308 LINE SMOOTH",
"420 308 OFFCURVE",
"468 359 OFFCURVE",
"468 458 CURVE SMOOTH",
"468 580 LINE",
"567 580 LINE",
"567 635 LINE"
);
},
{
closed = 1;
nodes = (
"87 435 LINE",
"67 414 OFFCURVE",
"40 377 OFFCURVE",
"40 353 CURVE SMOOTH",
"40 325 OFFCURVE",
"58 308 OFFCURVE",
"86 308 CURVE SMOOTH",
"151 308 LINE",
"140 435 LINE"
);
},
{
closed = 1;
nodes = (
"97 247 LINE SMOOTH",
"110 112 OFFCURVE",
"200 -11 OFFCURVE",
"332 -11 CURVE SMOOTH",
"419 -11 OFFCURVE",
"486 38 OFFCURVE",
"486 118 CURVE SMOOTH",
"486 198 OFFCURVE",
"409 239 OFFCURVE",
"328 239 CURVE SMOOTH",
"246 239 OFFCURVE",
"175 189 OFFCURVE",
"140 128 CURVE",
"188 95 LINE",
"214 141 OFFCURVE",
"269 182 OFFCURVE",
"328 182 CURVE SMOOTH",
"384 182 OFFCURVE",
"424 157 OFFCURVE",
"424 116 CURVE SMOOTH",
"424 75 OFFCURVE",
"392 46 OFFCURVE",
"332 46 CURVE SMOOTH",
"231 46 OFFCURVE",
"164 145 OFFCURVE",
"155 261 CURVE SMOOTH",
"149 339 LINE",
"88 339 LINE"
);
}
);
width = 547;
}
);
unicode = 0A22;
},
{
glyphname = grNNA;
lastChange = "2015-07-03 10:47:14 +0000";
layers = (
{
anchors = (
{
name = bottom;
position = "{300, -10}";
},
{
name = bottom.HAc2;
position = "{344, 0}";
},
{
name = bottom.VAc2;
position = "{375, -26}";
},
{
name = bottom.virama;
position = "{300, -10}";
},
{
name = top;
position = "{341, 635}";
},
{
name = top.addak;
position = "{341, 635}";
},
{
name = top.bindi;
position = "{341, 635}";
},
{
name = top.tippi;
position = "{341, 635}";
}
);
layerId = "8D1DA624-BCA2-432D-8EAC-BD2525041625";
name = Light;
paths = (
{
closed = 1;
nodes = (
"315 433 OFFCURVE",
"253 475 OFFCURVE",
"179 597 CURVE",
"113 593 LINE",
"199 440 OFFCURVE",
"279 381 OFFCURVE",
"465 355 CURVE SMOOTH",
"522 347 LINE",
"522 404 LINE",
"465 412 LINE SMOOTH"
);
},
{
closed = 1;
nodes = (
"310 313 LINE",
"364 273 LINE",
"413 408 LINE",
"352 427 LINE"
);
},
{
closed = 1;
nodes = (
"341 329 LINE",
"172 354 OFFCURVE",
"40 266 OFFCURVE",
"40 184 CURVE SMOOTH",
"40 95 OFFCURVE",
"139 -10 OFFCURVE",
"300 -10 CURVE SMOOTH",
"406 -10 OFFCURVE",
"479 25 OFFCURVE",
"522 53 CURVE",
"522 115 LINE",
"473 81 OFFCURVE",
"406 47 OFFCURVE",
"300 47 CURVE SMOOTH",
"178 47 OFFCURVE",
"104 114 OFFCURVE",
"104 184 CURVE SMOOTH",
"104 248 OFFCURVE",
"223 298 OFFCURVE",
"364 273 CURVE"
);
},
{
closed = 1;
nodes = (
"572 580 LINE",
"572 635 LINE",
"-20 635 LINE",
"-20 580 LINE"
);
}
);
width = 552;
},
{
anchors = (
{
name = bottom;
position = "{308, -24}";
},
{
name = bottom.HAc2;
position = "{354, 0}";
},
{
name = bottom.VAc2;
position = "{424, -46}";
},
{
name = bottom.virama;
position = "{308, -24}";
},
{
name = top;
position = "{350, 670}";
},
{
name = top.addak;
position = "{350, 670}";
},
{
name = top.bindi;
position = "{350, 670}";
},
{
name = top.tippi;
position = "{350, 670}";
}
);
layerId = "EDB6D985-9BDA-48FF-B1DC-CE6E1D224CE4";
name = Bold;
paths = (
{
closed = 1;
nodes = (
"354 448 OFFCURVE",
"265 505 OFFCURVE",
"215 609 CURVE",
"75 599 LINE",
"135 457 OFFCURVE",
"247 354 OFFCURVE",
"484 318 CURVE SMOOTH",
"524 312 LINE",
"524 427 LINE",
"484 432 LINE SMOOTH"
);
},
{
closed = 1;
nodes = (
"252 308 LINE",
"378 233 LINE",
"431 394 LINE",
"310 434 LINE"
);
},
{
closed = 1;
nodes = (
"340 347 LINE",
"180 370 OFFCURVE",
"25 285 OFFCURVE",
"25 195 CURVE SMOOTH",
"25 96 OFFCURVE",
"127 -24 OFFCURVE",
"308 -24 CURVE SMOOTH",
"422 -24 OFFCURVE",
"484 2 OFFCURVE",
"524 29 CURVE",
"524 150 LINE",
"474 119 OFFCURVE",
"408 94 OFFCURVE",
"314 94 CURVE SMOOTH",
"218 94 OFFCURVE",
"168 144 OFFCURVE",
"167 181 CURVE SMOOTH",
"166 220 OFFCURVE",
"263 258 OFFCURVE",
"378 233 CURVE"
);
},
{
closed = 1;
nodes = (
"559 558 LINE",
"559 670 LINE",
"-20 670 LINE",
"-20 558 LINE"
);
}
);
width = 539;
}
);
unicode = 0A23;
},
{
glyphname = grTA;
lastChange = "2015-07-03 10:47:14 +0000";
layers = (
{
anchors = (
{
name = bottom;
position = "{211, -5}";
},
{
name = bottom.HAc2;
position = "{266, 5}";
},
{
name = bottom.VAc2;
position = "{316, -30}";
},
{
name = bottom.virama;
position = "{211, -5}";
},
{
name = top;
position = "{301, 635}";
},
{
name = top.addak;
position = "{301, 635}";
},
{
name = top.bindi;
position = "{302, 635}";
},
{
name = top.tippi;
position = "{301, 635}";
}
);
layerId = "8D1DA624-BCA2-432D-8EAC-BD2525041625";
name = Light;
paths = (
{
closed = 1;
nodes = (
"499 635 LINE",
"-20 635 LINE",
"-20 580 LINE",
"499 580 LINE"
);
},
{
closed = 1;
nodes = (
"275 586 LINE",
"307 567 OFFCURVE",
"334 534 OFFCURVE",
"334 479 CURVE SMOOTH",
"334 422 OFFCURVE",
"305 366 OFFCURVE",
"211 366 CURVE SMOOTH",
"121 366 LINE",
"121 334 LINE",
"289 331 LINE",
"348 349 OFFCURVE",
"396 408 OFFCURVE",
"396 480 CURVE SMOOTH",
"396 542 OFFCURVE",
"365 571 OFFCURVE",
"347 586 CURVE"
);
},
{
closed = 1;
nodes = (
"121 343 LINE",
"121 311 LINE",
"208 311 LINE SMOOTH",
"307 311 OFFCURVE",
"367 267 OFFCURVE",
"367 182 CURVE SMOOTH",
"367 91 OFFCURVE",
"297 52 OFFCURVE",
"210 52 CURVE SMOOTH",
"124 52 OFFCURVE",
"57 78 OFFCURVE",
"0 108 CURVE",
"0 46 LINE",
"61 16 OFFCURVE",
"126 -5 OFFCURVE",
"211 -5 CURVE SMOOTH",
"352 -5 OFFCURVE",
"429 76 OFFCURVE",
"429 179 CURVE SMOOTH",
"429 281 OFFCURVE",
"362 331 OFFCURVE",
"289 345 CURVE"
);
}
);
width = 479;
},
{
anchors = (
{
name = bottom;
position = "{226, -10}";
},
{
name = bottom.HAc2;
position = "{273, 15}";
},
{
name = bottom.VAc2;
position = "{358, -30}";
},
{
name = bottom.virama;
position = "{226, -10}";
},
{
name = top;
position = "{315, 670}";
},
{
name = top.addak;
position = "{315, 670}";
},
{
name = top.bindi;
position = "{315, 670}";
},
{
name = top.tippi;
position = "{315, 670}";
}
);
layerId = "EDB6D985-9BDA-48FF-B1DC-CE6E1D224CE4";
name = Bold;
paths = (
{
closed = 1;
nodes = (
"554 670 LINE",
"-20 670 LINE",
"-20 558 LINE",
"554 558 LINE"
);
},
{
closed = 1;
nodes = (
"253 559 LINE",
"284 547 OFFCURVE",
"312 517 OFFCURVE",
"312 478 CURVE SMOOTH",
"312 423 OFFCURVE",
"271 390 OFFCURVE",
"198 390 CURVE SMOOTH",
"126 390 LINE",
"126 333 LINE",
"312 333 LINE",
"400 346 OFFCURVE",
"454 407 OFFCURVE",
"454 473 CURVE SMOOTH",
"454 519 OFFCURVE",
"430 548 OFFCURVE",
"416 559 CURVE"
);
},
{
closed = 1;
nodes = (
"126 343 LINE",
"126 277 LINE",
"202 277 LINE SMOOTH",
"301 277 OFFCURVE",
"347 251 OFFCURVE",
"347 192 CURVE SMOOTH",
"347 136 OFFCURVE",
"309 103 OFFCURVE",
"219 103 CURVE SMOOTH",
"152 103 OFFCURVE",
"79 130 OFFCURVE",
"20 166 CURVE",
"20 42 LINE",
"68 17 OFFCURVE",
"147 -10 OFFCURVE",
"226 -10 CURVE SMOOTH",
"390 -10 OFFCURVE",
"489 57 OFFCURVE",
"489 179 CURVE SMOOTH",
"489 273 OFFCURVE",
"429 333 OFFCURVE",
"322 343 CURVE"
);
}
);
width = 534;
}
);
unicode = 0A24;
},
{
glyphname = grTHA;
lastChange = "2015-07-03 10:47:14 +0000";
layers = (
{
anchors = (
{
name = bottom;
position = "{330, 0}";
},
{
name = bottom.HAc2;
position = "{483, 0}";
},
{
name = bottom.VAc2;
position = "{514, 0}";
},
{
name = bottom.virama;
position = "{483, 0}";
},
{
name = top;
position = "{483, 635}";
},
{
name = top.addak;
position = "{483, 635}";
},
{
name = top.bindi;
position = "{483, 635}";
},
{
name = top.tippi;
position = "{483, 635}";
}
);
layerId = "8D1DA624-BCA2-432D-8EAC-BD2525041625";
name = Light;
paths = (
{
closed = 1;
nodes = (
"88 580 OFFCURVE",
"125 541 OFFCURVE",
"125 487 CURVE SMOOTH",
"125 442 OFFCURVE",
"104 396 OFFCURVE",
"60 354 CURVE",
"75 230 OFFCURVE",
"159 143 OFFCURVE",
"284 143 CURVE SMOOTH",
"362 143 OFFCURVE",
"419 175 OFFCURVE",
"452 215 CURVE",
"452 356 LINE",
"452 272 OFFCURVE",
"392 200 OFFCURVE",
"284 200 CURVE SMOOTH",
"190 200 OFFCURVE",
"132 270 OFFCURVE",
"126 342 CURVE",
"171 393 OFFCURVE",
"189 430 OFFCURVE",
"189 487 CURVE SMOOTH",
"189 556 OFFCURVE",
"138 635 OFFCURVE",
"52 635 CURVE",
"43 580 LINE"
);
},
{
closed = 1;
nodes = (
"452 590 LINE",
"452 0 LINE",
"514 0 LINE",
"514 590 LINE"
);
},
{
closed = 1;
nodes = (
"465 435 LINE",
"136 435 LINE",
"136 380 LINE",
"465 380 LINE"
);
},
{
closed = 1;
nodes = (
"634 635 LINE",
"-20 635 LINE",
"-20 580 LINE",
"634 580 LINE"
);
}
);
width = 614;
},
{
anchors = (
{
name = bottom;
position = "{379, 0}";
},
{
name = bottom.HAc2;
position = "{523, 10}";
},
{
name = bottom.VAc2;
position = "{593, 10}";
},
{
name = bottom.virama;
position = "{523, 0}";
},
{
name = top;
position = "{523, 670}";
},
{
name = top.addak;
position = "{523, 670}";
},
{
name = top.bindi;
position = "{523, 670}";
},
{
name = top.tippi;
position = "{523, 670}";
}
);
layerId = "EDB6D985-9BDA-48FF-B1DC-CE6E1D224CE4";
name = Bold;
paths = (
{
closed = 1;
nodes = (
"77 558 OFFCURVE",
"101 521 OFFCURVE",
"101 484 CURVE SMOOTH",
"101 447 OFFCURVE",
"82 408 OFFCURVE",
"30 366 CURVE",
"52 193 OFFCURVE",
"159 102 OFFCURVE",
"297 102 CURVE SMOOTH",
"370 102 OFFCURVE",
"427 132 OFFCURVE",
"453 164 CURVE",
"453 351 LINE",
"453 270 OFFCURVE",
"396 220 OFFCURVE",
"306 220 CURVE SMOOTH",
"223 220 OFFCURVE",
"179 266 OFFCURVE",
"169 326 CURVE",
"193 350 OFFCURVE",
"243 402 OFFCURVE",
"243 484 CURVE SMOOTH",
"243 576 OFFCURVE",
"181 670 OFFCURVE",
"50 670 CURVE",
"29 558 LINE"
);
},
{
closed = 1;
nodes = (
"453 580 LINE",
"453 0 LINE",
"593 0 LINE",
"593 580 LINE"
);
},
{
closed = 1;
nodes = (
"490 446 LINE",
"167 446 LINE",
"167 344 LINE",
"490 344 LINE"
);
},
{
closed = 1;
nodes = (
"693 670 LINE",
"-20 670 LINE",
"-20 558 LINE",
"693 558 LINE"
);
}
);
width = 673;
}
);
unicode = 0A25;
},
{
glyphname = grDA;
lastChange = "2015-07-03 10:47:14 +0000";
layers = (
{
anchors = (
{
name = bottom;
position = "{282, -10}";
},
{
name = bottom.HAc2;
position = "{403, -25}";
},
{
name = bottom.VAc2;
position = "{434, -25}";
},
{
name = bottom.virama;
position = "{293, -10}";
},
{
name = top;
position = "{403, 635}";
},
{
name = top.addak;
position = "{403, 635}";
},
{
name = top.bindi;
position = "{403, 635}";
},
{
name = top.tippi;
position = "{403, 635}";
}
);
guideLines = (
{
angle = 90;
position = "{434, 15}";
}
);
layerId = "8D1DA624-BCA2-432D-8EAC-BD2525041625";
name = Light;
paths = (
{
closed = 1;
nodes = (
"554 635 LINE",
"-20 635 LINE",
"-20 580 LINE",
"372 580 LINE",
"372 455 LINE SMOOTH",
"372 391 OFFCURVE",
"355 353 OFFCURVE",
"261 353 CURVE SMOOTH",
"87 353 LINE",
"87 298 LINE",
"267 298 LINE SMOOTH",
"386 298 OFFCURVE",
"434 349 OFFCURVE",
"434 448 CURVE SMOOTH",
"434 580 LINE",
"554 580 LINE"
);
},
{
closed = 1;
nodes = (
"81 427 LINE",
"60 406 OFFCURVE",
"36 369 OFFCURVE",
"36 343 CURVE SMOOTH",
"36 315 OFFCURVE",
"54 298 OFFCURVE",
"82 298 CURVE SMOOTH",
"151 298 LINE",
"138 427 LINE"
);
},
{
closed = 1;
nodes = (
"401 65 OFFCURVE",
"358 45 OFFCURVE",
"305 45 CURVE SMOOTH",
"197 45 OFFCURVE",
"161 126 OFFCURVE",
"151 262 CURVE SMOOTH",
"148 303 LINE",
"87 303 LINE",
"93 237 LINE SMOOTH",
"108 69 OFFCURVE",
"181 -10 OFFCURVE",
"303 -10 CURVE SMOOTH",
"360 -10 OFFCURVE",
"409 12 OFFCURVE",
"434 31 CURVE",
"434 92 LINE"
);
}
);
width = 534;
},
{
anchors = (
{
name = bottom;
position = "{349, -15}";
},
{
name = bottom.HAc2;
position = "{459, -30}";
},
{
name = bottom.VAc2;
position = "{529, -30}";
},
{
name = bottom.virama;
position = "{349, -15}";
},
{
name = top;
position = "{459, 670}";
},
{
name = top.addak;
position = "{459, 670}";
},
{
name = top.bindi;
position = "{459, 670}";
},
{
name = top.tippi;
position = "{459, 670}";
}
);
background = {
paths = (
{
closed = 1;
nodes = (
"629 670 LINE",
"-20 670 LINE",
"-20 558 LINE",
"389 558 LINE",
"389 458 LINE SMOOTH",
"389 409 OFFCURVE",
"374 382 OFFCURVE",
"311 382 CURVE SMOOTH",
"101 382 LINE",
"101 271 LINE",
"344 271 LINE SMOOTH",
"474 271 OFFCURVE",
"529 346 OFFCURVE",
"529 450 CURVE SMOOTH",
"529 558 LINE",
"629 558 LINE"
);
},
{
closed = 1;
nodes = (
"106 449 LINE",
"74 416 OFFCURVE",
"35 377 OFFCURVE",
"35 337 CURVE SMOOTH",
"35 303 OFFCURVE",
"60 271 OFFCURVE",
"98 271 CURVE SMOOTH",
"228 271 LINE",
"210 449 LINE"
);
},
{
closed = 1;
nodes = (
"488 127 OFFCURVE",
"429 103 OFFCURVE",
"363 103 CURVE SMOOTH",
"286 103 OFFCURVE",
"232 151 OFFCURVE",
"228 264 CURVE SMOOTH",
"227 294 LINE",
"95 294 LINE",
"99 242 LINE SMOOTH",
"113 66 OFFCURVE",
"224 -15 OFFCURVE",
"349 -15 CURVE SMOOTH",
"429 -15 OFFCURVE",
"496 14 OFFCURVE",
"529 40 CURVE",
"529 160 LINE"
);
}
);
};
layerId = "EDB6D985-9BDA-48FF-B1DC-CE6E1D224CE4";
name = Bold;
paths = (
{
closed = 1;
nodes = (
"629 670 LINE",
"-20 670 LINE",
"-20 558 LINE",
"389 558 LINE",
"389 458 LINE SMOOTH",
"389 409 OFFCURVE",
"374 382 OFFCURVE",
"311 382 CURVE SMOOTH",
"101 382 LINE",
"101 271 LINE",
"334 271 LINE SMOOTH",
"474 271 OFFCURVE",
"529 346 OFFCURVE",
"529 450 CURVE SMOOTH",
"529 558 LINE",
"629 558 LINE"
);
},
{
closed = 1;
nodes = (
"106 449 LINE",
"74 416 OFFCURVE",
"35 377 OFFCURVE",
"35 337 CURVE SMOOTH",
"35 303 OFFCURVE",
"60 271 OFFCURVE",
"98 271 CURVE SMOOTH",
"228 271 LINE",
"210 449 LINE"
);
},
{
closed = 1;
nodes = (
"488 127 OFFCURVE",
"429 103 OFFCURVE",
"363 103 CURVE SMOOTH",
"286 103 OFFCURVE",
"232 150 OFFCURVE",
"228 264 CURVE SMOOTH",
"227 294 LINE",
"95 294 LINE",
"99 242 LINE SMOOTH",
"113 65 OFFCURVE",
"224 -15 OFFCURVE",
"349 -15 CURVE SMOOTH",
"429 -15 OFFCURVE",
"496 14 OFFCURVE",
"529 40 CURVE",
"529 160 LINE"
);
}
);
width = 609;
},
{
anchors = (
{
name = bottom;
position = "{282, -10}";
},
{
name = bottom.HAc2;
position = "{403, -25}";
},
{
name = bottom.VAc2;
position = "{434, -25}";
},
{
name = bottom.virama;
position = "{293, -10}";
},
{
name = top;
position = "{403, 635}";
},
{
name = top.addak;
position = "{403, 635}";
},
{
name = top.bindi;
position = "{403, 635}";
},
{
name = top.tippi;
position = "{403, 635}";
}
);
associatedMasterId = "8D1DA624-BCA2-432D-8EAC-BD2525041625";
guideLines = (
{
angle = 90;
position = "{434, 15}";
}
);
layerId = "AD4BF202-FEA5-4604-A17A-07171D9C7EB8";
name = "Light Jun 27 15, 15:10";
paths = (
{
closed = 1;
nodes = (
"554 635 LINE",
"-20 635 LINE",
"-20 580 LINE",
"372 580 LINE",
"372 455 LINE SMOOTH",
"372 391 OFFCURVE",
"355 353 OFFCURVE",
"261 353 CURVE SMOOTH",
"87 353 LINE",
"87 298 LINE",
"267 298 LINE SMOOTH",
"386 298 OFFCURVE",
"434 349 OFFCURVE",
"434 448 CURVE SMOOTH",
"434 580 LINE",
"554 580 LINE"
);
},
{
closed = 1;
nodes = (
"81 427 LINE",
"60 406 OFFCURVE",
"36 369 OFFCURVE",
"36 343 CURVE SMOOTH",
"36 315 OFFCURVE",
"54 298 OFFCURVE",
"82 298 CURVE SMOOTH",
"151 298 LINE",
"138 427 LINE"
);
},
{
closed = 1;
nodes = (
"401 65 OFFCURVE",
"358 45 OFFCURVE",
"305 45 CURVE SMOOTH",
"207 45 OFFCURVE",
"170 126 OFFCURVE",
"153 262 CURVE SMOOTH",
"148 303 LINE",
"87 303 LINE",
"96 237 LINE SMOOTH",
"119 69 OFFCURVE",
"191 -10 OFFCURVE",
"303 -10 CURVE SMOOTH",
"360 -10 OFFCURVE",
"409 12 OFFCURVE",
"434 31 CURVE",
"434 92 LINE"
);
}
);
width = 534;
},
{
anchors = (
{
name = bottom;
position = "{349, -15}";
},
{
name = bottom.HAc2;
position = "{459, -30}";
},
{
name = bottom.VAc2;
position = "{529, -30}";
},
{
name = bottom.virama;
position = "{349, -15}";
},
{
name = top;
position = "{459, 670}";
},
{
name = top.addak;
position = "{459, 670}";
},
{
name = top.bindi;
position = "{459, 670}";
},
{
name = top.tippi;
position = "{459, 670}";
}
);
associatedMasterId = "EDB6D985-9BDA-48FF-B1DC-CE6E1D224CE4";
layerId = "2BE34209-3FE7-4DFE-9DD7-DB9640CA7240";
name = "Bold Jun 27 15, 18:26";
paths = (
{
closed = 1;
nodes = (
"629 670 LINE",
"-20 670 LINE",
"-20 558 LINE",
"389 558 LINE",
"389 458 LINE SMOOTH",
"389 409 OFFCURVE",
"374 382 OFFCURVE",
"311 382 CURVE SMOOTH",
"101 382 LINE",
"101 271 LINE",
"344 271 LINE SMOOTH",
"474 271 OFFCURVE",
"529 346 OFFCURVE",
"529 450 CURVE SMOOTH",
"529 558 LINE",
"629 558 LINE"
);
},
{
closed = 1;
nodes = (
"106 449 LINE",
"74 416 OFFCURVE",
"35 377 OFFCURVE",
"35 337 CURVE SMOOTH",
"35 303 OFFCURVE",
"60 271 OFFCURVE",
"98 271 CURVE SMOOTH",
"228 271 LINE",
"210 449 LINE"
);
},
{
closed = 1;
nodes = (
"488 127 OFFCURVE",
"429 103 OFFCURVE",
"363 103 CURVE SMOOTH",
"286 103 OFFCURVE",
"243 150 OFFCURVE",
"228 264 CURVE SMOOTH",
"224 294 LINE",
"92 294 LINE",
"99 242 LINE SMOOTH",
"123 65 OFFCURVE",
"224 -15 OFFCURVE",
"349 -15 CURVE SMOOTH",
"429 -15 OFFCURVE",
"496 14 OFFCURVE",
"529 40 CURVE",
"529 160 LINE"
);
}
);
width = 609;
}
);
unicode = 0A26;
},
{
glyphname = grDHA;
lastChange = "2015-07-03 10:47:14 +0000";
layers = (
{
anchors = (
{
name = bottom;
position = "{304, 0}";
},
{
name = bottom.HAc2;
position = "{457, 0}";
},
{
name = bottom.VAc2;
position = "{488, 0}";
},
{
name = bottom.virama;
position = "{457, 0}";
},
{
name = top;
position = "{457, 635}";
},
{
name = top.addak;
position = "{457, 635}";
},
{
name = top.bindi;
position = "{457, 635}";
},
{
name = top.tippi;
position = "{457, 635}";
}
);
layerId = "8D1DA624-BCA2-432D-8EAC-BD2525041625";
name = Light;
paths = (
{
closed = 1;
nodes = (
"88 580 OFFCURVE",
"125 541 OFFCURVE",
"125 487 CURVE SMOOTH",
"125 442 OFFCURVE",
"104 396 OFFCURVE",
"60 354 CURVE",
"75 230 OFFCURVE",
"157 143 OFFCURVE",
"278 143 CURVE SMOOTH",
"348 143 OFFCURVE",
"403 173 OFFCURVE",
"426 207 CURVE",
"426 339 LINE",
"426 258 OFFCURVE",
"376 200 OFFCURVE",
"278 200 CURVE SMOOTH",
"188 200 OFFCURVE",
"132 270 OFFCURVE",
"126 342 CURVE",
"171 393 OFFCURVE",
"189 430 OFFCURVE",
"189 487 CURVE SMOOTH",
"189 551 OFFCURVE",
"138 635 OFFCURVE",
"42 635 CURVE",
"43 580 LINE"
);
},
{
closed = 1;
nodes = (
"426 590 LINE",
"426 0 LINE",
"488 0 LINE",
"488 590 LINE"
);
},
{
closed = 1;
nodes = (
"608 635 LINE",
"-20 635 LINE",
"-20 580 LINE",
"608 580 LINE"
);
}
);
width = 588;
},
{
anchors = (
{
name = bottom;
position = "{354, 0}";
},
{
name = bottom.HAc2;
position = "{498, 10}";
},
{
name = bottom.VAc2;
position = "{568, 10}";
},
{
name = bottom.virama;
position = "{498, 0}";
},
{
name = top;
position = "{498, 670}";
},
{
name = top.addak;
position = "{498, 670}";
},
{
name = top.bindi;
position = "{498, 670}";
},
{
name = top.tippi;
position = "{498, 670}";
}
);
layerId = "EDB6D985-9BDA-48FF-B1DC-CE6E1D224CE4";
name = Bold;
paths = (
{
closed = 1;
nodes = (
"77 558 OFFCURVE",
"101 522 OFFCURVE",
"101 482 CURVE SMOOTH",
"101 435 OFFCURVE",
"74 393 OFFCURVE",
"30 356 CURVE",
"51 215 OFFCURVE",
"140 102 OFFCURVE",
"287 102 CURVE SMOOTH",
"353 102 OFFCURVE",
"402 126 OFFCURVE",
"428 162 CURVE",
"428 361 LINE",
"428 270 OFFCURVE",
"379 220 OFFCURVE",
"302 220 CURVE SMOOTH",
"225 220 OFFCURVE",
"180 270 OFFCURVE",
"169 326 CURVE",
"211 368 OFFCURVE",
"243 416 OFFCURVE",
"243 482 CURVE SMOOTH",
"243 557 OFFCURVE",
"188 660 OFFCURVE",
"30 660 CURVE",
"29 558 LINE"
);
},
{
closed = 1;
nodes = (
"428 580 LINE",
"428 0 LINE",
"568 0 LINE",
"568 580 LINE"
);
},
{
closed = 1;
nodes = (
"668 670 LINE",
"-20 670 LINE",
"-20 558 LINE",
"668 558 LINE"
);
}
);
width = 648;
}
);
unicode = 0A27;
},
{
glyphname = grNA;
lastChange = "2015-07-03 10:47:14 +0000";
layers = (
{
anchors = (
{
name = bottom;
position = "{293, 0}";
},
{
name = bottom.HAc2;
position = "{422, -10}";
},
{
name = bottom.VAc2;
position = "{453, -10}";
},
{
name = bottom.virama;
position = "{293, 0}";
},
{
name = top;
position = "{293, 635}";
},
{
name = top.addak;
position = "{293, 635}";
},
{
name = top.bindi;
position = "{293, 635}";
},
{
name = top.tippi;
position = "{293, 635}";
}
);
guideLines = (
{
position = "{273, 380}";
}
);
layerId = "8D1DA624-BCA2-432D-8EAC-BD2525041625";
name = Light;
paths = (
{
closed = 1;
nodes = (
"606 580 LINE",
"606 635 LINE",
"-20 635 LINE",
"-20 580 LINE",
"262 580 LINE",
"262 432 LINE",
"123 416 OFFCURVE",
"50 318 OFFCURVE",
"50 201 CURVE SMOOTH",
"50 105 OFFCURVE",
"92 45 OFFCURVE",
"133 0 CURVE",
"205 0 LINE",
"174 35 OFFCURVE",
"114 102 OFFCURVE",
"114 201 CURVE SMOOTH",
"114 311 OFFCURVE",
"189 375 OFFCURVE",
"293 375 CURVE SMOOTH",
"397 375 OFFCURVE",
"472 311 OFFCURVE",
"472 201 CURVE SMOOTH",
"472 102 OFFCURVE",
"412 35 OFFCURVE",
"381 0 CURVE",
"453 0 LINE",
"494 46 OFFCURVE",
"536 105 OFFCURVE",
"536 201 CURVE SMOOTH",
"536 318 OFFCURVE",
"463 416 OFFCURVE",
"324 432 CURVE",
"324 580 LINE"
);
}
);
width = 586;
},
{
anchors = (
{
name = bottom;
position = "{323, 0}";
},
{
name = bottom.HAc2;
position = "{468, 0}";
},
{
name = bottom.VAc2;
position = "{538, 0}";
},
{
name = bottom.virama;
position = "{323, 0}";
},
{
name = top;
position = "{323, 670}";
},
{
name = top.addak;
position = "{323, 670}";
},
{
name = top.bindi;
position = "{323, 670}";
},
{
name = top.tippi;
position = "{323, 670}";
}
);
guideLines = (
{
position = "{275, 476}";
}
);
layerId = "EDB6D985-9BDA-48FF-B1DC-CE6E1D224CE4";
name = Bold;
paths = (
{
closed = 1;
nodes = (
"666 558 LINE",
"666 670 LINE",
"-20 670 LINE",
"-20 558 LINE",
"253 558 LINE",
"253 475 LINE",
"120 456 OFFCURVE",
"35 356 OFFCURVE",
"35 221 CURVE SMOOTH",
"35 118 OFFCURVE",
"69 55 OFFCURVE",
"108 0 CURVE",
"266 0 LINE",
"214 64 OFFCURVE",
"177 125 OFFCURVE",
"177 210 CURVE SMOOTH",
"177 300 OFFCURVE",
"226 362 OFFCURVE",
"323 362 CURVE SMOOTH",
"420 362 OFFCURVE",
"469 300 OFFCURVE",
"469 210 CURVE SMOOTH",
"469 125 OFFCURVE",
"432 64 OFFCURVE",
"380 0 CURVE",
"538 0 LINE",
"577 55 OFFCURVE",
"611 118 OFFCURVE",
"611 221 CURVE SMOOTH",
"611 356 OFFCURVE",
"526 456 OFFCURVE",
"393 475 CURVE",
"393 558 LINE"
);
}
);
width = 646;
},
{
anchors = (
{
name = bottom;
position = "{291, 39}";
},
{
name = bottom.HAc2;
position = "{423, 0}";
},
{
name = bottom.VAc2;
position = "{454, 0}";
},
{
name = bottom.virama;
position = "{291, 39}";
},
{
name = top;
position = "{291, 635}";
},
{
name = top.addak;
position = "{291, 635}";
},
{
name = top.bindi;
position = "{291, 635}";
},
{
name = top.tippi;
position = "{291, 635}";
}
);
associatedMasterId = "8D1DA624-BCA2-432D-8EAC-BD2525041625";
guideLines = (
{
position = "{271, 381}";
}
);
layerId = "F7B66C9E-0BBD-49EF-8AD5-26C5B62130B7";
name = "Light Jun 27 15, 15:14";
paths = (
{
closed = 1;
nodes = (
"602 580 LINE",
"602 635 LINE",
"-20 635 LINE",
"-20 580 LINE",
"260 580 LINE",
"260 437 LINE",
"121 421 OFFCURVE",
"50 323 OFFCURVE",
"50 221 CURVE SMOOTH",
"50 135 OFFCURVE",
"92 80 OFFCURVE",
"128 39 CURVE",
"200 39 LINE",
"179 60 OFFCURVE",
"114 132 OFFCURVE",
"114 221 CURVE SMOOTH",
"114 311 OFFCURVE",
"187 380 OFFCURVE",
"291 380 CURVE SMOOTH",
"395 380 OFFCURVE",
"468 311 OFFCURVE",
"468 221 CURVE SMOOTH",
"468 132 OFFCURVE",
"403 60 OFFCURVE",
"382 39 CURVE",
"454 39 LINE",
"490 80 OFFCURVE",
"532 135 OFFCURVE",
"532 221 CURVE SMOOTH",
"532 323 OFFCURVE",
"461 421 OFFCURVE",
"322 437 CURVE",
"322 580 LINE"
);
}
);
width = 582;
},
{
anchors = (
{
name = bottom;
position = "{308, 61}";
},
{
name = bottom.HAc2;
position = "{443, 0}";
},
{
name = bottom.VAc2;
position = "{513, 0}";
},
{
name = bottom.virama;
position = "{308, 61}";
},
{
name = top;
position = "{308, 670}";
},
{
name = top.addak;
position = "{308, 670}";
},
{
name = top.bindi;
position = "{308, 670}";
},
{
name = top.tippi;
position = "{308, 670}";
}
);
associatedMasterId = "EDB6D985-9BDA-48FF-B1DC-CE6E1D224CE4";
layerId = "F6235C8A-F1C5-44D6-B69C-F1D79F654C27";
name = "Bold Jun 27 15, 18:19";
paths = (
{
closed = 1;
nodes = (
"636 558 LINE",
"636 670 LINE",
"-20 670 LINE",
"-20 558 LINE",
"238 558 LINE",
"238 475 LINE",
"123 456 OFFCURVE",
"35 364 OFFCURVE",
"35 249 CURVE SMOOTH",
"35 156 OFFCURVE",
"69 101 OFFCURVE",
"103 61 CURVE",
"261 61 LINE",
"214 110 OFFCURVE",
"177 173 OFFCURVE",
"177 238 CURVE SMOOTH",
"177 308 OFFCURVE",
"229 362 OFFCURVE",
"308 362 CURVE SMOOTH",
"387 362 OFFCURVE",
"439 308 OFFCURVE",
"439 238 CURVE SMOOTH",
"439 173 OFFCURVE",
"402 110 OFFCURVE",
"355 61 CURVE",
"513 61 LINE",
"547 101 OFFCURVE",
"581 156 OFFCURVE",
"581 249 CURVE SMOOTH",
"581 364 OFFCURVE",
"493 456 OFFCURVE",
"378 475 CURVE",
"378 558 LINE"
);
}
);
width = 616;
}
);
unicode = 0A28;
},
{
glyphname = grPA;
lastChange = "2015-07-03 10:47:14 +0000";
layers = (
{
anchors = (
{
name = bottom;
position = "{304, 0}";
},
{
name = bottom.HAc2;
position = "{457, 0}";
},
{
name = bottom.VAc2;
position = "{488, 0}";
},
{
name = bottom.virama;
position = "{457, 0}";
},
{
name = top;
position = "{457, 635}";
},
{
name = top.addak;
position = "{457, 635}";
},
{
name = top.bindi;
position = "{457, 635}";
},
{
name = top.tippi;
position = "{457, 635}";
}
);
layerId = "8D1DA624-BCA2-432D-8EAC-BD2525041625";
name = Light;
paths = (
{
closed = 1;
nodes = (
"88 580 OFFCURVE",
"125 541 OFFCURVE",
"125 487 CURVE SMOOTH",
"125 442 OFFCURVE",
"104 396 OFFCURVE",
"60 354 CURVE",
"75 230 OFFCURVE",
"157 143 OFFCURVE",
"278 143 CURVE SMOOTH",
"348 143 OFFCURVE",
"403 173 OFFCURVE",
"426 207 CURVE",
"426 339 LINE",
"426 258 OFFCURVE",
"376 200 OFFCURVE",
"278 200 CURVE SMOOTH",
"188 200 OFFCURVE",
"132 270 OFFCURVE",
"126 342 CURVE",
"171 393 OFFCURVE",
"189 430 OFFCURVE",
"189 487 CURVE SMOOTH",
"189 546 OFFCURVE",
"148 635 OFFCURVE",
"52 635 CURVE SMOOTH",
"-20 635 LINE",
"-20 580 LINE",
"43 580 LINE SMOOTH"
);
},
{
closed = 1;
nodes = (
"426 590 LINE",
"426 0 LINE",
"488 0 LINE",
"488 590 LINE"
);
},
{
closed = 1;
nodes = (
"608 635 LINE",
"426 635 LINE",
"426 580 LINE",
"608 580 LINE"
);
}
);
width = 588;
},
{
anchors = (
{
name = bottom;
position = "{354, 0}";
},
{
name = bottom.HAc2;
position = "{498, 10}";
},
{
name = bottom.VAc2;
position = "{568, 10}";
},
{
name = bottom.virama;
position = "{498, 0}";
},
{
name = top;
position = "{498, 670}";
},
{
name = top.addak;
position = "{498, 670}";
},
{
name = top.bindi;
position = "{498, 670}";
},
{
name = top.tippi;
position = "{498, 670}";
}
);
layerId = "EDB6D985-9BDA-48FF-B1DC-CE6E1D224CE4";
name = Bold;
paths = (
{
closed = 1;
nodes = (
"77 558 OFFCURVE",
"101 522 OFFCURVE",
"101 482 CURVE SMOOTH",
"101 435 OFFCURVE",
"74 393 OFFCURVE",
"30 356 CURVE",
"51 215 OFFCURVE",
"140 102 OFFCURVE",
"287 102 CURVE SMOOTH",
"353 102 OFFCURVE",
"402 126 OFFCURVE",
"428 162 CURVE",
"428 361 LINE",
"428 270 OFFCURVE",
"379 220 OFFCURVE",
"302 220 CURVE SMOOTH",
"225 220 OFFCURVE",
"180 270 OFFCURVE",
"169 326 CURVE",
"211 368 OFFCURVE",
"243 421 OFFCURVE",
"243 484 CURVE SMOOTH",
"243 566 OFFCURVE",
"201 670 OFFCURVE",
"50 670 CURVE SMOOTH",
"-20 670 LINE",
"-20 558 LINE",
"29 558 LINE SMOOTH"
);
},
{
closed = 1;
nodes = (
"428 580 LINE",
"428 0 LINE",
"568 0 LINE",
"568 580 LINE"
);
},
{
closed = 1;
nodes = (
"668 670 LINE",
"428 670 LINE",
"428 558 LINE",
"668 558 LINE"
);
}
);
width = 648;
}
);
unicode = 0A2A;
},
{
glyphname = grPHA;
lastChange = "2015-07-03 10:47:14 +0000";
layers = (
{
anchors = (
{
name = bottom;
position = "{319, 12}";
},
{
name = bottom.HAc2;
position = "{348, 20}";
},
{
name = bottom.VAc2;
position = "{389, -5}";
},
{
name = bottom.virama;
position = "{319, 12}";
},
{
name = top;
position = "{423, 635}";
},
{
name = top.addak;
position = "{423, 635}";
},
{
name = top.bindi;
position = "{423, 635}";
},
{
name = top.tippi;
position = "{423, 635}";
}
);
layerId = "8D1DA624-BCA2-432D-8EAC-BD2525041625";
name = Light;
paths = (
{
closed = 1;
nodes = (
"392 580 LINE",
"392 466 LINE",
"275 466 LINE SMOOTH",
"148 466 OFFCURVE",
"40 401 OFFCURVE",
"40 268 CURVE SMOOTH",
"40 120 OFFCURVE",
"177 12 OFFCURVE",
"319 12 CURVE SMOOTH",
"429 12 OFFCURVE",
"503 72 OFFCURVE",
"503 155 CURVE SMOOTH",
"503 245 OFFCURVE",
"435 295 OFFCURVE",
"344 295 CURVE SMOOTH",
"242 295 OFFCURVE",
"161 234 OFFCURVE",
"134 98 CURVE",
"187 67 LINE",
"203 178 OFFCURVE",
"263 239 OFFCURVE",
"344 239 CURVE SMOOTH",
"401 239 OFFCURVE",
"441 206 OFFCURVE",
"441 159 CURVE SMOOTH",
"441 108 OFFCURVE",
"400 68 OFFCURVE",
"319 68 CURVE SMOOTH",
"261 68 OFFCURVE",
"210 90 OFFCURVE",
"171 126 CURVE SMOOTH",
"131 162 OFFCURVE",
"104 213 OFFCURVE",
"104 268 CURVE SMOOTH",
"104 381 OFFCURVE",
"190 411 OFFCURVE",
"296 411 CURVE SMOOTH",
"454 411 LINE",
"454 580 LINE",
"563 580 LINE",
"563 635 LINE",
"-20 635 LINE",
"-20 580 LINE"
);
}
);
width = 543;
},
{
anchors = (
{
name = bottom;
position = "{363, -6}";
},
{
name = bottom.HAc2;
position = "{377, 6}";
},
{
name = bottom.VAc2;
position = "{457, -27}";
},
{
name = bottom.virama;
position = "{363, -6}";
},
{
name = top;
position = "{444, 670}";
},
{
name = top.addak;
position = "{444, 670}";
},
{
name = top.bindi;
position = "{444, 670}";
},
{
name = top.tippi;
position = "{444, 670}";
}
);
layerId = "EDB6D985-9BDA-48FF-B1DC-CE6E1D224CE4";
name = Bold;
paths = (
{
closed = 1;
nodes = (
"374 558 LINE",
"375 485 LINE",
"274 485 LINE SMOOTH",
"137 485 OFFCURVE",
"35 401 OFFCURVE",
"35 262 CURVE SMOOTH",
"35 119 OFFCURVE",
"171 -6 OFFCURVE",
"363 -6 CURVE SMOOTH",
"487 -6 OFFCURVE",
"570 57 OFFCURVE",
"570 155 CURVE SMOOTH",
"570 235 OFFCURVE",
"505 287 OFFCURVE",
"397 287 CURVE SMOOTH",
"302 287 OFFCURVE",
"225 228 OFFCURVE",
"197 136 CURVE",
"307 98 LINE",
"322 145 OFFCURVE",
"349 181 OFFCURVE",
"400 181 CURVE SMOOTH",
"431 181 OFFCURVE",
"452 166 OFFCURVE",
"452 146 CURVE SMOOTH",
"452 125 OFFCURVE",
"435 104 OFFCURVE",
"382 104 CURVE SMOOTH",
"342 104 OFFCURVE",
"291 116 OFFCURVE",
"265 133 CURVE SMOOTH",
"200 175 OFFCURVE",
"179 219 OFFCURVE",
"179 263 CURVE SMOOTH",
"179 343 OFFCURVE",
"249 367 OFFCURVE",
"335 367 CURVE SMOOTH",
"514 367 LINE",
"514 558 LINE",
"625 558 LINE",
"625 670 LINE",
"-20 670 LINE",
"-20 558 LINE"
);
}
);
width = 605;
}
);
unicode = 0A2B;
},
{
glyphname = grBA;
lastChange = "2015-07-03 10:47:14 +0000";
layers = (
{
anchors = (
{
name = bottom;
position = "{311, 0}";
},
{
name = bottom.HAc2;
position = "{464, 0}";
},
{
name = bottom.VAc2;
position = "{495, 0}";
},
{
name = bottom.virama;
position = "{464, 0}";
},
{
name = top;
position = "{464, 635}";
},
{
name = top.addak;
position = "{464, 635}";
},
{
name = top.bindi;
position = "{464, 635}";
},
{
name = top.tippi;
position = "{464, 635}";
}
);
background = {
paths = (
{
closed = 1;
nodes = (
"615 580 LINE",
"615 635 LINE",
"-20 635 LINE",
"-20 580 LINE"
);
},
{
closed = 1;
nodes = (
"91 591 OFFCURVE",
"60 564 OFFCURVE",
"60 502 CURVE SMOOTH",
"60 427 OFFCURVE",
"103 383 OFFCURVE",
"168 353 CURVE",
"455 353 LINE",
"455 387 LINE",
"265 387 LINE SMOOTH",
"166 387 OFFCURVE",
"124 450 OFFCURVE",
"124 502 CURVE SMOOTH",
"124 555 OFFCURVE",
"149 587 OFFCURVE",
"181 606 CURVE",
"109 606 LINE"
);
},
{
closed = 1;
nodes = (
"118 373 OFFCURVE",
"35 286 OFFCURVE",
"35 226 CURVE SMOOTH",
"35 170 OFFCURVE",
"118 61 OFFCURVE",
"288 61 CURVE SMOOTH",
"366 61 OFFCURVE",
"431 85 OFFCURVE",
"474 111 CURVE",
"474 173 LINE",
"415 136 OFFCURVE",
"363 118 OFFCURVE",
"289 118 CURVE SMOOTH",
"163 118 OFFCURVE",
"99 193 OFFCURVE",
"99 226 CURVE SMOOTH",
"99 263 OFFCURVE",
"151 332 OFFCURVE",
"265 332 CURVE SMOOTH",
"455 332 LINE",
"455 373 LINE",
"229 373 LINE"
);
},
{
closed = 1;
nodes = (
"433 600 LINE",
"433 0 LINE",
"495 0 LINE",
"495 600 LINE"
);
}
);
};
layerId = "8D1DA624-BCA2-432D-8EAC-BD2525041625";
name = Light;
paths = (
{
closed = 1;
nodes = (
"615 580 LINE",
"615 635 LINE",
"-20 635 LINE",
"-20 580 LINE"
);
},
{
closed = 1;
nodes = (
"433 600 LINE",
"433 0 LINE",
"495 0 LINE",
"495 600 LINE"
);
},
{
closed = 1;
nodes = (
"163 118 OFFCURVE",
"99 193 OFFCURVE",
"99 226 CURVE SMOOTH",
"99 263 OFFCURVE",
"151 332 OFFCURVE",
"265 332 CURVE SMOOTH",
"455 332 LINE",
"455 387 LINE",
"265 387 LINE SMOOTH",
"166 387 OFFCURVE",
"124 450 OFFCURVE",
"124 502 CURVE SMOOTH",
"124 555 OFFCURVE",
"149 587 OFFCURVE",
"181 606 CURVE",
"109 606 LINE",
"91 591 OFFCURVE",
"60 564 OFFCURVE",
"60 502 CURVE SMOOTH",
"60 420 OFFCURVE",
"110 376 OFFCURVE",
"185 347 CURVE",
"191 370 LINE",
"99 353 OFFCURVE",
"35 279 OFFCURVE",
"35 226 CURVE SMOOTH",
"35 170 OFFCURVE",
"118 61 OFFCURVE",
"288 61 CURVE SMOOTH",
"366 61 OFFCURVE",
"431 85 OFFCURVE",
"474 111 CURVE",
"474 173 LINE",
"415 136 OFFCURVE",
"363 118 OFFCURVE",
"289 118 CURVE SMOOTH"
);
}
);
width = 595;
},
{
anchors = (
{
name = bottom;
position = "{359, 0}";
},
{
name = bottom.HAc2;
position = "{503, 10}";
},
{
name = bottom.VAc2;
position = "{573, 10}";
},
{
name = bottom.virama;
position = "{503, 0}";
},
{
name = top;
position = "{503, 670}";
},
{
name = top.addak;
position = "{503, 670}";
},
{
name = top.bindi;
position = "{503, 670}";
},
{
name = top.tippi;
position = "{503, 670}";
}
);
background = {
paths = (
{
closed = 1;
nodes = (
"673 558 LINE",
"673 670 LINE",
"-20 670 LINE",
"-20 558 LINE"
);
},
{
closed = 1;
nodes = (
"92 554 OFFCURVE",
"69 530 OFFCURVE",
"69 485 CURVE SMOOTH",
"69 415 OFFCURVE",
"123 361 OFFCURVE",
"211 348 CURVE",
"445 348 LINE",
"445 415 LINE",
"315 415 LINE SMOOTH",
"242 415 OFFCURVE",
"211 450 OFFCURVE",
"211 490 CURVE SMOOTH",
"211 523 OFFCURVE",
"227 552 OFFCURVE",
"258 564 CURVE",
"107 564 LINE"
);
},
{
closed = 1;
nodes = (
"144 375 OFFCURVE",
"45 289 OFFCURVE",
"45 220 CURVE SMOOTH",
"45 147 OFFCURVE",
"159 40 OFFCURVE",
"331 40 CURVE SMOOTH",
"417 40 OFFCURVE",
"455 64 OFFCURVE",
"503 93 CURVE",
"503 210 LINE",
"444 172 OFFCURVE",
"407 153 OFFCURVE",
"333 153 CURVE SMOOTH",
"227 153 OFFCURVE",
"187 205 OFFCURVE",
"187 228 CURVE SMOOTH",
"187 251 OFFCURVE",
"238 303 OFFCURVE",
"330 303 CURVE",
"445 303 LINE",
"445 375 LINE",
"251 375 LINE"
);
},
{
closed = 1;
nodes = (
"433 568 LINE",
"433 0 LINE",
"573 0 LINE",
"573 568 LINE"
);
}
);
};
layerId = "EDB6D985-9BDA-48FF-B1DC-CE6E1D224CE4";
name = Bold;
paths = (
{
closed = 1;
nodes = (
"673 558 LINE",
"673 670 LINE",
"-20 670 LINE",
"-20 558 LINE"
);
},
{
closed = 1;
nodes = (
"433 568 LINE",
"433 0 LINE",
"573 0 LINE",
"573 568 LINE"
);
},
{
closed = 1;
nodes = (
"227 153 OFFCURVE",
"187 205 OFFCURVE",
"187 228 CURVE SMOOTH",
"187 251 OFFCURVE",
"238 303 OFFCURVE",
"330 303 CURVE SMOOTH",
"445 303 LINE",
"445 415 LINE",
"315 415 LINE SMOOTH",
"242 415 OFFCURVE",
"211 450 OFFCURVE",
"211 490 CURVE SMOOTH",
"211 523 OFFCURVE",
"227 552 OFFCURVE",
"258 564 CURVE",
"107 564 LINE",
"92 554 OFFCURVE",
"69 530 OFFCURVE",
"69 485 CURVE SMOOTH",
"69 417 OFFCURVE",
"120 364 OFFCURVE",
"203 349 CURVE",
"202 369 LINE",
"116 349 OFFCURVE",
"45 278 OFFCURVE",
"45 220 CURVE SMOOTH",
"45 147 OFFCURVE",
"159 40 OFFCURVE",
"331 40 CURVE SMOOTH",
"417 40 OFFCURVE",
"455 64 OFFCURVE",
"503 93 CURVE",
"503 210 LINE",
"444 172 OFFCURVE",
"407 153 OFFCURVE",
"333 153 CURVE SMOOTH"
);
}
);
width = 653;
}
);
unicode = 0A2C;
},
{
glyphname = grBHA;
lastChange = "2015-07-03 10:47:14 +0000";
layers = (
{
anchors = (
{
name = bottom;
position = "{249, -14}";
},
{
name = bottom.HAc2;
position = "{290, -7}";
},
{
name = bottom.VAc2;
position = "{351, -29}";
},
{
name = bottom.virama;
position = "{249, -14}";
},
{
name = top;
position = "{423, 635}";
},
{
name = top.addak;
position = "{423, 635}";
},
{
name = top.bindi;
position = "{423, 635}";
},
{
name = top.tippi;
position = "{423, 635}";
}
);
layerId = "8D1DA624-BCA2-432D-8EAC-BD2525041625";
name = Light;
paths = (
{
closed = 1;
nodes = (
"581 635 LINE",
"-20 635 LINE",
"-20 580 LINE",
"581 580 LINE"
);
},
{
closed = 1;
nodes = (
"37 52 LINE",
"74 24 OFFCURVE",
"141 -14 OFFCURVE",
"249 -14 CURVE SMOOTH",
"378 -14 OFFCURVE",
"501 58 OFFCURVE",
"501 210 CURVE SMOOTH",
"501 269 OFFCURVE",
"481 320 OFFCURVE",
"448 358 CURVE",
"453 374 OFFCURVE",
"454 392 OFFCURVE",
"454 422 CURVE SMOOTH",
"454 625 LINE",
"392 625 LINE",
"392 392 LINE",
"415 399 LINE",
"375 439 OFFCURVE",
"318 478 OFFCURVE",
"238 478 CURVE SMOOTH",
"146 478 OFFCURVE",
"70 428 OFFCURVE",
"70 345 CURVE SMOOTH",
"70 267 OFFCURVE",
"146 212 OFFCURVE",
"238 212 CURVE SMOOTH",
"332 212 OFFCURVE",
"387 251 OFFCURVE",
"425 315 CURVE",
"405 314 LINE",
"426 290 OFFCURVE",
"439 259 OFFCURVE",
"439 210 CURVE SMOOTH",
"439 105 OFFCURVE",
"356 43 OFFCURVE",
"249 43 CURVE SMOOTH",
"152 43 OFFCURVE",
"89 77 OFFCURVE",
"37 114 CURVE"
);
},
{
closed = 1;
nodes = (
"176 269 OFFCURVE",
"134 300 OFFCURVE",
"134 345 CURVE SMOOTH",
"134 391 OFFCURVE",
"176 421 OFFCURVE",
"238 421 CURVE SMOOTH",
"310 421 OFFCURVE",
"356 383 OFFCURVE",
"382 352 CURVE",
"355 297 OFFCURVE",
"306 269 OFFCURVE",
"238 269 CURVE SMOOTH"
);
}
);
width = 561;
},
{
anchors = (
{
name = bottom;
position = "{270, -23}";
},
{
name = bottom.HAc2;
position = "{334, -37}";
},
{
name = bottom.VAc2;
position = "{404, -40}";
},
{
name = bottom.virama;
position = "{260, -23}";
},
{
name = top;
position = "{441, 670}";
},
{
name = top.addak;
position = "{441, 670}";
},
{
name = top.bindi;
position = "{441, 670}";
},
{
name = top.tippi;
position = "{441, 670}";
}
);
layerId = "EDB6D985-9BDA-48FF-B1DC-CE6E1D224CE4";
name = Bold;
paths = (
{
closed = 1;
nodes = (
"614 670 LINE",
"-20 670 LINE",
"-20 558 LINE",
"614 558 LINE"
);
},
{
closed = 1;
nodes = (
"32 45 LINE",
"79 10 OFFCURVE",
"171 -23 OFFCURVE",
"270 -23 CURVE SMOOTH",
"478 -23 OFFCURVE",
"549 101 OFFCURVE",
"549 224 CURVE SMOOTH",
"549 287 OFFCURVE",
"518 331 OFFCURVE",
"488 357 CURVE",
"504 382 OFFCURVE",
"506 408 OFFCURVE",
"506 446 CURVE SMOOTH",
"506 579 LINE",
"376 579 LINE",
"376 424 LINE",
"413 436 LINE",
"369 459 OFFCURVE",
"319 482 OFFCURVE",
"249 482 CURVE SMOOTH",
"146 482 OFFCURVE",
"70 424 OFFCURVE",
"70 339 CURVE SMOOTH",
"70 254 OFFCURVE",
"146 197 OFFCURVE",
"259 197 CURVE SMOOTH",
"336 197 OFFCURVE",
"398 240 OFFCURVE",
"417 270 CURVE",
"390 273 LINE",
"407 265 OFFCURVE",
"417 248 OFFCURVE",
"417 224 CURVE",
"417 142 OFFCURVE",
"355 95 OFFCURVE",
"260 95 CURVE SMOOTH",
"178 95 OFFCURVE",
"101 122 OFFCURVE",
"32 170 CURVE"
);
},
{
closed = 1;
nodes = (
"222 297 OFFCURVE",
"201 313 OFFCURVE",
"201 340 CURVE SMOOTH",
"201 366 OFFCURVE",
"224 383 OFFCURVE",
"261 383 CURVE SMOOTH",
"297 383 OFFCURVE",
"332 369 OFFCURVE",
"360 349 CURVE",
"339 315 OFFCURVE",
"305 297 OFFCURVE",
"261 297 CURVE SMOOTH"
);
}
);
width = 594;
}
);
unicode = 0A2D;
},
{
glyphname = grMA;
lastChange = "2015-07-03 10:47:14 +0000";
layers = (
{
anchors = (
{
name = bottom;
position = "{267, 0}";
},
{
name = bottom.HAc2;
position = "{421, 0}";
},
{
name = bottom.VAc2;
position = "{452, 0}";
},
{
name = bottom.virama;
position = "{421, 0}";
},
{
name = top;
position = "{421, 635}";
},
{
name = top.addak;
position = "{421, 635}";
},
{
name = top.bindi;
position = "{421, 635}";
},
{
name = top.tippi;
position = "{421, 635}";
}
);
layerId = "8D1DA624-BCA2-432D-8EAC-BD2525041625";
name = Light;
paths = (
{
closed = 1;
nodes = (
"390 580 LINE",
"572 580 LINE",
"572 635 LINE",
"390 635 LINE"
);
},
{
closed = 1;
nodes = (
"452 0 LINE",
"452 589 LINE",
"390 589 LINE",
"390 0 LINE"
);
},
{
closed = 1;
nodes = (
"410 295 LINE",
"410 350 LINE",
"157 350 LINE",
"157 295 LINE"
);
},
{
closed = 1;
nodes = (
"104 146 LINE",
"142 217 OFFCURVE",
"168 291 OFFCURVE",
"168 379 CURVE SMOOTH",
"168 486 OFFCURVE",
"127 578 OFFCURVE",
"96 635 CURVE",
"42 602 LINE",
"83 543 OFFCURVE",
"104 461 OFFCURVE",
"104 379 CURVE SMOOTH",
"104 301 OFFCURVE",
"75 214 OFFCURVE",
"41 146 CURVE"
);
},
{
closed = 1;
nodes = (
"96 635 LINE",
"-20 635 LINE",
"-20 580 LINE",
"96 580 LINE"
);
}
);
width = 552;
},
{
anchors = (
{
name = bottom;
position = "{367, 0}";
},
{
name = bottom.HAc2;
position = "{511, 10}";
},
{
name = bottom.VAc2;
position = "{581, 10}";
},
{
name = bottom.virama;
position = "{511, 0}";
},
{
name = top;
position = "{511, 670}";
},
{
name = top.addak;
position = "{511, 670}";
},
{
name = top.bindi;
position = "{511, 670}";
},
{
name = top.tippi;
position = "{511, 670}";
}
);
layerId = "EDB6D985-9BDA-48FF-B1DC-CE6E1D224CE4";
name = Bold;
paths = (
{
closed = 1;
nodes = (
"441 558 LINE",
"681 558 LINE",
"681 670 LINE",
"441 670 LINE"
);
},
{
closed = 1;
nodes = (
"581 0 LINE",
"581 569 LINE",
"441 569 LINE",
"441 0 LINE"
);
},
{
closed = 1;
nodes = (
"453 251 LINE",
"453 373 LINE",
"262 373 LINE",
"262 251 LINE"
);
},
{
closed = 1;
nodes = (
"223 133 LINE",
"270 219 OFFCURVE",
"288 288 OFFCURVE",
"288 381 CURVE SMOOTH",
"288 489 OFFCURVE",
"236 610 OFFCURVE",
"190 670 CURVE",
"51 608 LINE",
"102 552 OFFCURVE",
"143 466 OFFCURVE",
"143 383 CURVE SMOOTH",
"143 300 OFFCURVE",
"121 224 OFFCURVE",
"69 133 CURVE"
);
},
{
closed = 1;
nodes = (
"190 670 LINE",
"-20 670 LINE",
"-20 558 LINE",
"190 558 LINE"
);
}
);
width = 661;
}
);
unicode = 0A2E;
},
{
glyphname = grYA;
lastChange = "2015-07-03 10:47:14 +0000";
layers = (
{
anchors = (
{
name = bottom;
position = "{430, 0}";
},
{
name = bottom.HAc2;
position = "{583, 0}";
},
{
name = bottom.VAc2;
position = "{614, 0}";
},
{
name = bottom.virama;
position = "{583, 0}";
},
{
name = top;
position = "{583, 635}";
},
{
name = top.addak;
position = "{583, 635}";
},
{
name = top.bindi;
position = "{583, 635}";
},
{
name = top.tippi;
position = "{583, 635}";
}
);
layerId = "8D1DA624-BCA2-432D-8EAC-BD2525041625";
name = Light;
paths = (
{
closed = 1;
nodes = (
"161 176 OFFCURVE",
"119 256 OFFCURVE",
"117 337 CURVE",
"154 379 OFFCURVE",
"179 411 OFFCURVE",
"179 487 CURVE SMOOTH",
"179 557 OFFCURVE",
"135 635 OFFCURVE",
"19 635 CURVE SMOOTH",
"-20 635 LINE",
"-20 580 LINE",
"8 580 LINE SMOOTH",
"83 580 OFFCURVE",
"115 541 OFFCURVE",
"115 487 CURVE SMOOTH",
"115 435 OFFCURVE",
"88 393 OFFCURVE",
"50 356 CURVE",
"62 211 OFFCURVE",
"130 119 OFFCURVE",
"240 119 CURVE SMOOTH",
"349 119 OFFCURVE",
"408 186 OFFCURVE",
"408 286 CURVE SMOOTH",
"408 395 LINE",
"346 395 LINE",
"346 286 LINE SMOOTH",
"346 217 OFFCURVE",
"315 176 OFFCURVE",
"240 176 CURVE SMOOTH"
);
},
{
closed = 1;
nodes = (
"601 360 LINE",
"601 415 LINE",
"346 415 LINE",
"346 360 LINE"
);
},
{
closed = 1;
nodes = (
"552 590 LINE",
"552 0 LINE",
"614 0 LINE",
"614 590 LINE"
);
},
{
closed = 1;
nodes = (
"734 635 LINE",
"552 635 LINE",
"552 580 LINE",
"734 580 LINE"
);
}
);
width = 714;
},
{
anchors = (
{
name = bottom;
position = "{517, 0}";
},
{
name = bottom.HAc2;
position = "{661, 10}";
},
{
name = bottom.VAc2;
position = "{731, 10}";
},
{
name = bottom.virama;
position = "{661, 0}";
},
{
name = top;
position = "{661, 670}";
},
{
name = top.addak;
position = "{661, 670}";
},
{
name = top.bindi;
position = "{661, 670}";
},
{
name = top.tippi;
position = "{661, 670}";
}
);
layerId = "EDB6D985-9BDA-48FF-B1DC-CE6E1D224CE4";
name = Bold;
paths = (
{
closed = 1;
nodes = (
"214 204 OFFCURVE",
"176 256 OFFCURVE",
"170 326 CURVE",
"205 360 OFFCURVE",
"244 418 OFFCURVE",
"244 481 CURVE SMOOTH",
"244 596 OFFCURVE",
"178 670 OFFCURVE",
"47 670 CURVE SMOOTH",
"-20 670 LINE",
"-20 558 LINE",
"29 558 LINE SMOOTH",
"68 558 OFFCURVE",
"102 533 OFFCURVE",
"102 487 CURVE SMOOTH",
"102 441 OFFCURVE",
"83 401 OFFCURVE",
"30 356 CURVE",
"46 193 OFFCURVE",
"130 91 OFFCURVE",
"274 91 CURVE SMOOTH",
"420 91 OFFCURVE",
"495 182 OFFCURVE",
"495 292 CURVE SMOOTH",
"495 419 LINE",
"355 419 LINE",
"355 292 LINE SMOOTH",
"355 242 OFFCURVE",
"335 204 OFFCURVE",
"274 204 CURVE SMOOTH"
);
},
{
closed = 1;
nodes = (
"700 345 LINE",
"700 460 LINE",
"355 460 LINE",
"355 345 LINE"
);
},
{
closed = 1;
nodes = (
"591 570 LINE",
"591 0 LINE",
"731 0 LINE",
"731 570 LINE"
);
},
{
closed = 1;
nodes = (
"831 670 LINE",
"591 670 LINE",
"591 558 LINE",
"831 558 LINE"
);
}
);
width = 811;
}
);
unicode = 0A2F;
},
{
glyphname = grRA;
lastChange = "2015-07-03 10:47:14 +0000";
layers = (
{
anchors = (
{
name = bottom;
position = "{239, 0}";
},
{
name = bottom.HAc2;
position = "{338, 0}";
},
{
name = bottom.VAc2;
position = "{369, 0}";
},
{
name = bottom.virama;
position = "{239, 0}";
},
{
name = top;
position = "{338, 635}";
},
{
name = top.addak;
position = "{338, 635}";
},
{
name = top.bindi;
position = "{338, 635}";
},
{
name = top.tippi;
position = "{338, 635}";
}
);
background = {
paths = (
{
closed = 1;
nodes = (
"307 228 LINE SMOOTH",
"307 160 OFFCURVE",
"272 135 OFFCURVE",
"229 135 CURVE SMOOTH",
"149 135 OFFCURVE",
"100 212 OFFCURVE",
"100 281 CURVE SMOOTH",
"100 354 OFFCURVE",
"139 387 OFFCURVE",
"228 387 CURVE SMOOTH",
"265 387 OFFCURVE",
"298 384 OFFCURVE",
"309 382 CURVE",
"309 437 LINE",
"299 439 OFFCURVE",
"264 442 OFFCURVE",
"223 442 CURVE SMOOTH",
"105 442 OFFCURVE",
"35 385 OFFCURVE",
"35 281 CURVE SMOOTH",
"35 176 OFFCURVE",
"125 78 OFFCURVE",
"229 78 CURVE SMOOTH",
"309 78 OFFCURVE",
"369 126 OFFCURVE",
"369 228 CURVE SMOOTH",
"369 600 LINE",
"307 600 LINE"
);
}
);
};
guideLines = (
{
angle = 90;
position = "{307, 46}";
},
{
angle = 90;
position = "{369, 54}";
}
);
layerId = "8D1DA624-BCA2-432D-8EAC-BD2525041625";
name = Light;
paths = (
{
closed = 1;
nodes = (
"-20 635 LINE",
"-20 580 LINE",
"489 580 LINE",
"489 635 LINE"
);
},
{
closed = 1;
nodes = (
"307 121 LINE SMOOTH",
"307 64 OFFCURVE",
"275 57 OFFCURVE",
"249 57 CURVE SMOOTH",
"159 57 OFFCURVE",
"105 137 OFFCURVE",
"105 216 CURVE SMOOTH",
"105 295 OFFCURVE",
"149 335 OFFCURVE",
"248 335 CURVE SMOOTH",
"269 335 OFFCURVE",
"302 332 OFFCURVE",
"309 330 CURVE",
"309 385 LINE",
"303 387 OFFCURVE",
"268 390 OFFCURVE",
"243 390 CURVE SMOOTH",
"115 390 OFFCURVE",
"40 331 OFFCURVE",
"40 216 CURVE SMOOTH",
"40 101 OFFCURVE",
"135 0 OFFCURVE",
"249 0 CURVE SMOOTH",
"322 0 OFFCURVE",
"369 40 OFFCURVE",
"369 127 CURVE SMOOTH",
"369 600 LINE",
"307 600 LINE"
);
}
);
width = 469;
},
{
anchors = (
{
name = bottom;
position = "{264, 0}";
},
{
name = bottom.HAc2;
position = "{395, 0}";
},
{
name = bottom.VAc2;
position = "{465, 0}";
},
{
name = bottom.virama;
position = "{264, 0}";
},
{
name = top;
position = "{395, 670}";
},
{
name = top.addak;
position = "{395, 670}";
},
{
name = top.bindi;
position = "{395, 670}";
},
{
name = top.tippi;
position = "{395, 670}";
}
);
background = {
paths = (
{
closed = 1;
nodes = (
"-20 670 LINE",
"-20 558 LINE",
"565 558 LINE",
"565 670 LINE"
);
},
{
closed = 1;
nodes = (
"324 257 LINE SMOOTH",
"324 197 OFFCURVE",
"302 172 OFFCURVE",
"258 172 CURVE SMOOTH",
"214 172 OFFCURVE",
"177 215 OFFCURVE",
"177 264 CURVE SMOOTH",
"177 308 OFFCURVE",
"206 336 OFFCURVE",
"253 336 CURVE SMOOTH",
"306 336 OFFCURVE",
"333 331 OFFCURVE",
"339 330 CURVE",
"339 443 LINE",
"328 444 OFFCURVE",
"293 449 OFFCURVE",
"246 449 CURVE SMOOTH",
"129 449 OFFCURVE",
"35 396 OFFCURVE",
"35 275 CURVE SMOOTH",
"35 157 OFFCURVE",
"137 60 OFFCURVE",
"259 60 CURVE SMOOTH",
"392 60 OFFCURVE",
"465 131 OFFCURVE",
"465 241 CURVE SMOOTH",
"465 589 LINE",
"324 589 LINE"
);
}
);
};
layerId = "EDB6D985-9BDA-48FF-B1DC-CE6E1D224CE4";
name = Bold;
paths = (
{
closed = 1;
nodes = (
"-20 670 LINE",
"-20 558 LINE",
"565 558 LINE",
"565 670 LINE"
);
},
{
closed = 1;
nodes = (
"324 207 LINE SMOOTH",
"324 137 OFFCURVE",
"302 112 OFFCURVE",
"263 112 CURVE SMOOTH",
"209 112 OFFCURVE",
"177 173 OFFCURVE",
"177 224 CURVE SMOOTH",
"177 278 OFFCURVE",
"201 306 OFFCURVE",
"263 306 CURVE SMOOTH",
"306 306 OFFCURVE",
"333 301 OFFCURVE",
"339 300 CURVE",
"339 413 LINE",
"328 414 OFFCURVE",
"293 419 OFFCURVE",
"256 419 CURVE SMOOTH",
"127 419 OFFCURVE",
"35 356 OFFCURVE",
"35 235 CURVE SMOOTH",
"35 114 OFFCURVE",
"135 0 OFFCURVE",
"264 0 CURVE SMOOTH",
"392 0 OFFCURVE",
"465 71 OFFCURVE",
"465 191 CURVE SMOOTH",
"465 589 LINE",
"324 589 LINE"
);
}
);
width = 545;
},
{
anchors = (
{
name = bottom;
position = "{234, 78}";
},
{
name = bottom.HAc2;
position = "{343, 0}";
},
{
name = bottom.VAc2;
position = "{374, 0}";
},
{
name = bottom.virama;
position = "{234, 78}";
},
{
name = top;
position = "{343, 635}";
},
{
name = top.addak;
position = "{343, 635}";
},
{
name = top.bindi;
position = "{343, 635}";
},
{
name = top.tippi;
position = "{343, 635}";
}
);
associatedMasterId = "8D1DA624-BCA2-432D-8EAC-BD2525041625";
guideLines = (
{
angle = 90;
position = "{312, 46}";
},
{
angle = 90;
position = "{374, 54}";
}
);
layerId = "19BF177D-E4FE-4265-8FB9-5B2E461DE3DF";
name = "Light Jun 27 15, 14:02";
paths = (
{
closed = 1;
nodes = (
"-20 635 LINE",
"-20 580 LINE",
"494 580 LINE",
"494 635 LINE"
);
},
{
closed = 1;
nodes = (
"312 228 LINE SMOOTH",
"312 160 OFFCURVE",
"277 135 OFFCURVE",
"234 135 CURVE SMOOTH",
"154 135 OFFCURVE",
"105 212 OFFCURVE",
"105 281 CURVE SMOOTH",
"105 354 OFFCURVE",
"144 387 OFFCURVE",
"233 387 CURVE SMOOTH",
"270 387 OFFCURVE",
"303 384 OFFCURVE",
"314 382 CURVE",
"314 437 LINE",
"304 439 OFFCURVE",
"269 442 OFFCURVE",
"228 442 CURVE SMOOTH",
"110 442 OFFCURVE",
"40 385 OFFCURVE",
"40 281 CURVE SMOOTH",
"40 176 OFFCURVE",
"130 78 OFFCURVE",
"234 78 CURVE SMOOTH",
"314 78 OFFCURVE",
"374 126 OFFCURVE",
"374 228 CURVE SMOOTH",
"374 600 LINE",
"312 600 LINE"
);
}
);
width = 474;
},
{
anchors = (
{
name = bottom;
position = "{259, 60}";
},
{
name = bottom.HAc2;
position = "{395, 0}";
},
{
name = bottom.VAc2;
position = "{465, 0}";
},
{
name = bottom.virama;
position = "{259, 60}";
},
{
name = top;
position = "{395, 670}";
},
{
name = top.addak;
position = "{395, 670}";
},
{
name = top.bindi;
position = "{395, 670}";
},
{
name = top.tippi;
position = "{395, 670}";
}
);
associatedMasterId = "EDB6D985-9BDA-48FF-B1DC-CE6E1D224CE4";
layerId = "360D8DFE-3D11-4804-A42B-D75A310C4B5A";
name = "Bold Jun 27 15, 16:52";
paths = (
{
closed = 1;
nodes = (
"-20 670 LINE",
"-20 558 LINE",
"565 558 LINE",
"565 670 LINE"
);
},
{
closed = 1;
nodes = (
"324 257 LINE SMOOTH",
"324 197 OFFCURVE",
"302 172 OFFCURVE",
"258 172 CURVE SMOOTH",
"214 172 OFFCURVE",
"177 215 OFFCURVE",
"177 264 CURVE SMOOTH",
"177 308 OFFCURVE",
"206 336 OFFCURVE",
"253 336 CURVE SMOOTH",
"306 336 OFFCURVE",
"333 331 OFFCURVE",
"339 330 CURVE",
"339 443 LINE",
"328 444 OFFCURVE",
"293 449 OFFCURVE",
"246 449 CURVE SMOOTH",
"129 449 OFFCURVE",
"35 396 OFFCURVE",
"35 275 CURVE SMOOTH",
"35 157 OFFCURVE",
"137 60 OFFCURVE",
"259 60 CURVE SMOOTH",
"392 60 OFFCURVE",
"465 131 OFFCURVE",
"465 241 CURVE SMOOTH",
"465 589 LINE",
"324 589 LINE"
);
}
);
width = 545;
}
);
unicode = 0A30;
},
{
glyphname = grLA;
lastChange = "2015-07-03 10:47:14 +0000";
layers = (
{
anchors = (
{
name = bottom;
position = "{326, 0}";
},
{
name = bottom.HAc2;
position = "{487, -25}";
},
{
name = bottom.VAc2;
position = "{518, -25}";
},
{
name = bottom.virama;
position = "{326, 0}";
},
{
name = top;
position = "{493, 635}";
},
{
name = top.addak;
position = "{326, 635}";
},
{
name = top.bindi;
position = "{326, 635}";
},
{
name = top.tippi;
position = "{326, 635}";
}
);
layerId = "8D1DA624-BCA2-432D-8EAC-BD2525041625";
name = Light;
paths = (
{
closed = 1;
nodes = (
"129 448 OFFCURVE",
"184 342 OFFCURVE",
"300 241 CURVE",
"352 241 LINE",
"468 342 OFFCURVE",
"523 448 OFFCURVE",
"523 598 CURVE",
"463 598 LINE",
"463 444 OFFCURVE",
"401 357 OFFCURVE",
"302 276 CURVE",
"351 276 LINE",
"249 357 OFFCURVE",
"189 444 OFFCURVE",
"189 596 CURVE",
"129 596 LINE"
);
},
{
closed = 1;
nodes = (
"117 372 OFFCURVE",
"50 298 OFFCURVE",
"50 191 CURVE SMOOTH",
"50 101 OFFCURVE",
"100 38 OFFCURVE",
"134 0 CURVE",
"209 0 LINE",
"170 42 OFFCURVE",
"114 107 OFFCURVE",
"114 191 CURVE SMOOTH",
"114 276 OFFCURVE",
"165 328 OFFCURVE",
"230 343 CURVE",
"209 396 LINE"
);
},
{
closed = 1;
nodes = (
"422 343 LINE",
"487 328 OFFCURVE",
"538 276 OFFCURVE",
"538 191 CURVE SMOOTH",
"538 107 OFFCURVE",
"482 42 OFFCURVE",
"443 0 CURVE",
"518 0 LINE",
"552 38 OFFCURVE",
"602 101 OFFCURVE",
"602 191 CURVE SMOOTH",
"602 298 OFFCURVE",
"535 372 OFFCURVE",
"443 396 CURVE"
);
},
{
closed = 1;
nodes = (
"672 580 LINE",
"672 635 LINE",
"-20 635 LINE",
"-20 580 LINE"
);
}
);
width = 652;
},
{
anchors = (
{
name = bottom;
position = "{358, 0}";
},
{
name = bottom.HAc2;
position = "{540, -30}";
},
{
name = bottom.VAc2;
position = "{610, -30}";
},
{
name = bottom.virama;
position = "{358, 0}";
},
{
name = top;
position = "{510, 670}";
},
{
name = top.addak;
position = "{355, 670}";
},
{
name = top.bindi;
position = "{355, 670}";
},
{
name = top.tippi;
position = "{355, 670}";
}
);
layerId = "EDB6D985-9BDA-48FF-B1DC-CE6E1D224CE4";
name = Bold;
paths = (
{
closed = 1;
nodes = (
"120 446 OFFCURVE",
"193 339 OFFCURVE",
"300 219 CURVE",
"414 219 LINE",
"508 320 OFFCURVE",
"590 442 OFFCURVE",
"590 579 CURVE",
"450 579 LINE",
"450 465 OFFCURVE",
"407 375 OFFCURVE",
"334 305 CURVE",
"376 305 LINE",
"301 375 OFFCURVE",
"260 465 OFFCURVE",
"260 579 CURVE",
"120 579 LINE"
);
},
{
closed = 1;
nodes = (
"130 410 OFFCURVE",
"35 312 OFFCURVE",
"35 189 CURVE SMOOTH",
"35 100 OFFCURVE",
"76 38 OFFCURVE",
"106 0 CURVE",
"260 0 LINE",
"203 60 OFFCURVE",
"177 115 OFFCURVE",
"177 174 CURVE SMOOTH",
"177 245 OFFCURVE",
"229 298 OFFCURVE",
"308 312 CURVE",
"238 425 LINE"
);
},
{
closed = 1;
nodes = (
"408 312 LINE",
"487 298 OFFCURVE",
"539 245 OFFCURVE",
"539 174 CURVE SMOOTH",
"539 115 OFFCURVE",
"511 60 OFFCURVE",
"456 0 CURVE",
"610 0 LINE",
"640 38 OFFCURVE",
"681 100 OFFCURVE",
"681 189 CURVE SMOOTH",
"681 312 OFFCURVE",
"586 410 OFFCURVE",
"478 425 CURVE"
);
},
{
closed = 1;
nodes = (
"736 558 LINE",
"736 670 LINE",
"-20 670 LINE",
"-20 558 LINE"
);
}
);
width = 716;
},
{
anchors = (
{
name = bottom;
position = "{326, 29}";
},
{
name = bottom.HAc2;
position = "{487, 4}";
},
{
name = bottom.VAc2;
position = "{518, 4}";
},
{
name = bottom.virama;
position = "{326, 29}";
},
{
name = top;
position = "{493, 635}";
},
{
name = top.addak;
position = "{326, 635}";
},
{
name = top.bindi;
position = "{326, 635}";
},
{
name = top.tippi;
position = "{326, 635}";
}
);
associatedMasterId = "8D1DA624-BCA2-432D-8EAC-BD2525041625";
layerId = "4C4AD840-662F-4056-BB24-BAA4915E4377";
name = "Light Jun 27 15, 15:22";
paths = (
{
closed = 1;
nodes = (
"129 448 OFFCURVE",
"184 362 OFFCURVE",
"300 261 CURVE",
"352 261 LINE",
"468 362 OFFCURVE",
"523 448 OFFCURVE",
"523 598 CURVE",
"463 598 LINE",
"463 464 OFFCURVE",
"401 377 OFFCURVE",
"302 296 CURVE",
"351 296 LINE",
"249 377 OFFCURVE",
"189 464 OFFCURVE",
"189 596 CURVE",
"129 596 LINE"
);
},
{
closed = 1;
nodes = (
"117 386 OFFCURVE",
"50 312 OFFCURVE",
"50 215 CURVE SMOOTH",
"50 125 OFFCURVE",
"100 67 OFFCURVE",
"134 29 CURVE",
"209 29 LINE",
"170 71 OFFCURVE",
"114 131 OFFCURVE",
"114 215 CURVE SMOOTH",
"114 290 OFFCURVE",
"165 342 OFFCURVE",
"230 357 CURVE",
"209 410 LINE"
);
},
{
closed = 1;
nodes = (
"422 357 LINE",
"487 342 OFFCURVE",
"538 290 OFFCURVE",
"538 215 CURVE SMOOTH",
"538 131 OFFCURVE",
"482 71 OFFCURVE",
"443 29 CURVE",
"518 29 LINE",
"552 67 OFFCURVE",
"602 125 OFFCURVE",
"602 215 CURVE SMOOTH",
"602 312 OFFCURVE",
"535 386 OFFCURVE",
"443 410 CURVE"
);
},
{
closed = 1;
nodes = (
"672 580 LINE",
"672 635 LINE",
"-20 635 LINE",
"-20 580 LINE"
);
}
);
width = 652;
},
{
anchors = (
{
name = bottom;
position = "{358, 15}";
},
{
name = bottom.HAc2;
position = "{540, -15}";
},
{
name = bottom.VAc2;
position = "{610, -15}";
},
{
name = bottom.virama;
position = "{358, 15}";
},
{
name = top;
position = "{510, 670}";
},
{
name = top.addak;
position = "{355, 670}";
},
{
name = top.bindi;
position = "{355, 670}";
},
{
name = top.tippi;
position = "{355, 670}";
}
);
associatedMasterId = "EDB6D985-9BDA-48FF-B1DC-CE6E1D224CE4";
layerId = "C4D7C666-F8AE-4C62-A6E0-F05CEE1F81CC";
name = "Bold Jun 27 15, 18:29";
paths = (
{
closed = 1;
nodes = (
"130 451 OFFCURVE",
"193 344 OFFCURVE",
"300 224 CURVE",
"414 224 LINE",
"508 325 OFFCURVE",
"580 447 OFFCURVE",
"580 584 CURVE",
"440 584 LINE",
"440 470 OFFCURVE",
"407 390 OFFCURVE",
"334 310 CURVE",
"376 310 LINE",
"301 390 OFFCURVE",
"270 470 OFFCURVE",
"270 584 CURVE",
"130 584 LINE"
);
},
{
closed = 1;
nodes = (
"130 420 OFFCURVE",
"35 322 OFFCURVE",
"35 204 CURVE SMOOTH",
"35 115 OFFCURVE",
"76 53 OFFCURVE",
"106 15 CURVE",
"260 15 LINE",
"203 75 OFFCURVE",
"177 130 OFFCURVE",
"177 189 CURVE SMOOTH",
"177 255 OFFCURVE",
"229 308 OFFCURVE",
"308 322 CURVE",
"238 435 LINE"
);
},
{
closed = 1;
nodes = (
"408 322 LINE",
"487 308 OFFCURVE",
"539 255 OFFCURVE",
"539 189 CURVE SMOOTH",
"539 130 OFFCURVE",
"511 75 OFFCURVE",
"456 15 CURVE",
"610 15 LINE",
"640 53 OFFCURVE",
"681 115 OFFCURVE",
"681 204 CURVE SMOOTH",
"681 322 OFFCURVE",
"586 420 OFFCURVE",
"478 435 CURVE"
);
},
{
closed = 1;
nodes = (
"736 558 LINE",
"736 670 LINE",
"-20 670 LINE",
"-20 558 LINE"
);
}
);
width = 716;
}
);
unicode = 0A32;
},
{
glyphname = grVA;
lastChange = "2015-07-03 10:47:14 +0000";
layers = (
{
anchors = (
{
name = bottom;
position = "{290, 0}";
},
{
name = bottom.HAc2;
position = "{384, 0}";
},
{
name = bottom.VAc2;
position = "{415, 0}";
},
{
name = bottom.virama;
position = "{301, 0}";
},
{
name = top;
position = "{384, 635}";
},
{
name = top.addak;
position = "{384, 635}";
},
{
name = top.bindi;
position = "{384, 635}";
},
{
name = top.tippi;
position = "{384, 635}";
}
);
guideLines = (
{
angle = 90;
position = "{308, 335}";
showMeasurement = 1;
}
);
layerId = "8D1DA624-BCA2-432D-8EAC-BD2525041625";
name = Light;
paths = (
{
closed = 1;
nodes = (
"415 580 LINE",
"535 580 LINE",
"535 635 LINE",
"-20 635 LINE",
"-20 580 LINE",
"353 580 LINE",
"353 493 LINE",
"234 493 LINE SMOOTH",
"107 493 OFFCURVE",
"40 442 OFFCURVE",
"40 356 CURVE SMOOTH",
"40 270 OFFCURVE",
"115 219 OFFCURVE",
"242 219 CURVE SMOOTH",
"415 219 LINE",
"415 274 LINE",
"246 274 LINE SMOOTH",
"146 274 OFFCURVE",
"104 301 OFFCURVE",
"104 356 CURVE SMOOTH",
"104 411 OFFCURVE",
"141 438 OFFCURVE",
"241 438 CURVE SMOOTH",
"415 438 LINE"
);
},
{
closed = 1;
nodes = (
"415 57 LINE",
"308 57 LINE SMOOTH",
"236 57 OFFCURVE",
"193 88 OFFCURVE",
"193 138 CURVE SMOOTH",
"193 188 OFFCURVE",
"234 218 OFFCURVE",
"297 219 CURVE",
"297 264 LINE",
"199 264 OFFCURVE",
"129 217 OFFCURVE",
"129 138 CURVE SMOOTH",
"129 55 OFFCURVE",
"192 -1 OFFCURVE",
"306 -1 CURVE SMOOTH",
"415 -1 LINE"
);
}
);
width = 515;
},
{
anchors = (
{
name = bottom;
position = "{287, -9}";
},
{
name = bottom.HAc2;
position = "{394, 3}";
},
{
name = bottom.VAc2;
position = "{464, 0}";
},
{
name = bottom.virama;
position = "{309, -9}";
},
{
name = top;
position = "{394, 670}";
},
{
name = top.addak;
position = "{394, 670}";
},
{
name = top.bindi;
position = "{394, 670}";
},
{
name = top.tippi;
position = "{394, 670}";
}
);
guideLines = (
{
angle = 90;
position = "{379, 333}";
showMeasurement = 1;
}
);
layerId = "EDB6D985-9BDA-48FF-B1DC-CE6E1D224CE4";
name = Bold;
paths = (
{
closed = 1;
nodes = (
"464 558 LINE",
"564 558 LINE",
"564 670 LINE",
"-20 670 LINE",
"-20 558 LINE",
"324 558 LINE",
"324 503 LINE",
"259 503 LINE SMOOTH",
"127 503 OFFCURVE",
"45 449 OFFCURVE",
"45 346 CURVE SMOOTH",
"45 243 OFFCURVE",
"137 187 OFFCURVE",
"313 187 CURVE SMOOTH",
"464 187 LINE",
"464 297 LINE",
"300 297 LINE SMOOTH",
"222 297 OFFCURVE",
"188 304 OFFCURVE",
"188 345 CURVE SMOOTH",
"188 386 OFFCURVE",
"222 393 OFFCURVE",
"300 393 CURVE SMOOTH",
"464 393 LINE"
);
},
{
closed = 1;
nodes = (
"464 101 LINE",
"369 101 LINE SMOOTH",
"313 101 OFFCURVE",
"271 102 OFFCURVE",
"271 144 CURVE SMOOTH",
"271 186 OFFCURVE",
"315 187 OFFCURVE",
"366 187 CURVE",
"366 282 LINE",
"248 279 OFFCURVE",
"130 249 OFFCURVE",
"130 144 CURVE SMOOTH",
"130 35 OFFCURVE",
"213 -9 OFFCURVE",
"369 -9 CURVE SMOOTH",
"464 -9 LINE"
);
}
);
width = 544;
},
{
anchors = (
{
name = bottom;
position = "{297, -78}";
},
{
name = bottom.HAc2;
position = "{404, -67}";
},
{
name = bottom.VAc2;
position = "{474, -108}";
},
{
name = bottom.virama;
position = "{319, -78}";
},
{
name = top;
position = "{404, 670}";
},
{
name = top.addak;
position = "{404, 670}";
},
{
name = top.bindi;
position = "{404, 670}";
},
{
name = top.tippi;
position = "{404, 670}";
}
);
associatedMasterId = "EDB6D985-9BDA-48FF-B1DC-CE6E1D224CE4";
layerId = "C979843C-D4D2-46BC-9BFE-B24F47B773B5";
name = "Bold Jun 27 15, 18:51";
paths = (
{
closed = 1;
nodes = (
"474 558 LINE",
"574 558 LINE",
"574 670 LINE",
"-20 670 LINE",
"-20 558 LINE",
"334 558 LINE",
"334 500 LINE",
"259 500 LINE SMOOTH",
"127 500 OFFCURVE",
"45 431 OFFCURVE",
"45 328 CURVE SMOOTH",
"45 225 OFFCURVE",
"137 156 OFFCURVE",
"313 156 CURVE SMOOTH",
"474 156 LINE",
"474 266 LINE",
"304 266 LINE SMOOTH",
"226 266 OFFCURVE",
"188 285 OFFCURVE",
"188 328 CURVE SMOOTH",
"188 373 OFFCURVE",
"229 388 OFFCURVE",
"307 388 CURVE SMOOTH",
"474 388 LINE"
);
},
{
closed = 1;
nodes = (
"474 40 LINE",
"349 40 LINE SMOOTH",
"286 40 OFFCURVE",
"251 58 OFFCURVE",
"251 98 CURVE SMOOTH",
"251 142 OFFCURVE",
"290 156 OFFCURVE",
"346 156 CURVE",
"346 251 LINE",
"228 248 OFFCURVE",
"110 203 OFFCURVE",
"110 98 CURVE SMOOTH",
"110 -11 OFFCURVE",
"193 -78 OFFCURVE",
"349 -78 CURVE SMOOTH",
"474 -78 LINE"
);
}
);
width = 554;
visible = 1;
}
);
unicode = 0A35;
},
{
glyphname = grSA;
lastChange = "2015-07-03 10:47:14 +0000";
layers = (
{
anchors = (
{
name = bottom;
position = "{268, 0}";
},
{
name = bottom.HAc2;
position = "{421, 0}";
},
{
name = bottom.VAc2;
position = "{452, 0}";
},
{
name = bottom.virama;
position = "{421, 0}";
},
{
name = top;
position = "{421, 635}";
},
{
name = top.addak;
position = "{421, 635}";
},
{
name = top.bindi;
position = "{421, 635}";
},
{
name = top.tippi;
position = "{421, 635}";
}
);
layerId = "8D1DA624-BCA2-432D-8EAC-BD2525041625";
name = Light;
paths = (
{
closed = 1;
nodes = (
"-20 580 LINE",
"572 580 LINE",
"572 635 LINE",
"-20 635 LINE"
);
},
{
closed = 1;
nodes = (
"452 0 LINE",
"452 589 LINE",
"390 589 LINE",
"390 0 LINE"
);
},
{
closed = 1;
nodes = (
"410 295 LINE",
"410 350 LINE",
"157 350 LINE",
"157 295 LINE"
);
},
{
closed = 1;
nodes = (
"42 602 LINE",
"83 543 OFFCURVE",
"104 461 OFFCURVE",
"104 379 CURVE SMOOTH",
"104 301 OFFCURVE",
"75 214 OFFCURVE",
"41 146 CURVE",
"104 146 LINE",
"142 217 OFFCURVE",
"168 291 OFFCURVE",
"168 379 CURVE SMOOTH",
"168 479 OFFCURVE",
"132 576 OFFCURVE",
"99 631 CURVE"
);
}
);
width = 552;
},
{
anchors = (
{
name = bottom;
position = "{367, 0}";
},
{
name = bottom.HAc2;
position = "{511, 10}";
},
{
name = bottom.VAc2;
position = "{581, 10}";
},
{
name = bottom.virama;
position = "{511, 0}";
},
{
name = top;
position = "{511, 670}";
},
{
name = top.addak;
position = "{511, 670}";
},
{
name = top.bindi;
position = "{511, 670}";
},
{
name = top.tippi;
position = "{511, 670}";
}
);
layerId = "EDB6D985-9BDA-48FF-B1DC-CE6E1D224CE4";
name = Bold;
paths = (
{
closed = 1;
nodes = (
"-20 558 LINE",
"681 558 LINE",
"681 670 LINE",
"-20 670 LINE"
);
},
{
closed = 1;
nodes = (
"581 0 LINE",
"581 569 LINE",
"441 569 LINE",
"441 0 LINE"
);
},
{
closed = 1;
nodes = (
"451 251 LINE",
"451 363 LINE",
"262 363 LINE",
"262 251 LINE"
);
},
{
closed = 1;
nodes = (
"51 608 LINE",
"102 552 OFFCURVE",
"143 466 OFFCURVE",
"143 383 CURVE SMOOTH",
"143 300 OFFCURVE",
"121 224 OFFCURVE",
"69 133 CURVE",
"223 133 LINE",
"270 219 OFFCURVE",
"288 288 OFFCURVE",
"288 381 CURVE SMOOTH",
"288 489 OFFCURVE",
"236 610 OFFCURVE",
"190 670 CURVE"
);
}
);
width = 661;
}
);
unicode = 0A38;
},
{
glyphname = grHA;
lastChange = "2015-07-03 10:47:14 +0000";
layers = (
{
anchors = (
{
name = bottom;
position = "{250, 0}";
},
{
name = bottom.HAc2;
position = "{353, 0}";
},
{
name = bottom.VAc2;
position = "{384, 0}";
},
{
name = bottom.virama;
position = "{250, 0}";
},
{
name = top;
position = "{353, 635}";
},
{
name = top.addak;
position = "{353, 635}";
},
{
name = top.bindi;
position = "{353, 635}";
},
{
name = top.tippi;
position = "{353, 635}";
}
);
background = {
paths = (
{
closed = 1;
nodes = (
"-20 635 LINE",
"-20 580 LINE",
"504 580 LINE",
"504 635 LINE"
);
},
{
closed = 1;
nodes = (
"235 441 LINE",
"117 447 OFFCURVE",
"40 393 OFFCURVE",
"40 281 CURVE SMOOTH",
"40 176 OFFCURVE",
"130 78 OFFCURVE",
"234 78 CURVE SMOOTH",
"324 78 OFFCURVE",
"384 126 OFFCURVE",
"384 228 CURVE SMOOTH",
"384 600 LINE",
"322 600 LINE",
"322 228 LINE SMOOTH",
"322 160 OFFCURVE",
"287 135 OFFCURVE",
"234 135 CURVE SMOOTH",
"154 135 OFFCURVE",
"105 212 OFFCURVE",
"105 281 CURVE SMOOTH",
"105 360 OFFCURVE",
"151 393 OFFCURVE",
"235 387 CURVE"
);
}
);
};
guideLines = (
{
position = "{56, 223}";
}
);
layerId = "8D1DA624-BCA2-432D-8EAC-BD2525041625";
name = Light;
paths = (
{
closed = 1;
nodes = (
"-20 635 LINE",
"-20 580 LINE",
"504 580 LINE",
"504 635 LINE"
);
},
{
closed = 1;
nodes = (
"235 391 LINE",
"110 397 OFFCURVE",
"40 341 OFFCURVE",
"40 223 CURVE SMOOTH",
"40 96 OFFCURVE",
"143 0 OFFCURVE",
"264 0 CURVE SMOOTH",
"337 0 OFFCURVE",
"384 40 OFFCURVE",
"384 127 CURVE SMOOTH",
"384 600 LINE",
"322 600 LINE",
"322 121 LINE SMOOTH",
"322 64 OFFCURVE",
"290 57 OFFCURVE",
"264 57 CURVE SMOOTH",
"172 57 OFFCURVE",
"105 127 OFFCURVE",
"105 223 CURVE SMOOTH",
"105 308 OFFCURVE",
"145 343 OFFCURVE",
"235 337 CURVE"
);
}
);
width = 484;
},
{
anchors = (
{
name = bottom;
position = "{269, 0}";
},
{
name = bottom.HAc2;
position = "{405, 0}";
},
{
name = bottom.VAc2;
position = "{475, 0}";
},
{
name = bottom.virama;
position = "{269, 0}";
},
{
name = top;
position = "{405, 670}";
},
{
name = top.addak;
position = "{405, 670}";
},
{
name = top.bindi;
position = "{405, 670}";
},
{
name = top.tippi;
position = "{405, 670}";
}
);
background = {
paths = (
{
closed = 1;
nodes = (
"-20 670 LINE",
"-20 558 LINE",
"575 558 LINE",
"575 670 LINE"
);
},
{
closed = 1;
nodes = (
"334 207 LINE SMOOTH",
"334 137 OFFCURVE",
"317 112 OFFCURVE",
"268 112 CURVE SMOOTH",
"212 112 OFFCURVE",
"177 170 OFFCURVE",
"177 224 CURVE SMOOTH",
"177 278 OFFCURVE",
"204 306 OFFCURVE",
"268 306 CURVE SMOOTH",
"311 306 OFFCURVE",
"343 301 OFFCURVE",
"349 300 CURVE",
"349 413 LINE",
"338 414 OFFCURVE",
"298 419 OFFCURVE",
"261 419 CURVE SMOOTH",
"132 419 OFFCURVE",
"35 356 OFFCURVE",
"35 235 CURVE SMOOTH",
"35 114 OFFCURVE",
"140 0 OFFCURVE",
"269 0 CURVE SMOOTH",
"407 0 OFFCURVE",
"475 71 OFFCURVE",
"475 191 CURVE SMOOTH",
"475 589 LINE",
"334 589 LINE"
);
}
);
};
guideLines = (
{
position = "{65, 229}";
}
);
layerId = "EDB6D985-9BDA-48FF-B1DC-CE6E1D224CE4";
name = Bold;
paths = (
{
closed = 1;
nodes = (
"-20 670 LINE",
"-20 558 LINE",
"575 558 LINE",
"575 670 LINE"
);
},
{
closed = 1;
nodes = (
"262 414 LINE",
"128 431 OFFCURVE",
"35 368 OFFCURVE",
"35 240 CURVE SMOOTH",
"35 110 OFFCURVE",
"142 0 OFFCURVE",
"269 0 CURVE SMOOTH",
"407 0 OFFCURVE",
"475 71 OFFCURVE",
"475 191 CURVE SMOOTH",
"475 589 LINE",
"334 589 LINE",
"334 204 LINE SMOOTH",
"334 134 OFFCURVE",
"316 112 OFFCURVE",
"268 112 CURVE SMOOTH",
"216 112 OFFCURVE",
"177 165 OFFCURVE",
"177 229 CURVE SMOOTH",
"177 283 OFFCURVE",
"208 306 OFFCURVE",
"262 302 CURVE"
);
}
);
width = 555;
},
{
anchors = (
{
name = bottom;
position = "{234, 78}";
},
{
name = bottom.HAc2;
position = "{353, 0}";
},
{
name = bottom.VAc2;
position = "{384, 0}";
},
{
name = bottom.virama;
position = "{234, 78}";
},
{
name = top;
position = "{353, 635}";
},
{
name = top.addak;
position = "{353, 635}";
},
{
name = top.bindi;
position = "{353, 635}";
},
{
name = top.tippi;
position = "{353, 635}";
}
);
associatedMasterId = "8D1DA624-BCA2-432D-8EAC-BD2525041625";
layerId = "67B022C0-8AE5-4112-929F-348D197C7613";
name = "Light Jun 27 15, 14:03";
paths = (
{
closed = 1;
nodes = (
"-20 635 LINE",
"-20 580 LINE",
"504 580 LINE",
"504 635 LINE"
);
},
{
closed = 1;
nodes = (
"235 441 LINE",
"117 447 OFFCURVE",
"40 393 OFFCURVE",
"40 281 CURVE SMOOTH",
"40 176 OFFCURVE",
"130 78 OFFCURVE",
"234 78 CURVE SMOOTH",
"324 78 OFFCURVE",
"384 126 OFFCURVE",
"384 228 CURVE SMOOTH",
"384 600 LINE",
"322 600 LINE",
"322 228 LINE SMOOTH",
"322 160 OFFCURVE",
"287 135 OFFCURVE",
"234 135 CURVE SMOOTH",
"154 135 OFFCURVE",
"105 212 OFFCURVE",
"105 281 CURVE SMOOTH",
"105 360 OFFCURVE",
"151 393 OFFCURVE",
"235 387 CURVE"
);
}
);
width = 484;
},
{
anchors = (
{
name = bottom;
position = "{234, 78}";
},
{
name = bottom.HAc2;
position = "{353, 0}";
},
{
name = bottom.VAc2;
position = "{384, 0}";
},
{
name = bottom.virama;
position = "{234, 78}";
},
{
name = top;
position = "{353, 635}";
},
{
name = top.addak;
position = "{353, 635}";
},
{
name = top.bindi;
position = "{353, 635}";
},
{
name = top.tippi;
position = "{353, 635}";
}
);
associatedMasterId = "8D1DA624-BCA2-432D-8EAC-BD2525041625";
background = {
paths = (
{
closed = 1;
nodes = (
"-20 635 LINE",
"-20 580 LINE",
"504 580 LINE",
"504 635 LINE"
);
},
{
closed = 1;
nodes = (
"235 441 LINE",
"117 447 OFFCURVE",
"40 393 OFFCURVE",
"40 281 CURVE SMOOTH",
"40 176 OFFCURVE",
"130 78 OFFCURVE",
"234 78 CURVE SMOOTH",
"324 78 OFFCURVE",
"384 126 OFFCURVE",
"384 228 CURVE SMOOTH",
"384 600 LINE",
"322 600 LINE",
"322 228 LINE SMOOTH",
"322 160 OFFCURVE",
"287 135 OFFCURVE",
"234 135 CURVE SMOOTH",
"154 135 OFFCURVE",
"105 212 OFFCURVE",
"105 281 CURVE SMOOTH",
"105 360 OFFCURVE",
"151 393 OFFCURVE",
"235 387 CURVE"
);
}
);
};
layerId = "6F9B9933-1695-433B-B7AF-6C0F90ADF0B6";
name = "Light Jun 27 15, 14:05";
paths = (
{
closed = 1;
nodes = (
"-20 635 LINE",
"-20 580 LINE",
"504 580 LINE",
"504 635 LINE"
);
},
{
closed = 1;
nodes = (
"322 121 LINE SMOOTH",
"322 64 OFFCURVE",
"290 57 OFFCURVE",
"264 57 CURVE SMOOTH",
"164 57 OFFCURVE",
"105 137 OFFCURVE",
"105 216 CURVE SMOOTH",
"105 295 OFFCURVE",
"154 335 OFFCURVE",
"253 335 CURVE SMOOTH",
"274 335 OFFCURVE",
"307 332 OFFCURVE",
"314 330 CURVE",
"314 385 LINE",
"308 387 OFFCURVE",
"273 390 OFFCURVE",
"248 390 CURVE SMOOTH",
"120 390 OFFCURVE",
"40 331 OFFCURVE",
"40 216 CURVE SMOOTH",
"40 101 OFFCURVE",
"140 0 OFFCURVE",
"264 0 CURVE SMOOTH",
"337 0 OFFCURVE",
"384 40 OFFCURVE",
"384 127 CURVE SMOOTH",
"384 600 LINE",
"322 600 LINE"
);
}
);
width = 484;
},
{
anchors = (
{
name = bottom;
position = "{269, 60}";
},
{
name = bottom.HAc2;
position = "{405, 0}";
},
{
name = bottom.VAc2;
position = "{475, 0}";
},
{
name = bottom.virama;
position = "{269, 60}";
},
{
name = top;
position = "{405, 670}";
},
{
name = top.addak;
position = "{405, 670}";
},
{
name = top.bindi;
position = "{405, 670}";
},
{
name = top.tippi;
position = "{405, 670}";
}
);
associatedMasterId = "EDB6D985-9BDA-48FF-B1DC-CE6E1D224CE4";
layerId = "CC82B50A-241F-4A40-825B-CE231CF1797F";
name = "Bold Jun 27 15, 16:55";
paths = (
{
closed = 1;
nodes = (
"-20 670 LINE",
"-20 558 LINE",
"575 558 LINE",
"575 670 LINE"
);
},
{
closed = 1;
nodes = (
"257 444 LINE",
"118 462 OFFCURVE",
"35 392 OFFCURVE",
"35 275 CURVE SMOOTH",
"35 157 OFFCURVE",
"137 60 OFFCURVE",
"269 60 CURVE SMOOTH",
"402 60 OFFCURVE",
"475 131 OFFCURVE",
"475 241 CURVE SMOOTH",
"475 589 LINE",
"334 589 LINE",
"334 257 LINE SMOOTH",
"334 197 OFFCURVE",
"312 172 OFFCURVE",
"268 172 CURVE SMOOTH",
"214 172 OFFCURVE",
"177 215 OFFCURVE",
"177 264 CURVE SMOOTH",
"177 302 OFFCURVE",
"194 337 OFFCURVE",
"257 332 CURVE"
);
}
);
width = 555;
}
);
unicode = 0A39;
},
{
glyphname = grRRA;
lastChange = "2015-07-03 10:47:14 +0000";
layers = (
{
anchors = (
{
name = bottom;
position = "{255, -92}";
},
{
name = bottom.HAc2;
position = "{452, -109}";
},
{
name = bottom.VAc2;
position = "{483, -109}";
},
{
name = bottom.virama;
position = "{278, -92}";
},
{
name = top;
position = "{321, 635}";
},
{
name = top.addak;
position = "{321, 635}";
},
{
name = top.bindi;
position = "{321, 635}";
},
{
name = top.tippi;
position = "{321, 635}";
}
);
background = {
anchors = (
{
name = top;
position = "{321, 635}";
}
);
};
layerId = "8D1DA624-BCA2-432D-8EAC-BD2525041625";
name = Light;
paths = (
{
closed = 1;
nodes = (
"-20 580 LINE",
"-20 635 LINE",
"529 635 LINE",
"529 580 LINE"
);
},
{
closed = 1;
nodes = (
"397 564 OFFCURVE",
"426 536 OFFCURVE",
"426 482 CURVE SMOOTH",
"426 408 OFFCURVE",
"378 353 OFFCURVE",
"319 335 CURVE",
"171 338 LINE",
"171 372 LINE",
"241 372 LINE SMOOTH",
"337 372 OFFCURVE",
"364 422 OFFCURVE",
"364 481 CURVE SMOOTH",
"364 528 OFFCURVE",
"338 561 OFFCURVE",
"310 580 CURVE",
"382 580 LINE"
);
},
{
closed = 1;
nodes = (
"392 341 OFFCURVE",
"459 294 OFFCURVE",
"459 195 CURVE SMOOTH",
"459 97 OFFCURVE",
"382 17 OFFCURVE",
"241 17 CURVE SMOOTH",
"149 17 OFFCURVE",
"76 65 OFFCURVE",
"30 92 CURVE",
"30 141 LINE",
"86 105 OFFCURVE",
"168 72 OFFCURVE",
"241 72 CURVE SMOOTH",
"348 72 OFFCURVE",
"397 122 OFFCURVE",
"397 198 CURVE SMOOTH",
"397 280 OFFCURVE",
"337 317 OFFCURVE",
"238 317 CURVE SMOOTH",
"171 317 LINE",
"171 353 LINE",
"319 355 LINE"
);
},
{
closed = 1;
nodes = (
"216 -92 LINE",
"30 87 LINE",
"30 102 LINE",
"129 64 LINE",
"293 -92 LINE"
);
},
{
closed = 1;
nodes = (
"405 -92 LINE",
"249 47 LINE",
"317 60 LINE",
"483 -92 LINE"
);
}
);
width = 509;
},
{
anchors = (
{
name = bottom;
position = "{277, -99}";
},
{
name = bottom.HAc2;
position = "{476, -108}";
},
{
name = bottom.VAc2;
position = "{546, -108}";
},
{
name = bottom.virama;
position = "{291, -99}";
},
{
name = top;
position = "{335, 670}";
},
{
name = top.addak;
position = "{335, 670}";
},
{
name = top.bindi;
position = "{335, 670}";
},
{
name = top.tippi;
position = "{335, 670}";
}
);
layerId = "EDB6D985-9BDA-48FF-B1DC-CE6E1D224CE4";
name = Bold;
paths = (
{
closed = 1;
nodes = (
"-20 558 LINE",
"-20 670 LINE",
"574 670 LINE",
"574 558 LINE"
);
},
{
closed = 1;
nodes = (
"450 558 OFFCURVE",
"474 529 OFFCURVE",
"474 483 CURVE SMOOTH",
"474 417 OFFCURVE",
"420 356 OFFCURVE",
"332 343 CURVE",
"161 343 LINE",
"161 410 LINE",
"218 410 LINE SMOOTH",
"291 410 OFFCURVE",
"332 437 OFFCURVE",
"332 488 CURVE SMOOTH",
"332 527 OFFCURVE",
"304 557 OFFCURVE",
"273 569 CURVE",
"436 569 LINE"
);
},
{
closed = 1;
nodes = (
"449 353 OFFCURVE",
"509 293 OFFCURVE",
"509 199 CURVE SMOOTH",
"509 77 OFFCURVE",
"410 15 OFFCURVE",
"256 15 CURVE SMOOTH",
"186 15 OFFCURVE",
"96 38 OFFCURVE",
"40 66 CURVE",
"40 176 LINE",
"78 160 OFFCURVE",
"175 128 OFFCURVE",
"244 128 CURVE SMOOTH",
"334 128 OFFCURVE",
"367 160 OFFCURVE",
"367 212 CURVE SMOOTH",
"367 271 OFFCURVE",
"321 297 OFFCURVE",
"222 297 CURVE SMOOTH",
"161 297 LINE",
"161 363 LINE",
"342 363 LINE"
);
},
{
closed = 1;
nodes = (
"196 -99 LINE",
"40 66 LINE",
"40 140 LINE",
"144 106 LINE",
"341 -99 LINE"
);
},
{
closed = 1;
nodes = (
"401 -99 LINE",
"245 66 LINE",
"349 106 LINE",
"546 -99 LINE"
);
}
);
width = 554;
}
);
unicode = 0A5C;
},
{
glyphname = grJxA;
lastChange = "2015-07-03 10:47:14 +0000";
layers = (
{
anchors = (
{
name = bottom;
position = "{272, 0}";
},
{
name = bottom.HAc2;
position = "{416, -94}";
},
{
name = bottom.VAc2;
position = "{447, -94}";
},
{
name = bottom.virama;
position = "{416, 0}";
},
{
name = top;
position = "{416, 635}";
},
{
name = top.addak;
position = "{416, 635}";
},
{
name = top.tippi;
position = "{416, 635}";
}
);
components = (
{
disableAlignment = 1;
name = grNukta;
transform = "{1, 0, 0, 1, 194, 21}";
}
);
guideLines = (
{
position = "{271, 298}";
}
);
layerId = "8D1DA624-BCA2-432D-8EAC-BD2525041625";
name = Light;
paths = (
{
closed = 1;
nodes = (
"-20 635 LINE",
"-20 580 LINE",
"385 580 LINE",
"385 353 LINE",
"97 353 LINE",
"97 298 LINE",
"385 298 LINE",
"385 0 LINE",
"447 0 LINE",
"447 580 LINE",
"567 580 LINE",
"567 635 LINE"
);
},
{
closed = 1;
nodes = (
"68 404 OFFCURVE",
"41 367 OFFCURVE",
"41 343 CURVE SMOOTH",
"41 314 OFFCURVE",
"59 298 OFFCURVE",
"90 298 CURVE",
"90 0 LINE",
"152 0 LINE",
"152 425 LINE",
"88 425 LINE"
);
}
);
width = 547;
},
{
anchors = (
{
name = bottom;
position = "{305, -122}";
},
{
name = bottom.HAc2;
position = "{465, -161}";
},
{
name = bottom.VAc2;
position = "{535, -161}";
},
{
name = bottom.virama;
position = "{465, -60}";
},
{
name = top;
position = "{465, 670}";
},
{
name = top.addak;
position = "{465, 670}";
},
{
name = top.tippi;
position = "{465, 670}";
}
);
components = (
{
disableAlignment = 1;
name = grNukta;
transform = "{1, 0, 0, 1, 216, -28}";
}
);
guideLines = (
{
position = "{271, 274}";
}
);
layerId = "EDB6D985-9BDA-48FF-B1DC-CE6E1D224CE4";
name = Bold;
paths = (
{
closed = 1;
nodes = (
"-20 670 LINE",
"-20 558 LINE",
"395 558 LINE",
"395 386 LINE",
"80 386 LINE",
"80 274 LINE",
"395 274 LINE",
"395 0 LINE",
"535 0 LINE",
"535 558 LINE",
"635 558 LINE",
"635 670 LINE"
);
},
{
closed = 1;
nodes = (
"65 430 OFFCURVE",
"17 396 OFFCURVE",
"17 343 CURVE SMOOTH",
"17 314 OFFCURVE",
"33 280 OFFCURVE",
"70 275 CURVE",
"70 0 LINE",
"210 0 LINE",
"210 463 LINE",
"105 463 LINE"
);
}
);
width = 615;
}
);
unicode = 0A5B;
},
{
glyphname = grSxA;
lastChange = "2015-07-03 10:47:14 +0000";
layers = (
{
anchors = (
{
name = bottom;
position = "{268, 0}";
},
{
name = bottom.HAc2;
position = "{421, -25}";
},
{
name = bottom.VAc2;
position = "{452, -25}";
},
{
name = bottom.virama;
position = "{421, 0}";
},
{
name = top;
position = "{421, 635}";
},
{
name = top.addak;
position = "{421, 635}";
},
{
name = top.tippi;
position = "{421, 635}";
}
);
components = (
{
disableAlignment = 1;
name = grNukta;
transform = "{1, 0, 0, 1, 117, 114}";
}
);
layerId = "8D1DA624-BCA2-432D-8EAC-BD2525041625";
name = Light;
paths = (
{
closed = 1;
nodes = (
"-20 580 LINE",
"572 580 LINE",
"572 635 LINE",
"-20 635 LINE"
);
},
{
closed = 1;
nodes = (
"452 0 LINE",
"452 589 LINE",
"390 589 LINE",
"390 0 LINE"
);
},
{
closed = 1;
nodes = (
"410 295 LINE",
"410 350 LINE",
"157 350 LINE",
"157 295 LINE"
);
},
{
closed = 1;
nodes = (
"42 602 LINE",
"83 543 OFFCURVE",
"104 461 OFFCURVE",
"104 379 CURVE SMOOTH",
"104 301 OFFCURVE",
"75 214 OFFCURVE",
"41 146 CURVE",
"104 146 LINE",
"142 217 OFFCURVE",
"168 291 OFFCURVE",
"168 379 CURVE SMOOTH",
"168 479 OFFCURVE",
"132 576 OFFCURVE",
"99 631 CURVE"
);
}
);
width = 552;
},
{
anchors = (
{
name = bottom;
position = "{367, 0}";
},
{
name = bottom.HAc2;
position = "{511, -33}";
},
{
name = bottom.VAc2;
position = "{581, -33}";
},
{
name = bottom.virama;
position = "{511, 0}";
},
{
name = top;
position = "{511, 670}";
},
{
name = top.addak;
position = "{511, 670}";
},
{
name = top.tippi;
position = "{511, 670}";
}
);
components = (
{
name = grNukta;
transform = "{1, 0, 0, 1, 212, 89}";
}
);
layerId = "EDB6D985-9BDA-48FF-B1DC-CE6E1D224CE4";
name = Bold;
paths = (
{
closed = 1;
nodes = (
"-20 558 LINE",
"681 558 LINE",
"681 670 LINE",
"-20 670 LINE"
);
},
{
closed = 1;
nodes = (
"581 0 LINE",
"581 569 LINE",
"441 569 LINE",
"441 0 LINE"
);
},
{
closed = 1;
nodes = (
"451 251 LINE",
"451 363 LINE",
"262 363 LINE",
"262 251 LINE"
);
},
{
closed = 1;
nodes = (
"51 608 LINE",
"102 552 OFFCURVE",
"143 466 OFFCURVE",
"143 383 CURVE SMOOTH",
"143 300 OFFCURVE",
"121 224 OFFCURVE",
"69 133 CURVE",
"223 133 LINE",
"270 219 OFFCURVE",
"288 288 OFFCURVE",
"288 381 CURVE SMOOTH",
"288 489 OFFCURVE",
"236 610 OFFCURVE",
"190 670 CURVE"
);
}
);
width = 661;
}
);
unicode = 0A36;
},
{
glyphname = grBindi;
lastChange = "2015-07-03 10:47:14 +0000";
layers = (
{
anchors = (
{
name = _top.bindi;
position = "{-129, 635}";
}
);
layerId = "8D1DA624-BCA2-432D-8EAC-BD2525041625";
name = Light;
paths = (
{
closed = 1;
nodes = (
"-175 747 OFFCURVE",
"-156 728 OFFCURVE",
"-129 728 CURVE SMOOTH",
"-102 728 OFFCURVE",
"-81 747 OFFCURVE",
"-81 774 CURVE SMOOTH",
"-81 800 OFFCURVE",
"-102 821 OFFCURVE",
"-129 821 CURVE SMOOTH",
"-156 821 OFFCURVE",
"-175 800 OFFCURVE",
"-175 774 CURVE SMOOTH"
);
}
);
width = 0;
},
{
anchors = (
{
name = _top.bindi;
position = "{-147, 670}";
}
);
layerId = "EDB6D985-9BDA-48FF-B1DC-CE6E1D224CE4";
name = Bold;
paths = (
{
closed = 1;
nodes = (
"-229 772 OFFCURVE",
"-193 736 OFFCURVE",
"-147 736 CURVE SMOOTH",
"-101 736 OFFCURVE",
"-65 772 OFFCURVE",
"-65 818 CURVE SMOOTH",
"-65 864 OFFCURVE",
"-101 900 OFFCURVE",
"-147 900 CURVE SMOOTH",
"-193 900 OFFCURVE",
"-229 864 OFFCURVE",
"-229 818 CURVE SMOOTH"
);
}
);
width = 0;
}
);
unicode = 0A02;
},
{
glyphname = grTippi;
lastChange = "2015-07-03 10:47:14 +0000";
layers = (
{
anchors = (
{
name = _top.tippi;
position = "{-130, 635}";
}
);
layerId = "8D1DA624-BCA2-432D-8EAC-BD2525041625";
name = Light;
paths = (
{
closed = 1;
nodes = (
"-32 687 LINE",
"-15 711 OFFCURVE",
"-2 735 OFFCURVE",
"-2 767 CURVE SMOOTH",
"-2 835 OFFCURVE",
"-50 888 OFFCURVE",
"-130 888 CURVE SMOOTH",
"-210 888 OFFCURVE",
"-258 835 OFFCURVE",
"-258 767 CURVE SMOOTH",
"-258 735 OFFCURVE",
"-245 711 OFFCURVE",
"-228 687 CURVE",
"-166 687 LINE",
"-184 711 OFFCURVE",
"-196 739 OFFCURVE",
"-196 767 CURVE SMOOTH",
"-196 797 OFFCURVE",
"-172 831 OFFCURVE",
"-130 831 CURVE SMOOTH",
"-88 831 OFFCURVE",
"-64 797 OFFCURVE",
"-64 767 CURVE SMOOTH",
"-64 739 OFFCURVE",
"-76 711 OFFCURVE",
"-94 687 CURVE"
);
}
);
width = 0;
},
{
anchors = (
{
name = _top.tippi;
position = "{-147, 670}";
}
);
layerId = "EDB6D985-9BDA-48FF-B1DC-CE6E1D224CE4";
name = Bold;
paths = (
{
closed = 1;
nodes = (
"-1 721 LINE",
"16 747 OFFCURVE",
"25 773 OFFCURVE",
"25 804 CURVE SMOOTH",
"25 896 OFFCURVE",
"-44 956 OFFCURVE",
"-147 956 CURVE SMOOTH",
"-250 956 OFFCURVE",
"-319 893 OFFCURVE",
"-319 804 CURVE SMOOTH",
"-319 773 OFFCURVE",
"-310 747 OFFCURVE",
"-293 721 CURVE",
"-182 721 LINE",
"-199 743 OFFCURVE",
"-209 764 OFFCURVE",
"-209 789 CURVE SMOOTH",
"-209 822 OFFCURVE",
"-183 844 OFFCURVE",
"-147 844 CURVE SMOOTH",
"-111 844 OFFCURVE",
"-85 822 OFFCURVE",
"-85 789 CURVE SMOOTH",
"-85 764 OFFCURVE",
"-95 743 OFFCURVE",
"-112 721 CURVE"
);
}
);
width = 0;
}
);
unicode = 0A70;
},
{
glyphname = grVisarga;
lastChange = "2015-07-03 10:47:14 +0000";
layers = (
{
layerId = "8D1DA624-BCA2-432D-8EAC-BD2525041625";
name = Light;
paths = (
{
closed = 1;
nodes = (
"100 457 OFFCURVE",
"119 438 OFFCURVE",
"146 438 CURVE SMOOTH",
"173 438 OFFCURVE",
"194 457 OFFCURVE",
"194 484 CURVE SMOOTH",
"194 510 OFFCURVE",
"173 531 OFFCURVE",
"146 531 CURVE SMOOTH",
"119 531 OFFCURVE",
"100 510 OFFCURVE",
"100 484 CURVE SMOOTH"
);
},
{
closed = 1;
nodes = (
"100 130 OFFCURVE",
"119 111 OFFCURVE",
"146 111 CURVE SMOOTH",
"173 111 OFFCURVE",
"194 130 OFFCURVE",
"194 157 CURVE SMOOTH",
"194 183 OFFCURVE",
"173 204 OFFCURVE",
"146 204 CURVE SMOOTH",
"119 204 OFFCURVE",
"100 183 OFFCURVE",
"100 157 CURVE SMOOTH"
);
}
);
width = 294;
},
{
layerId = "EDB6D985-9BDA-48FF-B1DC-CE6E1D224CE4";
name = Bold;
paths = (
{
closed = 1;
nodes = (
"80 438 OFFCURVE",
"116 402 OFFCURVE",
"162 402 CURVE SMOOTH",
"208 402 OFFCURVE",
"244 438 OFFCURVE",
"244 484 CURVE SMOOTH",
"244 530 OFFCURVE",
"208 566 OFFCURVE",
"162 566 CURVE SMOOTH",
"116 566 OFFCURVE",
"80 530 OFFCURVE",
"80 484 CURVE SMOOTH"
);
},
{
closed = 1;
nodes = (
"80 107 OFFCURVE",
"116 71 OFFCURVE",
"162 71 CURVE SMOOTH",
"208 71 OFFCURVE",
"244 107 OFFCURVE",
"244 153 CURVE SMOOTH",
"244 199 OFFCURVE",
"208 235 OFFCURVE",
"162 235 CURVE SMOOTH",
"116 235 OFFCURVE",
"80 199 OFFCURVE",
"80 153 CURVE SMOOTH"
);
}
);
width = 324;
}
);
unicode = 0A03;
},
{
glyphname = grVirama;
lastChange = "2015-07-03 10:47:14 +0000";
layers = (
{
anchors = (
{
name = _bottom.virama;
position = "{-131, 0}";
}
);
guideLines = (
{
angle = 90;
position = "{-404, -75}";
},
{
angle = 90;
position = "{-162, -46}";
}
);
layerId = "8D1DA624-BCA2-432D-8EAC-BD2525041625";
name = Light;
paths = (
{
closed = 1;
nodes = (
"40 -231 LINE",
"-99 -69 LINE",
"-162 -69 LINE",
"-38 -231 LINE"
);
}
);
width = 0;
},
{
anchors = (
{
name = _bottom.virama;
position = "{-147, 0}";
}
);
guideLines = (
{
angle = 90;
position = "{-470, -44}";
}
);
layerId = "EDB6D985-9BDA-48FF-B1DC-CE6E1D224CE4";
name = Bold;
paths = (
{
closed = 1;
nodes = (
"70 -261 LINE",
"-75 -85 LINE",
"-218 -85 LINE",
"-98 -261 LINE"
);
}
);
width = 0;
}
);
unicode = 0A4D;
},
{
glyphname = grNukta;
lastChange = "2015-07-03 10:47:14 +0000";
layers = (
{
anchors = (
{
name = _bottom;
position = "{66, 0}";
}
);
layerId = "8D1DA624-BCA2-432D-8EAC-BD2525041625";
name = Light;
paths = (
{
closed = 1;
nodes = (
"39 0 OFFCURVE",
"20 -21 OFFCURVE",
"20 -47 CURVE SMOOTH",
"20 -74 OFFCURVE",
"39 -94 OFFCURVE",
"66 -94 CURVE SMOOTH",
"93 -94 OFFCURVE",
"114 -74 OFFCURVE",
"114 -47 CURVE SMOOTH",
"114 -21 OFFCURVE",
"93 0 OFFCURVE",
"66 0 CURVE SMOOTH"
);
}
);
width = 0;
},
{
anchors = (
{
name = _bottom;
position = "{86, 0}";
}
);
layerId = "EDB6D985-9BDA-48FF-B1DC-CE6E1D224CE4";
name = Bold;
paths = (
{
closed = 1;
nodes = (
"44 0 OFFCURVE",
"10 -34 OFFCURVE",
"10 -76 CURVE SMOOTH",
"10 -118 OFFCURVE",
"44 -152 OFFCURVE",
"86 -152 CURVE SMOOTH",
"128 -152 OFFCURVE",
"162 -118 OFFCURVE",
"162 -76 CURVE SMOOTH",
"162 -34 OFFCURVE",
"128 0 OFFCURVE",
"86 0 CURVE SMOOTH"
);
}
);
width = 0;
}
);
unicode = 0A3C;
},
{
glyphname = grAddak;
lastChange = "2015-07-03 10:47:14 +0000";
layers = (
{
anchors = (
{
name = _top.addak;
position = "{-130, 635}";
}
);
layerId = "8D1DA624-BCA2-432D-8EAC-BD2525041625";
name = Light;
paths = (
{
closed = 1;
nodes = (
"-44 687 OFFCURVE",
"6 744 OFFCURVE",
"6 835 CURVE",
"-56 835 LINE",
"-56 782 OFFCURVE",
"-70 739 OFFCURVE",
"-130 739 CURVE SMOOTH",
"-190 739 OFFCURVE",
"-204 782 OFFCURVE",
"-204 835 CURVE",
"-266 835 LINE",
"-266 744 OFFCURVE",
"-216 687 OFFCURVE",
"-130 687 CURVE SMOOTH"
);
}
);
width = 0;
},
{
anchors = (
{
name = _top.addak;
position = "{-149, 670}";
}
);
layerId = "EDB6D985-9BDA-48FF-B1DC-CE6E1D224CE4";
name = Bold;
paths = (
{
closed = 1;
nodes = (
"-16 721 OFFCURVE",
"54 800 OFFCURVE",
"54 910 CURVE",
"-82 910 LINE",
"-82 858 OFFCURVE",
"-97 821 OFFCURVE",
"-149 821 CURVE SMOOTH",
"-201 821 OFFCURVE",
"-216 858 OFFCURVE",
"-216 910 CURVE",
"-352 910 LINE",
"-352 800 OFFCURVE",
"-282 721 OFFCURVE",
"-149 721 CURVE SMOOTH"
);
}
);
width = 0;
}
);
unicode = 0A71;
},
{
glyphname = grAdakbindi;
lastChange = "2015-07-03 10:47:14 +0000";
layers = (
{
anchors = (
{
name = _top.addak;
position = "{-130, 635}";
}
);
background = {
paths = (
{
closed = 1;
nodes = (
"-47 687 OFFCURVE",
"19 734 OFFCURVE",
"19 835 CURVE",
"-43 835 LINE",
"-43 782 OFFCURVE",
"-65 739 OFFCURVE",
"-130 739 CURVE SMOOTH",
"-197 739 OFFCURVE",
"-223 782 OFFCURVE",
"-223 835 CURVE",
"-285 835 LINE",
"-285 732 OFFCURVE",
"-215 687 OFFCURVE",
"-130 687 CURVE SMOOTH"
);
},
{
closed = 1;
nodes = (
"-176 818 OFFCURVE",
"-157 799 OFFCURVE",
"-130 799 CURVE SMOOTH",
"-103 799 OFFCURVE",
"-82 818 OFFCURVE",
"-82 845 CURVE SMOOTH",
"-82 871 OFFCURVE",
"-103 892 OFFCURVE",
"-130 892 CURVE SMOOTH",
"-157 892 OFFCURVE",
"-176 871 OFFCURVE",
"-176 845 CURVE SMOOTH"
);
}
);
};
layerId = "8D1DA624-BCA2-432D-8EAC-BD2525041625";
name = Light;
paths = (
{
closed = 1;
nodes = (
"-43 782 OFFCURVE",
"-65 739 OFFCURVE",
"-130 739 CURVE SMOOTH",
"-195 739 OFFCURVE",
"-217 782 OFFCURVE",
"-217 835 CURVE",
"-279 835 LINE",
"-279 734 OFFCURVE",
"-213 687 OFFCURVE",
"-130 687 CURVE SMOOTH",
"-47 687 OFFCURVE",
"19 734 OFFCURVE",
"19 835 CURVE",
"-43 835 LINE"
);
},
{
closed = 1;
nodes = (
"-176 818 OFFCURVE",
"-157 799 OFFCURVE",
"-130 799 CURVE SMOOTH",
"-103 799 OFFCURVE",
"-82 818 OFFCURVE",
"-82 845 CURVE SMOOTH",
"-82 871 OFFCURVE",
"-103 892 OFFCURVE",
"-130 892 CURVE SMOOTH",
"-157 892 OFFCURVE",
"-176 871 OFFCURVE",
"-176 845 CURVE SMOOTH"
);
}
);
width = 0;
},
{
anchors = (
{
name = _top.addak;
position = "{-149, 670}";
}
);
layerId = "EDB6D985-9BDA-48FF-B1DC-CE6E1D224CE4";
name = Bold;
paths = (
{
closed = 1;
nodes = (
"-62 858 OFFCURVE",
"-85 821 OFFCURVE",
"-149 821 CURVE SMOOTH",
"-213 821 OFFCURVE",
"-236 858 OFFCURVE",
"-236 910 CURVE",
"-362 910 LINE",
"-362 794 OFFCURVE",
"-277 721 OFFCURVE",
"-149 721 CURVE SMOOTH",
"-21 721 OFFCURVE",
"64 800 OFFCURVE",
"64 910 CURVE",
"-62 910 LINE"
);
},
{
closed = 1;
nodes = (
"-221 923 OFFCURVE",
"-189 891 OFFCURVE",
"-149 891 CURVE SMOOTH",
"-109 891 OFFCURVE",
"-77 923 OFFCURVE",
"-77 963 CURVE SMOOTH",
"-77 1003 OFFCURVE",
"-109 1035 OFFCURVE",
"-149 1035 CURVE SMOOTH",
"-189 1035 OFFCURVE",
"-221 1003 OFFCURVE",
"-221 963 CURVE SMOOTH"
);
}
);
width = 0;
}
);
unicode = 0A01;
},
{
glyphname = grUdaat;
lastChange = "2015-07-03 10:47:14 +0000";
layers = (
{
anchors = (
{
name = _bottom;
position = "{-111, 0}";
}
);
layerId = "8D1DA624-BCA2-432D-8EAC-BD2525041625";
name = Light;
paths = (
{
closed = 1;
nodes = (
"-150 -69 LINE",
"-11 -231 LINE",
"52 -231 LINE",
"-72 -69 LINE"
);
}
);
width = 0;
},
{
anchors = (
{
name = _bottom;
position = "{-122, 0}";
}
);
layerId = "EDB6D985-9BDA-48FF-B1DC-CE6E1D224CE4";
name = Bold;
paths = (
{
closed = 1;
nodes = (
"-206 -65 LINE",
"-61 -241 LINE",
"82 -241 LINE",
"-38 -65 LINE"
);
}
);
width = 0;
}
);
unicode = 0A75;
},
{
glyphname = grYakash;
lastChange = "2015-07-03 10:47:14 +0000";
layers = (
{
anchors = (
{
name = _bottom;
position = "{202, 0}";
}
);
guideLines = (
{
position = "{-133, -69}";
}
);
layerId = "8D1DA624-BCA2-432D-8EAC-BD2525041625";
name = Light;
paths = (
{
closed = 1;
nodes = (
"179 -50 LINE SMOOTH",
"197 -165 OFFCURVE",
"266 -217 OFFCURVE",
"380 -192 CURVE",
"380 -137 LINE",
"287 -158 OFFCURVE",
"251 -128 OFFCURVE",
"239 -46 CURVE SMOOTH",
"232 0 LINE",
"171 0 LINE"
);
}
);
width = 0;
},
{
anchors = (
{
name = _bottom;
position = "{177, 0}";
}
);
guideLines = (
{
position = "{85, -64}";
}
);
layerId = "EDB6D985-9BDA-48FF-B1DC-CE6E1D224CE4";
name = Bold;
paths = (
{
closed = 1;
nodes = (
"113 -33 LINE SMOOTH",
"135 -177 OFFCURVE",
"214 -307 OFFCURVE",
"428 -257 CURVE",
"428 -152 LINE",
"288 -187 OFFCURVE",
"264 -106 OFFCURVE",
"251 -33 CURVE SMOOTH",
"245 0 LINE",
"108 0 LINE"
);
}
);
width = 0;
}
);
unicode = 0A51;
},
{
glyphname = grZero;
lastChange = "2015-07-03 10:47:14 +0000";
layers = (
{
background = {
paths = (
{
closed = 1;
nodes = (
"8 168 OFFCURVE",
"113 46 OFFCURVE",
"269 46 CURVE SMOOTH",
"424 46 OFFCURVE",
"529 168 OFFCURVE",
"529 318 CURVE SMOOTH",
"529 468 OFFCURVE",
"424 590 OFFCURVE",
"269 590 CURVE SMOOTH",
"113 590 OFFCURVE",
"8 468 OFFCURVE",
"8 318 CURVE SMOOTH"
);
},
{
closed = 1;
nodes = (
"72 438 OFFCURVE",
"148 533 OFFCURVE",
"269 533 CURVE SMOOTH",
"391 533 OFFCURVE",
"465 438 OFFCURVE",
"465 318 CURVE SMOOTH",
"465 198 OFFCURVE",
"391 103 OFFCURVE",
"269 103 CURVE SMOOTH",
"148 103 OFFCURVE",
"72 198 OFFCURVE",
"72 318 CURVE SMOOTH"
);
}
);
};
guideLines = (
{
angle = 90;
position = "{269, 336}";
showMeasurement = 1;
}
);
layerId = "8D1DA624-BCA2-432D-8EAC-BD2525041625";
name = Light;
paths = (
{
closed = 1;
nodes = (
"40 185 OFFCURVE",
"132 79 OFFCURVE",
"269 79 CURVE SMOOTH",
"405 79 OFFCURVE",
"497 185 OFFCURVE",
"497 317 CURVE SMOOTH",
"497 449 OFFCURVE",
"405 556 OFFCURVE",
"269 556 CURVE SMOOTH",
"132 556 OFFCURVE",
"40 449 OFFCURVE",
"40 317 CURVE SMOOTH"
);
},
{
closed = 1;
nodes = (
"104 419 OFFCURVE",
"168 499 OFFCURVE",
"269 499 CURVE SMOOTH",
"371 499 OFFCURVE",
"433 419 OFFCURVE",
"433 317 CURVE SMOOTH",
"433 216 OFFCURVE",
"371 136 OFFCURVE",
"269 136 CURVE SMOOTH",
"168 136 OFFCURVE",
"104 216 OFFCURVE",
"104 317 CURVE SMOOTH"
);
}
);
width = 537;
},
{
background = {
paths = (
{
closed = 0;
nodes = (
"284 0 LINE",
"318 0 LINE"
);
},
{
closed = 0;
nodes = (
"284 670 LINE",
"318 670 LINE"
);
}
);
};
guideLines = (
{
angle = 90;
position = "{299, 616}";
showMeasurement = 1;
}
);
layerId = "EDB6D985-9BDA-48FF-B1DC-CE6E1D224CE4";
name = Bold;
paths = (
{
closed = 1;
nodes = (
"35 195 OFFCURVE",
"139 81 OFFCURVE",
"299 81 CURVE SMOOTH",
"459 81 OFFCURVE",
"563 195 OFFCURVE",
"563 335 CURVE SMOOTH",
"563 476 OFFCURVE",
"459 589 OFFCURVE",
"299 589 CURVE SMOOTH",
"139 589 OFFCURVE",
"35 476 OFFCURVE",
"35 335 CURVE SMOOTH"
);
},
{
closed = 1;
nodes = (
"175 410 OFFCURVE",
"220 471 OFFCURVE",
"299 471 CURVE SMOOTH",
"379 471 OFFCURVE",
"423 410 OFFCURVE",
"423 335 CURVE SMOOTH",
"423 260 OFFCURVE",
"379 199 OFFCURVE",
"299 199 CURVE SMOOTH",
"220 199 OFFCURVE",
"175 260 OFFCURVE",
"175 335 CURVE SMOOTH"
);
}
);
width = 598;
}
);
unicode = 0A66;
},
{
glyphname = grOne;
lastChange = "2015-07-03 10:47:14 +0000";
layers = (
{
background = {
paths = (
{
closed = 1;
nodes = (
"401 150 LINE SMOOTH",
"401 50 OFFCURVE",
"431 -5 OFFCURVE",
"548 -5 CURVE",
"548 52 LINE",
"469 52 OFFCURVE",
"463 85 OFFCURVE",
"463 168 CURVE SMOOTH",
"463 435 LINE SMOOTH",
"463 565 OFFCURVE",
"379 640 OFFCURVE",
"257 640 CURVE SMOOTH",
"145 640 OFFCURVE",
"45 566 OFFCURVE",
"45 435 CURVE SMOOTH",
"45 314 OFFCURVE",
"146 240 OFFCURVE",
"273 240 CURVE SMOOTH",
"320 240 OFFCURVE",
"352 245 OFFCURVE",
"423 256 CURVE",
"423 314 LINE",
"383 305 OFFCURVE",
"326 297 OFFCURVE",
"273 297 CURVE SMOOTH",
"169 297 OFFCURVE",
"109 355 OFFCURVE",
"109 440 CURVE SMOOTH",
"109 525 OFFCURVE",
"174 583 OFFCURVE",
"257 583 CURVE SMOOTH",
"341 583 OFFCURVE",
"401 530 OFFCURVE",
"401 417 CURVE SMOOTH"
);
}
);
};
guideLines = (
{
angle = 90;
position = "{146, 439}";
}
);
layerId = "8D1DA624-BCA2-432D-8EAC-BD2525041625";
name = Light;
paths = (
{
closed = 1;
nodes = (
"401 150 LINE SMOOTH",
"401 50 OFFCURVE",
"441 -5 OFFCURVE",
"548 -5 CURVE",
"548 52 LINE",
"469 52 OFFCURVE",
"463 85 OFFCURVE",
"463 168 CURVE SMOOTH",
"463 435 LINE SMOOTH",
"463 561 OFFCURVE",
"369 640 OFFCURVE",
"257 640 CURVE SMOOTH",
"146 640 OFFCURVE",
"45 560 OFFCURVE",
"45 440 CURVE SMOOTH",
"45 314 OFFCURVE",
"146 240 OFFCURVE",
"257 240 CURVE SMOOTH",
"338 240 OFFCURVE",
"387 281 OFFCURVE",
"401 306 CURVE",
"401 440 LINE",
"401 355 OFFCURVE",
"341 297 OFFCURVE",
"257 297 CURVE SMOOTH",
"169 297 OFFCURVE",
"109 355 OFFCURVE",
"109 440 CURVE SMOOTH",
"109 524 OFFCURVE",
"175 583 OFFCURVE",
"257 583 CURVE SMOOTH",
"339 583 OFFCURVE",
"401 523 OFFCURVE",
"401 440 CURVE SMOOTH"
);
}
);
width = 563;
},
{
background = {
paths = (
{
closed = 1;
nodes = (
"360 194 LINE SMOOTH",
"360 64 OFFCURVE",
"428 -1 OFFCURVE",
"575 -1 CURVE",
"575 117 LINE",
"506 117 OFFCURVE",
"500 157 OFFCURVE",
"500 212 CURVE SMOOTH",
"500 470 LINE SMOOTH",
"500 600 OFFCURVE",
"407 675 OFFCURVE",
"270 675 CURVE SMOOTH",
"143 675 OFFCURVE",
"35 595 OFFCURVE",
"35 460 CURVE SMOOTH",
"35 334 OFFCURVE",
"143 256 OFFCURVE",
"266 256 CURVE SMOOTH",
"318 256 OFFCURVE",
"353 261 OFFCURVE",
"374 262 CURVE",
"374 381 LINE",
"344 377 OFFCURVE",
"312 374 OFFCURVE",
"281 374 CURVE SMOOTH",
"215 374 OFFCURVE",
"177 414 OFFCURVE",
"177 465 CURVE SMOOTH",
"177 516 OFFCURVE",
"209 557 OFFCURVE",
"268 557 CURVE SMOOTH",
"327 557 OFFCURVE",
"360 517 OFFCURVE",
"360 452 CURVE SMOOTH"
);
}
);
};
layerId = "EDB6D985-9BDA-48FF-B1DC-CE6E1D224CE4";
name = Bold;
paths = (
{
closed = 1;
nodes = (
"360 194 LINE SMOOTH",
"360 64 OFFCURVE",
"428 -1 OFFCURVE",
"575 -1 CURVE",
"575 117 LINE",
"506 117 OFFCURVE",
"500 157 OFFCURVE",
"500 212 CURVE SMOOTH",
"500 470 LINE SMOOTH",
"500 600 OFFCURVE",
"407 675 OFFCURVE",
"270 675 CURVE SMOOTH",
"143 675 OFFCURVE",
"35 595 OFFCURVE",
"35 460 CURVE SMOOTH",
"35 334 OFFCURVE",
"133 256 OFFCURVE",
"246 256 CURVE SMOOTH",
"305 256 OFFCURVE",
"343 278 OFFCURVE",
"360 299 CURVE",
"360 465 LINE",
"360 414 OFFCURVE",
"327 375 OFFCURVE",
"268 375 CURVE SMOOTH",
"209 375 OFFCURVE",
"177 414 OFFCURVE",
"177 465 CURVE SMOOTH",
"177 516 OFFCURVE",
"209 557 OFFCURVE",
"268 557 CURVE SMOOTH",
"327 557 OFFCURVE",
"360 517 OFFCURVE",
"360 465 CURVE SMOOTH"
);
}
);
width = 580;
},
{
associatedMasterId = "EDB6D985-9BDA-48FF-B1DC-CE6E1D224CE4";
background = {
paths = (
{
closed = 1;
nodes = (
"465 0 LINE",
"465 489 LINE SMOOTH",
"465 599 OFFCURVE",
"392 670 OFFCURVE",
"259 670 CURVE SMOOTH",
"137 670 OFFCURVE",
"35 573 OFFCURVE",
"35 455 CURVE SMOOTH",
"35 334 OFFCURVE",
"129 281 OFFCURVE",
"246 281 CURVE SMOOTH",
"293 281 OFFCURVE",
"328 286 OFFCURVE",
"339 287 CURVE",
"339 400 LINE",
"333 399 OFFCURVE",
"306 394 OFFCURVE",
"253 394 CURVE SMOOTH",
"206 394 OFFCURVE",
"177 422 OFFCURVE",
"177 466 CURVE SMOOTH",
"177 515 OFFCURVE",
"214 558 OFFCURVE",
"258 558 CURVE SMOOTH",
"302 558 OFFCURVE",
"324 533 OFFCURVE",
"324 473 CURVE SMOOTH",
"324 0 LINE"
);
}
);
};
layerId = "3BA3A0BF-818B-43C8-A66B-108ECB48DE45";
name = "Bold May 1 15, 11:24";
paths = (
{
closed = 1;
nodes = (
"37 404 OFFCURVE",
"106 328 OFFCURVE",
"208 328 CURVE SMOOTH",
"308 328 OFFCURVE",
"378 404 OFFCURVE",
"378 498 CURVE SMOOTH",
"378 594 OFFCURVE",
"308 670 OFFCURVE",
"208 670 CURVE SMOOTH",
"106 670 OFFCURVE",
"37 594 OFFCURVE",
"37 498 CURVE SMOOTH"
);
},
{
closed = 1;
nodes = (
"148 537 OFFCURVE",
"172 568 OFFCURVE",
"208 568 CURVE SMOOTH",
"243 568 OFFCURVE",
"266 537 OFFCURVE",
"266 498 CURVE SMOOTH",
"266 460 OFFCURVE",
"243 429 OFFCURVE",
"208 429 CURVE SMOOTH",
"172 429 OFFCURVE",
"148 460 OFFCURVE",
"148 498 CURVE SMOOTH"
);
}
);
width = 600;
},
{
associatedMasterId = "EDB6D985-9BDA-48FF-B1DC-CE6E1D224CE4";
background = {
paths = (
{
closed = 1;
nodes = (
"360 194 LINE SMOOTH",
"360 64 OFFCURVE",
"428 -1 OFFCURVE",
"575 -1 CURVE",
"575 117 LINE",
"506 117 OFFCURVE",
"500 157 OFFCURVE",
"500 212 CURVE SMOOTH",
"500 470 LINE SMOOTH",
"500 600 OFFCURVE",
"407 675 OFFCURVE",
"270 675 CURVE SMOOTH",
"143 675 OFFCURVE",
"35 595 OFFCURVE",
"35 460 CURVE SMOOTH",
"35 334 OFFCURVE",
"143 256 OFFCURVE",
"266 256 CURVE SMOOTH",
"318 256 OFFCURVE",
"353 261 OFFCURVE",
"374 262 CURVE",
"374 381 LINE",
"344 377 OFFCURVE",
"312 374 OFFCURVE",
"281 374 CURVE SMOOTH",
"215 374 OFFCURVE",
"177 414 OFFCURVE",
"177 465 CURVE SMOOTH",
"177 516 OFFCURVE",
"209 557 OFFCURVE",
"268 557 CURVE SMOOTH",
"327 557 OFFCURVE",
"360 517 OFFCURVE",
"360 452 CURVE SMOOTH"
);
}
);
};
layerId = "516E0E83-AF3F-4BA6-9032-528E86FE5688";
name = "Bold May 5 15, 18:14";
paths = (
{
closed = 1;
nodes = (
"360 194 LINE SMOOTH",
"360 64 OFFCURVE",
"428 -1 OFFCURVE",
"575 -1 CURVE",
"575 117 LINE",
"506 117 OFFCURVE",
"500 157 OFFCURVE",
"500 212 CURVE SMOOTH",
"500 470 LINE SMOOTH",
"500 600 OFFCURVE",
"407 675 OFFCURVE",
"270 675 CURVE SMOOTH",
"143 675 OFFCURVE",
"35 595 OFFCURVE",
"35 460 CURVE SMOOTH",
"35 334 OFFCURVE",
"143 256 OFFCURVE",
"266 256 CURVE SMOOTH",
"318 256 OFFCURVE",
"353 261 OFFCURVE",
"374 262 CURVE",
"374 381 LINE",
"344 377 OFFCURVE",
"312 374 OFFCURVE",
"281 374 CURVE SMOOTH",
"215 374 OFFCURVE",
"177 414 OFFCURVE",
"177 465 CURVE SMOOTH",
"177 516 OFFCURVE",
"209 557 OFFCURVE",
"268 557 CURVE SMOOTH",
"327 557 OFFCURVE",
"360 517 OFFCURVE",
"360 452 CURVE SMOOTH"
);
}
);
width = 580;
},
{
associatedMasterId = "8D1DA624-BCA2-432D-8EAC-BD2525041625";
layerId = "8E12D358-3BFE-48F9-9DE6-F7E134003231";
name = "Light May 5 15, 18:18";
paths = (
{
closed = 1;
nodes = (
"401 150 LINE SMOOTH",
"401 50 OFFCURVE",
"431 -5 OFFCURVE",
"548 -5 CURVE",
"548 52 LINE",
"469 52 OFFCURVE",
"463 85 OFFCURVE",
"463 168 CURVE SMOOTH",
"463 435 LINE SMOOTH",
"463 565 OFFCURVE",
"379 640 OFFCURVE",
"257 640 CURVE SMOOTH",
"145 640 OFFCURVE",
"45 566 OFFCURVE",
"45 435 CURVE SMOOTH",
"45 314 OFFCURVE",
"146 240 OFFCURVE",
"273 240 CURVE SMOOTH",
"320 240 OFFCURVE",
"352 245 OFFCURVE",
"423 256 CURVE",
"423 314 LINE",
"383 305 OFFCURVE",
"326 297 OFFCURVE",
"273 297 CURVE SMOOTH",
"169 297 OFFCURVE",
"109 355 OFFCURVE",
"109 440 CURVE SMOOTH",
"109 525 OFFCURVE",
"174 583 OFFCURVE",
"257 583 CURVE SMOOTH",
"341 583 OFFCURVE",
"401 530 OFFCURVE",
"401 417 CURVE SMOOTH"
);
}
);
width = 563;
}
);
unicode = 0A67;
},
